<?xml version="1.0" encoding="UTF-8" standalone="no"?>
<!DOCTYPE svg PUBLIC "-//W3C//DTD SVG 1.1//EN"
 "http://www.w3.org/Graphics/SVG/1.1/DTD/svg11.dtd">
<!-- Generated by graphviz version 2.40.1 (20161225.0304)
 -->
<!-- Title: dependencies Pages: 1 -->
<svg width="1071pt" height="211pt"
 viewBox="0.00 0.00 1071.00 211.00" xmlns="http://www.w3.org/2000/svg" xmlns:xlink="http://www.w3.org/1999/xlink">
<g id="graph0" class="graph" transform="scale(1 1) rotate(0) translate(4 207)">
<title>dependencies</title>
<polygon fill="#ffffff" stroke="transparent" points="-4,4 -4,-207 1067,-207 1067,4 -4,4"/>
<text text-anchor="start" x="510.5091" y="-42.4" font-family="sans-serif" font-weight="bold" font-size="14.00" fill="#000000">Legend</text>
<polygon fill="#ffffb3" stroke="transparent" points="297.5,-10 297.5,-30 317.5,-30 317.5,-10 297.5,-10"/>
<text text-anchor="start" x="321.129" y="-15.4" font-family="sans-serif" font-size="14.00" fill="#000000"> &#160;Declarations</text>
<polygon fill="#8dd3c7" stroke="transparent" points="410.5,-10 410.5,-30 430.5,-30 430.5,-10 410.5,-10"/>
<text text-anchor="start" x="434.2251" y="-15.4" font-family="sans-serif" font-size="14.00" fill="#000000"> &#160;Module</text>
<polygon fill="#80b1d3" stroke="transparent" points="496.5,-10 496.5,-30 516.5,-30 516.5,-10 496.5,-10"/>
<text text-anchor="start" x="520.2812" y="-15.4" font-family="sans-serif" font-size="14.00" fill="#000000"> &#160;Bootstrap</text>
<polygon fill="#fdb462" stroke="transparent" points="593.5,-10 593.5,-30 613.5,-30 613.5,-10 593.5,-10"/>
<text text-anchor="start" x="617.1732" y="-15.4" font-family="sans-serif" font-size="14.00" fill="#000000"> &#160;Providers</text>
<polygon fill="#fb8072" stroke="transparent" points="689.5,-10 689.5,-30 709.5,-30 709.5,-10 689.5,-10"/>
<text text-anchor="start" x="713.2258" y="-15.4" font-family="sans-serif" font-size="14.00" fill="#000000"> &#160;Exports</text>
<g id="clust1" class="cluster">
<title>cluster_CheckoutModule</title>
<polygon fill="none" stroke="#000000" stroke-dasharray="1,5" points="8,-70 8,-195 1055,-195 1055,-70 8,-70"/>
</g>
<g id="clust3" class="cluster">
<title>cluster_CheckoutModule_imports</title>
<polygon fill="none" stroke="#000000" points="196,-78 196,-130 1047,-130 1047,-78 196,-78"/>
</g>
<g id="clust6" class="cluster">
<title>cluster_CheckoutModule_providers</title>
<polygon fill="none" stroke="#000000" points="16,-78 16,-130 188,-130 188,-78 16,-78"/>
</g>
<!-- CommonModule -->
<g id="node1" class="node">
<title>CommonModule</title>
<polygon fill="#8dd3c7" stroke="#000000" points="1038.6681,-122 1035.6681,-126 1014.6681,-126 1011.6681,-122 927.3319,-122 927.3319,-86 1038.6681,-86 1038.6681,-122"/>
<text text-anchor="middle" x="983" y="-99.8" font-family="Times,serif" font-size="14.00" fill="#000000">CommonModule</text>
</g>
<!-- CheckoutModule -->
<g id="node7" class="node">
<title>CheckoutModule</title>
<polygon fill="#8dd3c7" stroke="#000000" points="552.7064,-187 549.7064,-191 528.7064,-191 525.7064,-187 439.2936,-187 439.2936,-151 552.7064,-151 552.7064,-187"/>
<text text-anchor="middle" x="496" y="-164.8" font-family="Times,serif" font-size="14.00" fill="#000000">CheckoutModule</text>
</g>
<!-- CommonModule&#45;&gt;CheckoutModule -->
<g id="edge1" class="edge">
<title>CommonModule&#45;&gt;CheckoutModule</title>
<path fill="none" stroke="#000000" d="M983,-122.2843C983,-143.3211 983,-175 983,-175 983,-175 562.8182,-175 562.8182,-175"/>
<polygon fill="#000000" stroke="#000000" points="562.8182,-171.5001 552.8182,-175 562.8182,-178.5001 562.8182,-171.5001"/>
</g>
<!-- RouterModule.forChild(args) -->
<g id="node2" class="node">
<title>RouterModule.forChild(args)</title>
<polygon fill="#8dd3c7" stroke="#000000" points="909.7323,-122 906.7323,-126 885.7323,-126 882.7323,-122 728.2677,-122 728.2677,-86 909.7323,-86 909.7323,-122"/>
<text text-anchor="middle" x="819" y="-99.8" font-family="Times,serif" font-size="14.00" fill="#000000">RouterModule.forChild(args)</text>
</g>
<!-- RouterModule.forChild(args)&#45;&gt;CheckoutModule -->
<g id="edge2" class="edge">
<title>RouterModule.forChild(args)&#45;&gt;CheckoutModule</title>
<path fill="none" stroke="#000000" d="M819,-122.0225C819,-139.3734 819,-163 819,-163 819,-163 562.6319,-163 562.6319,-163"/>
<polygon fill="#000000" stroke="#000000" points="562.632,-159.5001 552.6319,-163 562.6319,-166.5001 562.632,-159.5001"/>
</g>
<!-- EffectsModule.run(args) -->
<g id="node3" class="node">
<title>EffectsModule.run(args)</title>
<polygon fill="#8dd3c7" stroke="#000000" points="709.9896,-122 706.9896,-126 685.9896,-126 682.9896,-122 556.0104,-122 556.0104,-86 709.9896,-86 709.9896,-122"/>
<text text-anchor="middle" x="633" y="-99.8" font-family="Times,serif" font-size="14.00" fill="#000000">EffectsModule.run(args)</text>
</g>
<!-- EffectsModule.run(args)&#45;&gt;CheckoutModule -->
<g id="edge3" class="edge">
<title>EffectsModule.run(args)&#45;&gt;CheckoutModule</title>
<path fill="none" stroke="#000000" d="M555.9788,-104C549.4153,-104 545.2146,-104 545.2146,-104 545.2146,-104 545.2146,-140.8939 545.2146,-140.8939"/>
<polygon fill="#000000" stroke="#000000" points="541.7147,-140.8938 545.2146,-150.8939 548.7147,-140.8939 541.7147,-140.8938"/>
</g>
<!-- CartModule -->
<g id="node4" class="node">
<title>CartModule</title>
<polygon fill="#8dd3c7" stroke="#000000" points="537.6529,-122 534.6529,-126 513.6529,-126 510.6529,-122 454.3471,-122 454.3471,-86 537.6529,-86 537.6529,-122"/>
<text text-anchor="middle" x="496" y="-99.8" font-family="Times,serif" font-size="14.00" fill="#000000">CartModule</text>
</g>
<!-- CartModule&#45;&gt;CheckoutModule -->
<g id="edge4" class="edge">
<title>CartModule&#45;&gt;CheckoutModule</title>
<path fill="none" stroke="#000000" d="M496,-122.1061C496,-122.1061 496,-140.991 496,-140.991"/>
<polygon fill="#000000" stroke="#000000" points="492.5001,-140.9909 496,-150.991 499.5001,-140.991 492.5001,-140.9909"/>
</g>
<!-- AddressModule -->
<g id="node5" class="node">
<title>AddressModule</title>
<polygon fill="#8dd3c7" stroke="#000000" points="435.9216,-122 432.9216,-126 411.9216,-126 408.9216,-122 330.0784,-122 330.0784,-86 435.9216,-86 435.9216,-122"/>
<text text-anchor="middle" x="383" y="-99.8" font-family="Times,serif" font-size="14.00" fill="#000000">AddressModule</text>
</g>
<!-- AddressModule&#45;&gt;CheckoutModule -->
<g id="edge5" class="edge">
<title>AddressModule&#45;&gt;CheckoutModule</title>
<path fill="none" stroke="#000000" d="M435.9651,-104C442.4163,-104 446.7854,-104 446.7854,-104 446.7854,-104 446.7854,-140.8939 446.7854,-140.8939"/>
<polygon fill="#000000" stroke="#000000" points="443.2855,-140.8938 446.7854,-150.8939 450.2855,-140.8939 443.2855,-140.8938"/>
</g>
<!-- PaymentModule -->
<g id="node6" class="node">
<title>PaymentModule</title>
<polygon fill="#8dd3c7" stroke="#000000" points="312.0438,-122 309.0438,-126 288.0438,-126 285.0438,-122 203.9562,-122 203.9562,-86 312.0438,-86 312.0438,-122"/>
<text text-anchor="middle" x="258" y="-99.8" font-family="Times,serif" font-size="14.00" fill="#000000">PaymentModule</text>
</g>
<!-- PaymentModule&#45;&gt;CheckoutModule -->
<g id="edge6" class="edge">
<title>PaymentModule&#45;&gt;CheckoutModule</title>
<path fill="none" stroke="#000000" d="M258,-122.0225C258,-139.3734 258,-163 258,-163 258,-163 429.2954,-163 429.2954,-163"/>
<polygon fill="#000000" stroke="#000000" points="429.2955,-166.5001 439.2954,-163 429.2954,-159.5001 429.2955,-166.5001"/>
</g>
<!-- CheckoutActions -->
<g id="node8" class="node">
<title>CheckoutActions</title>
<ellipse fill="#fdb462" stroke="#000000" cx="102" cy="-104" rx="78.1714" ry="18"/>
<text text-anchor="middle" x="102" y="-99.8" font-family="Times,serif" font-size="14.00" fill="#000000">CheckoutActions</text>
</g>
<!-- CheckoutActions&#45;&gt;CheckoutModule -->
<g id="edge7" class="edge">
<title>CheckoutActions&#45;&gt;CheckoutModule</title>
<path fill="none" stroke="#000000" d="M102,-122.2843C102,-143.3211 102,-175 102,-175 102,-175 429.1298,-175 429.1298,-175"/>
<polygon fill="#000000" stroke="#000000" points="429.1298,-178.5001 439.1298,-175 429.1298,-171.5001 429.1298,-178.5001"/>
</g>
</g>
</svg>
