<?xml version="1.0" encoding="UTF-8" standalone="no"?>
<!DOCTYPE svg PUBLIC "-//W3C//DTD SVG 1.1//EN"
 "http://www.w3.org/Graphics/SVG/1.1/DTD/svg11.dtd">
<!-- Generated by graphviz version 2.40.1 (20161225.0304)
 -->
<!-- Title: dependencies Pages: 1 -->
<svg width="855pt" height="211pt"
 viewBox="0.00 0.00 855.00 211.00" xmlns="http://www.w3.org/2000/svg" xmlns:xlink="http://www.w3.org/1999/xlink">
<g id="graph0" class="graph" transform="scale(1 1) rotate(0) translate(4 207)">
<title>dependencies</title>
<polygon fill="#ffffff" stroke="transparent" points="-4,4 -4,-207 851,-207 851,4 -4,4"/>
<text text-anchor="start" x="402.5091" y="-42.4" font-family="sans-serif" font-weight="bold" font-size="14.00" fill="#000000">Legend</text>
<polygon fill="#ffffb3" stroke="transparent" points="189.5,-10 189.5,-30 209.5,-30 209.5,-10 189.5,-10"/>
<text text-anchor="start" x="213.129" y="-15.4" font-family="sans-serif" font-size="14.00" fill="#000000"> &#160;Declarations</text>
<polygon fill="#8dd3c7" stroke="transparent" points="302.5,-10 302.5,-30 322.5,-30 322.5,-10 302.5,-10"/>
<text text-anchor="start" x="326.2251" y="-15.4" font-family="sans-serif" font-size="14.00" fill="#000000"> &#160;Module</text>
<polygon fill="#80b1d3" stroke="transparent" points="388.5,-10 388.5,-30 408.5,-30 408.5,-10 388.5,-10"/>
<text text-anchor="start" x="412.2812" y="-15.4" font-family="sans-serif" font-size="14.00" fill="#000000"> &#160;Bootstrap</text>
<polygon fill="#fdb462" stroke="transparent" points="485.5,-10 485.5,-30 505.5,-30 505.5,-10 485.5,-10"/>
<text text-anchor="start" x="509.1732" y="-15.4" font-family="sans-serif" font-size="14.00" fill="#000000"> &#160;Providers</text>
<polygon fill="#fb8072" stroke="transparent" points="581.5,-10 581.5,-30 601.5,-30 601.5,-10 581.5,-10"/>
<text text-anchor="start" x="605.2258" y="-15.4" font-family="sans-serif" font-size="14.00" fill="#000000"> &#160;Exports</text>
<g id="clust1" class="cluster">
<title>cluster_CheckoutModule</title>
<polygon fill="none" stroke="#000000" stroke-dasharray="1,5" points="8,-70 8,-195 839,-195 839,-70 8,-70"/>
</g>
<g id="clust2" class="cluster">
<title>cluster_CheckoutModule_declarations</title>
<polygon fill="none" stroke="#000000" points="490,-78 490,-130 831,-130 831,-78 490,-78"/>
</g>
<g id="clust5" class="cluster">
<title>cluster_CheckoutModule_imports</title>
<polygon fill="none" stroke="#000000" points="16,-78 16,-130 482,-130 482,-78 16,-78"/>
</g>
<!-- OrderFailedComponent -->
<g id="node1" class="node">
<title>OrderFailedComponent</title>
<polygon fill="#ffffb3" stroke="#000000" points="823.4678,-122 674.5322,-122 674.5322,-86 823.4678,-86 823.4678,-122"/>
<text text-anchor="middle" x="749" y="-99.8" font-family="Times,serif" font-size="14.00" fill="#000000">OrderFailedComponent</text>
</g>
<!-- CheckoutModule -->
<g id="node3" class="node">
<title>CheckoutModule</title>
<polygon fill="#8dd3c7" stroke="#000000" points="420.7064,-187 417.7064,-191 396.7064,-191 393.7064,-187 307.2936,-187 307.2936,-151 420.7064,-151 420.7064,-187"/>
<text text-anchor="middle" x="364" y="-164.8" font-family="Times,serif" font-size="14.00" fill="#000000">CheckoutModule</text>
</g>
<!-- OrderFailedComponent&#45;&gt;CheckoutModule -->
<g id="edge1" class="edge">
<title>OrderFailedComponent&#45;&gt;CheckoutModule</title>
<path fill="none" stroke="#000000" d="M749,-122.2843C749,-143.3211 749,-175 749,-175 749,-175 430.8081,-175 430.8081,-175"/>
<polygon fill="#000000" stroke="#000000" points="430.8081,-171.5001 420.8081,-175 430.808,-178.5001 430.8081,-171.5001"/>
</g>
<!-- OrderSuccessComponent -->
<g id="node2" class="node">
<title>OrderSuccessComponent</title>
<polygon fill="#ffffb3" stroke="#000000" points="656.2907,-122 497.7093,-122 497.7093,-86 656.2907,-86 656.2907,-122"/>
<text text-anchor="middle" x="577" y="-99.8" font-family="Times,serif" font-size="14.00" fill="#000000">OrderSuccessComponent</text>
</g>
<!-- OrderSuccessComponent&#45;&gt;CheckoutModule -->
<g id="edge2" class="edge">
<title>OrderSuccessComponent&#45;&gt;CheckoutModule</title>
<path fill="none" stroke="#000000" d="M577,-122.0225C577,-139.3734 577,-163 577,-163 577,-163 430.8003,-163 430.8003,-163"/>
<polygon fill="#000000" stroke="#000000" points="430.8003,-159.5001 420.8003,-163 430.8003,-166.5001 430.8003,-159.5001"/>
</g>
<!-- AddressModule -->
<g id="node4" class="node">
<title>AddressModule</title>
<polygon fill="#8dd3c7" stroke="#000000" points="473.9216,-122 470.9216,-126 449.9216,-126 446.9216,-122 368.0784,-122 368.0784,-86 473.9216,-86 473.9216,-122"/>
<text text-anchor="middle" x="421" y="-99.8" font-family="Times,serif" font-size="14.00" fill="#000000">AddressModule</text>
</g>
<!-- AddressModule&#45;&gt;CheckoutModule -->
<g id="edge3" class="edge">
<title>AddressModule&#45;&gt;CheckoutModule</title>
<path fill="none" stroke="#000000" d="M394.4464,-122.1061C394.4464,-122.1061 394.4464,-140.991 394.4464,-140.991"/>
<polygon fill="#000000" stroke="#000000" points="390.9464,-140.9909 394.4464,-150.991 397.9464,-140.991 390.9464,-140.9909"/>
</g>
<!-- CartModule -->
<g id="node5" class="node">
<title>CartModule</title>
<polygon fill="#8dd3c7" stroke="#000000" points="349.6529,-122 346.6529,-126 325.6529,-126 322.6529,-122 266.3471,-122 266.3471,-86 349.6529,-86 349.6529,-122"/>
<text text-anchor="middle" x="308" y="-99.8" font-family="Times,serif" font-size="14.00" fill="#000000">CartModule</text>
</g>
<!-- CartModule&#45;&gt;CheckoutModule -->
<g id="edge4" class="edge">
<title>CartModule&#45;&gt;CheckoutModule</title>
<path fill="none" stroke="#000000" d="M328.6115,-122.1061C328.6115,-122.1061 328.6115,-140.991 328.6115,-140.991"/>
<polygon fill="#000000" stroke="#000000" points="325.1116,-140.9909 328.6115,-150.991 332.1116,-140.991 325.1116,-140.9909"/>
</g>
<!-- PaymentModule -->
<g id="node6" class="node">
<title>PaymentModule</title>
<polygon fill="#8dd3c7" stroke="#000000" points="248.0438,-122 245.0438,-126 224.0438,-126 221.0438,-122 139.9562,-122 139.9562,-86 248.0438,-86 248.0438,-122"/>
<text text-anchor="middle" x="194" y="-99.8" font-family="Times,serif" font-size="14.00" fill="#000000">PaymentModule</text>
</g>
<!-- PaymentModule&#45;&gt;CheckoutModule -->
<g id="edge5" class="edge">
<title>PaymentModule&#45;&gt;CheckoutModule</title>
<path fill="none" stroke="#000000" d="M194,-122.0225C194,-139.3734 194,-163 194,-163 194,-163 297.3925,-163 297.3925,-163"/>
<polygon fill="#000000" stroke="#000000" points="297.3925,-166.5001 307.3925,-163 297.3924,-159.5001 297.3925,-166.5001"/>
</g>
<!-- SharedModule -->
<g id="node7" class="node">
<title>SharedModule</title>
<polygon fill="#8dd3c7" stroke="#000000" points="122.4231,-122 119.4231,-126 98.4231,-126 95.4231,-122 23.5769,-122 23.5769,-86 122.4231,-86 122.4231,-122"/>
<text text-anchor="middle" x="73" y="-99.8" font-family="Times,serif" font-size="14.00" fill="#000000">SharedModule</text>
</g>
<!-- SharedModule&#45;&gt;CheckoutModule -->
<g id="edge6" class="edge">
<title>SharedModule&#45;&gt;CheckoutModule</title>
<path fill="none" stroke="#000000" d="M73,-122.2843C73,-143.3211 73,-175 73,-175 73,-175 297.2015,-175 297.2015,-175"/>
<polygon fill="#000000" stroke="#000000" points="297.2015,-178.5001 307.2015,-175 297.2014,-171.5001 297.2015,-178.5001"/>
</g>
</g>
</svg>
