<?xml version="1.0" encoding="UTF-8" standalone="no"?>
<!DOCTYPE svg PUBLIC "-//W3C//DTD SVG 1.1//EN"
 "http://www.w3.org/Graphics/SVG/1.1/DTD/svg11.dtd">
<!-- Generated by graphviz version 2.40.1 (20161225.0304)
 -->
<!-- Title: dependencies Pages: 1 -->
<svg width="1113pt" height="211pt"
 viewBox="0.00 0.00 1113.00 211.00" xmlns="http://www.w3.org/2000/svg" xmlns:xlink="http://www.w3.org/1999/xlink">
<g id="graph0" class="graph" transform="scale(1 1) rotate(0) translate(4 207)">
<title>dependencies</title>
<polygon fill="#ffffff" stroke="transparent" points="-4,4 -4,-207 1109,-207 1109,4 -4,4"/>
<text text-anchor="start" x="531.5091" y="-42.4" font-family="sans-serif" font-weight="bold" font-size="14.00" fill="#000000">Legend</text>
<polygon fill="#ffffb3" stroke="transparent" points="318.5,-10 318.5,-30 338.5,-30 338.5,-10 318.5,-10"/>
<text text-anchor="start" x="342.129" y="-15.4" font-family="sans-serif" font-size="14.00" fill="#000000"> &#160;Declarations</text>
<polygon fill="#8dd3c7" stroke="transparent" points="431.5,-10 431.5,-30 451.5,-30 451.5,-10 431.5,-10"/>
<text text-anchor="start" x="455.2251" y="-15.4" font-family="sans-serif" font-size="14.00" fill="#000000"> &#160;Module</text>
<polygon fill="#80b1d3" stroke="transparent" points="517.5,-10 517.5,-30 537.5,-30 537.5,-10 517.5,-10"/>
<text text-anchor="start" x="541.2812" y="-15.4" font-family="sans-serif" font-size="14.00" fill="#000000"> &#160;Bootstrap</text>
<polygon fill="#fdb462" stroke="transparent" points="614.5,-10 614.5,-30 634.5,-30 634.5,-10 614.5,-10"/>
<text text-anchor="start" x="638.1732" y="-15.4" font-family="sans-serif" font-size="14.00" fill="#000000"> &#160;Providers</text>
<polygon fill="#fb8072" stroke="transparent" points="710.5,-10 710.5,-30 730.5,-30 730.5,-10 710.5,-10"/>
<text text-anchor="start" x="734.2258" y="-15.4" font-family="sans-serif" font-size="14.00" fill="#000000"> &#160;Exports</text>
<g id="clust1" class="cluster">
<title>cluster_CartModule</title>
<polygon fill="none" stroke="#000000" stroke-dasharray="1,5" points="8,-70 8,-195 1097,-195 1097,-70 8,-70"/>
</g>
<g id="clust2" class="cluster">
<title>cluster_CartModule_declarations</title>
<polygon fill="none" stroke="#000000" points="268,-78 268,-130 1089,-130 1089,-78 268,-78"/>
</g>
<g id="clust8" class="cluster">
<title>cluster_CartModule_imports</title>
<polygon fill="none" stroke="#000000" points="16,-78 16,-130 260,-130 260,-78 16,-78"/>
</g>
<!-- CartComponent -->
<g id="node1" class="node">
<title>CartComponent</title>
<polygon fill="#ffffb3" stroke="#000000" points="1080.9357,-122 975.0643,-122 975.0643,-86 1080.9357,-86 1080.9357,-122"/>
<text text-anchor="middle" x="1028" y="-99.8" font-family="Times,serif" font-size="14.00" fill="#000000">CartComponent</text>
</g>
<!-- CartModule -->
<g id="node6" class="node">
<title>CartModule</title>
<polygon fill="#8dd3c7" stroke="#000000" points="576.6529,-187 573.6529,-191 552.6529,-191 549.6529,-187 493.3471,-187 493.3471,-151 576.6529,-151 576.6529,-187"/>
<text text-anchor="middle" x="535" y="-164.8" font-family="Times,serif" font-size="14.00" fill="#000000">CartModule</text>
</g>
<!-- CartComponent&#45;&gt;CartModule -->
<g id="edge1" class="edge">
<title>CartComponent&#45;&gt;CartModule</title>
<path fill="none" stroke="#000000" d="M1028,-122.2921C1028,-144.2057 1028,-178 1028,-178 1028,-178 587.0329,-178 587.0329,-178"/>
<polygon fill="#000000" stroke="#000000" points="587.0329,-174.5001 577.0329,-178 587.0329,-181.5001 587.0329,-174.5001"/>
</g>
<!-- LineItemListComponent -->
<g id="node2" class="node">
<title>LineItemListComponent</title>
<polygon fill="#ffffb3" stroke="#000000" points="957.4256,-122 802.5744,-122 802.5744,-86 957.4256,-86 957.4256,-122"/>
<text text-anchor="middle" x="880" y="-99.8" font-family="Times,serif" font-size="14.00" fill="#000000">LineItemListComponent</text>
</g>
<!-- LineItemListComponent&#45;&gt;CartModule -->
<g id="edge2" class="edge">
<title>LineItemListComponent&#45;&gt;CartModule</title>
<path fill="none" stroke="#000000" d="M880,-122.1061C880,-141.3391 880,-169 880,-169 880,-169 586.9589,-169 586.9589,-169"/>
<polygon fill="#000000" stroke="#000000" points="586.9589,-165.5001 576.9589,-169 586.9588,-172.5001 586.9589,-165.5001"/>
</g>
<!-- LineItemComponent -->
<g id="node3" class="node">
<title>LineItemComponent</title>
<polygon fill="#ffffb3" stroke="#000000" points="784.1471,-122 651.8529,-122 651.8529,-86 784.1471,-86 784.1471,-122"/>
<text text-anchor="middle" x="718" y="-99.8" font-family="Times,serif" font-size="14.00" fill="#000000">LineItemComponent</text>
</g>
<!-- LineItemComponent&#45;&gt;CartModule -->
<g id="edge3" class="edge">
<title>LineItemComponent&#45;&gt;CartModule</title>
<path fill="none" stroke="#000000" d="M718,-122.027C718,-138.3976 718,-160 718,-160 718,-160 586.9839,-160 586.9839,-160"/>
<polygon fill="#000000" stroke="#000000" points="586.9839,-156.5001 576.9839,-160 586.9839,-163.5001 586.9839,-156.5001"/>
</g>
<!-- OrderTotalSummaryComponent -->
<g id="node4" class="node">
<title>OrderTotalSummaryComponent</title>
<polygon fill="#ffffb3" stroke="#000000" points="633.9622,-122 436.0378,-122 436.0378,-86 633.9622,-86 633.9622,-122"/>
<text text-anchor="middle" x="535" y="-99.8" font-family="Times,serif" font-size="14.00" fill="#000000">OrderTotalSummaryComponent</text>
</g>
<!-- OrderTotalSummaryComponent&#45;&gt;CartModule -->
<g id="edge4" class="edge">
<title>OrderTotalSummaryComponent&#45;&gt;CartModule</title>
<path fill="none" stroke="#000000" d="M535,-122.1061C535,-122.1061 535,-140.991 535,-140.991"/>
<polygon fill="#000000" stroke="#000000" points="531.5001,-140.9909 535,-150.991 538.5001,-140.991 531.5001,-140.9909"/>
</g>
<!-- EmptyCartComponent -->
<g id="node5" class="node">
<title>EmptyCartComponent</title>
<polygon fill="#ffffb3" stroke="#000000" points="418.2688,-122 275.7312,-122 275.7312,-86 418.2688,-86 418.2688,-122"/>
<text text-anchor="middle" x="347" y="-99.8" font-family="Times,serif" font-size="14.00" fill="#000000">EmptyCartComponent</text>
</g>
<!-- EmptyCartComponent&#45;&gt;CartModule -->
<g id="edge5" class="edge">
<title>EmptyCartComponent&#45;&gt;CartModule</title>
<path fill="none" stroke="#000000" d="M347,-122.027C347,-138.3976 347,-160 347,-160 347,-160 483.2767,-160 483.2767,-160"/>
<polygon fill="#000000" stroke="#000000" points="483.2767,-163.5001 493.2767,-160 483.2767,-156.5001 483.2767,-163.5001"/>
</g>
<!-- CommonModule -->
<g id="node7" class="node">
<title>CommonModule</title>
<polygon fill="#8dd3c7" stroke="#000000" points="251.6681,-122 248.6681,-126 227.6681,-126 224.6681,-122 140.3319,-122 140.3319,-86 251.6681,-86 251.6681,-122"/>
<text text-anchor="middle" x="196" y="-99.8" font-family="Times,serif" font-size="14.00" fill="#000000">CommonModule</text>
</g>
<!-- CommonModule&#45;&gt;CartModule -->
<g id="edge6" class="edge">
<title>CommonModule&#45;&gt;CartModule</title>
<path fill="none" stroke="#000000" d="M196,-122.1061C196,-141.3391 196,-169 196,-169 196,-169 483.0919,-169 483.0919,-169"/>
<polygon fill="#000000" stroke="#000000" points="483.092,-172.5001 493.0919,-169 483.0919,-165.5001 483.092,-172.5001"/>
</g>
<!-- RouterModule -->
<g id="node8" class="node">
<title>RouterModule</title>
<polygon fill="#8dd3c7" stroke="#000000" points="121.6528,-122 118.6528,-126 97.6528,-126 94.6528,-122 24.3472,-122 24.3472,-86 121.6528,-86 121.6528,-122"/>
<text text-anchor="middle" x="73" y="-99.8" font-family="Times,serif" font-size="14.00" fill="#000000">RouterModule</text>
</g>
<!-- RouterModule&#45;&gt;CartModule -->
<g id="edge7" class="edge">
<title>RouterModule&#45;&gt;CartModule</title>
<path fill="none" stroke="#000000" d="M73,-122.2921C73,-144.2057 73,-178 73,-178 73,-178 483.1857,-178 483.1857,-178"/>
<polygon fill="#000000" stroke="#000000" points="483.1858,-181.5001 493.1857,-178 483.1857,-174.5001 483.1858,-181.5001"/>
</g>
</g>
</svg>
