<?xml version="1.0" encoding="UTF-8" standalone="no"?>
<!DOCTYPE svg PUBLIC "-//W3C//DTD SVG 1.1//EN"
 "http://www.w3.org/Graphics/SVG/1.1/DTD/svg11.dtd">
<!-- Generated by graphviz version 2.40.1 (20161225.0304)
 -->
<!-- Title: dependencies Pages: 1 -->
<svg width="862pt" height="211pt"
 viewBox="0.00 0.00 862.00 211.00" xmlns="http://www.w3.org/2000/svg" xmlns:xlink="http://www.w3.org/1999/xlink">
<g id="graph0" class="graph" transform="scale(1 1) rotate(0) translate(4 207)">
<title>dependencies</title>
<polygon fill="#ffffff" stroke="transparent" points="-4,4 -4,-207 858,-207 858,4 -4,4"/>
<text text-anchor="start" x="406.0091" y="-42.4" font-family="sans-serif" font-weight="bold" font-size="14.00" fill="#000000">Legend</text>
<polygon fill="#ffffb3" stroke="transparent" points="193,-10 193,-30 213,-30 213,-10 193,-10"/>
<text text-anchor="start" x="216.629" y="-15.4" font-family="sans-serif" font-size="14.00" fill="#000000"> &#160;Declarations</text>
<polygon fill="#8dd3c7" stroke="transparent" points="306,-10 306,-30 326,-30 326,-10 306,-10"/>
<text text-anchor="start" x="329.7251" y="-15.4" font-family="sans-serif" font-size="14.00" fill="#000000"> &#160;Module</text>
<polygon fill="#80b1d3" stroke="transparent" points="392,-10 392,-30 412,-30 412,-10 392,-10"/>
<text text-anchor="start" x="415.7812" y="-15.4" font-family="sans-serif" font-size="14.00" fill="#000000"> &#160;Bootstrap</text>
<polygon fill="#fdb462" stroke="transparent" points="489,-10 489,-30 509,-30 509,-10 489,-10"/>
<text text-anchor="start" x="512.6732" y="-15.4" font-family="sans-serif" font-size="14.00" fill="#000000"> &#160;Providers</text>
<polygon fill="#fb8072" stroke="transparent" points="585,-10 585,-30 605,-30 605,-10 585,-10"/>
<text text-anchor="start" x="608.7258" y="-15.4" font-family="sans-serif" font-size="14.00" fill="#000000"> &#160;Exports</text>
<g id="clust1" class="cluster">
<title>cluster_CartModule</title>
<polygon fill="none" stroke="#000000" stroke-dasharray="1,5" points="8,-70 8,-195 846,-195 846,-70 8,-70"/>
</g>
<g id="clust2" class="cluster">
<title>cluster_CartModule_declarations</title>
<polygon fill="none" stroke="#000000" points="16,-78 16,-130 838,-130 838,-78 16,-78"/>
</g>
<!-- CartComponent -->
<g id="node1" class="node">
<title>CartComponent</title>
<polygon fill="#ffffb3" stroke="#000000" points="829.9357,-122 724.0643,-122 724.0643,-86 829.9357,-86 829.9357,-122"/>
<text text-anchor="middle" x="777" y="-99.8" font-family="Times,serif" font-size="14.00" fill="#000000">CartComponent</text>
</g>
<!-- CartModule -->
<g id="node6" class="node">
<title>CartModule</title>
<polygon fill="#8dd3c7" stroke="#000000" points="520.6529,-187 517.6529,-191 496.6529,-191 493.6529,-187 437.3471,-187 437.3471,-151 520.6529,-151 520.6529,-187"/>
<text text-anchor="middle" x="479" y="-164.8" font-family="Times,serif" font-size="14.00" fill="#000000">CartModule</text>
</g>
<!-- CartComponent&#45;&gt;CartModule -->
<g id="edge1" class="edge">
<title>CartComponent&#45;&gt;CartModule</title>
<path fill="none" stroke="#000000" d="M777,-122.2843C777,-143.3211 777,-175 777,-175 777,-175 530.7494,-175 530.7494,-175"/>
<polygon fill="#000000" stroke="#000000" points="530.7494,-171.5001 520.7494,-175 530.7494,-178.5001 530.7494,-171.5001"/>
</g>
<!-- EmptyCartComponent -->
<g id="node2" class="node">
<title>EmptyCartComponent</title>
<polygon fill="#ffffb3" stroke="#000000" points="706.2688,-122 563.7312,-122 563.7312,-86 706.2688,-86 706.2688,-122"/>
<text text-anchor="middle" x="635" y="-99.8" font-family="Times,serif" font-size="14.00" fill="#000000">EmptyCartComponent</text>
</g>
<!-- EmptyCartComponent&#45;&gt;CartModule -->
<g id="edge2" class="edge">
<title>EmptyCartComponent&#45;&gt;CartModule</title>
<path fill="none" stroke="#000000" d="M635,-122.0225C635,-139.3734 635,-163 635,-163 635,-163 530.8051,-163 530.8051,-163"/>
<polygon fill="#000000" stroke="#000000" points="530.8052,-159.5001 520.8051,-163 530.8051,-166.5001 530.8052,-159.5001"/>
</g>
<!-- LineItemComponent -->
<g id="node3" class="node">
<title>LineItemComponent</title>
<polygon fill="#ffffb3" stroke="#000000" points="545.1471,-122 412.8529,-122 412.8529,-86 545.1471,-86 545.1471,-122"/>
<text text-anchor="middle" x="479" y="-99.8" font-family="Times,serif" font-size="14.00" fill="#000000">LineItemComponent</text>
</g>
<!-- LineItemComponent&#45;&gt;CartModule -->
<g id="edge3" class="edge">
<title>LineItemComponent&#45;&gt;CartModule</title>
<path fill="none" stroke="#000000" d="M479,-122.1061C479,-122.1061 479,-140.991 479,-140.991"/>
<polygon fill="#000000" stroke="#000000" points="475.5001,-140.9909 479,-150.991 482.5001,-140.991 475.5001,-140.9909"/>
</g>
<!-- LineItemListComponent -->
<g id="node4" class="node">
<title>LineItemListComponent</title>
<polygon fill="#ffffb3" stroke="#000000" points="394.4256,-122 239.5744,-122 239.5744,-86 394.4256,-86 394.4256,-122"/>
<text text-anchor="middle" x="317" y="-99.8" font-family="Times,serif" font-size="14.00" fill="#000000">LineItemListComponent</text>
</g>
<!-- LineItemListComponent&#45;&gt;CartModule -->
<g id="edge4" class="edge">
<title>LineItemListComponent&#45;&gt;CartModule</title>
<path fill="none" stroke="#000000" d="M317,-122.0225C317,-139.3734 317,-163 317,-163 317,-163 427.281,-163 427.281,-163"/>
<polygon fill="#000000" stroke="#000000" points="427.281,-166.5001 437.281,-163 427.2809,-159.5001 427.281,-166.5001"/>
</g>
<!-- OrderTotalSummaryComponent -->
<g id="node5" class="node">
<title>OrderTotalSummaryComponent</title>
<polygon fill="#ffffb3" stroke="#000000" points="221.9622,-122 24.0378,-122 24.0378,-86 221.9622,-86 221.9622,-122"/>
<text text-anchor="middle" x="123" y="-99.8" font-family="Times,serif" font-size="14.00" fill="#000000">OrderTotalSummaryComponent</text>
</g>
<!-- OrderTotalSummaryComponent&#45;&gt;CartModule -->
<g id="edge5" class="edge">
<title>OrderTotalSummaryComponent&#45;&gt;CartModule</title>
<path fill="none" stroke="#000000" d="M123,-122.2843C123,-143.3211 123,-175 123,-175 123,-175 427.1154,-175 427.1154,-175"/>
<polygon fill="#000000" stroke="#000000" points="427.1155,-178.5001 437.1154,-175 427.1154,-171.5001 427.1155,-178.5001"/>
</g>
</g>
</svg>
