<?xml version="1.0" encoding="UTF-8" standalone="no"?>
<!DOCTYPE svg PUBLIC "-//W3C//DTD SVG 1.1//EN"
 "http://www.w3.org/Graphics/SVG/1.1/DTD/svg11.dtd">
<!-- Generated by graphviz version 2.40.1 (20161225.0304)
 -->
<!-- Title: dependencies Pages: 1 -->
<svg width="2824pt" height="211pt"
 viewBox="0.00 0.00 2824.00 211.00" xmlns="http://www.w3.org/2000/svg" xmlns:xlink="http://www.w3.org/1999/xlink">
<g id="graph0" class="graph" transform="scale(1 1) rotate(0) translate(4 207)">
<title>dependencies</title>
<polygon fill="#ffffff" stroke="transparent" points="-4,4 -4,-207 2820,-207 2820,4 -4,4"/>
<text text-anchor="start" x="1387.0091" y="-42.4" font-family="sans-serif" font-weight="bold" font-size="14.00" fill="#000000">Legend</text>
<polygon fill="#ffffb3" stroke="transparent" points="1174,-10 1174,-30 1194,-30 1194,-10 1174,-10"/>
<text text-anchor="start" x="1197.629" y="-15.4" font-family="sans-serif" font-size="14.00" fill="#000000"> &#160;Declarations</text>
<polygon fill="#8dd3c7" stroke="transparent" points="1287,-10 1287,-30 1307,-30 1307,-10 1287,-10"/>
<text text-anchor="start" x="1310.7251" y="-15.4" font-family="sans-serif" font-size="14.00" fill="#000000"> &#160;Module</text>
<polygon fill="#80b1d3" stroke="transparent" points="1373,-10 1373,-30 1393,-30 1393,-10 1373,-10"/>
<text text-anchor="start" x="1396.7812" y="-15.4" font-family="sans-serif" font-size="14.00" fill="#000000"> &#160;Bootstrap</text>
<polygon fill="#fdb462" stroke="transparent" points="1470,-10 1470,-30 1490,-30 1490,-10 1470,-10"/>
<text text-anchor="start" x="1493.6732" y="-15.4" font-family="sans-serif" font-size="14.00" fill="#000000"> &#160;Providers</text>
<polygon fill="#fb8072" stroke="transparent" points="1566,-10 1566,-30 1586,-30 1586,-10 1566,-10"/>
<text text-anchor="start" x="1589.7258" y="-15.4" font-family="sans-serif" font-size="14.00" fill="#000000"> &#160;Exports</text>
<g id="clust1" class="cluster">
<title>cluster_UserModule</title>
<polygon fill="none" stroke="#000000" stroke-dasharray="1,5" points="8,-70 8,-195 2808,-195 2808,-70 8,-70"/>
</g>
<g id="clust2" class="cluster">
<title>cluster_UserModule_declarations</title>
<polygon fill="none" stroke="#000000" points="430,-78 430,-130 2800,-130 2800,-78 430,-78"/>
</g>
<g id="clust17" class="cluster">
<title>cluster_UserModule_imports</title>
<polygon fill="none" stroke="#000000" points="184,-78 184,-130 422,-130 422,-78 184,-78"/>
</g>
<g id="clust20" class="cluster">
<title>cluster_UserModule_providers</title>
<polygon fill="none" stroke="#000000" points="16,-78 16,-130 176,-130 176,-78 16,-78"/>
</g>
<!-- AddEditAddressComponent -->
<g id="node1" class="node">
<title>AddEditAddressComponent</title>
<polygon fill="#ffffb3" stroke="#000000" points="2792.1442,-122 2617.8558,-122 2617.8558,-86 2792.1442,-86 2792.1442,-122"/>
<text text-anchor="middle" x="2705" y="-99.8" font-family="Times,serif" font-size="14.00" fill="#000000">AddEditAddressComponent</text>
</g>
<!-- UserModule -->
<g id="node15" class="node">
<title>UserModule</title>
<polygon fill="#8dd3c7" stroke="#000000" points="1355.9762,-187 1352.9762,-191 1331.9762,-191 1328.9762,-187 1270.0238,-187 1270.0238,-151 1355.9762,-151 1355.9762,-187"/>
<text text-anchor="middle" x="1313" y="-164.8" font-family="Times,serif" font-size="14.00" fill="#000000">UserModule</text>
</g>
<!-- AddEditAddressComponent&#45;&gt;UserModule -->
<g id="edge1" class="edge">
<title>AddEditAddressComponent&#45;&gt;UserModule</title>
<path fill="none" stroke="#000000" d="M2705,-122.3228C2705,-145.6602 2705,-183 2705,-183 2705,-183 1366.1862,-183 1366.1862,-183"/>
<polygon fill="#000000" stroke="#000000" points="1366.1862,-179.5001 1356.1862,-183 1366.1862,-186.5001 1366.1862,-179.5001"/>
</g>
<!-- AddressesComponent -->
<g id="node2" class="node">
<title>AddressesComponent</title>
<polygon fill="#ffffb3" stroke="#000000" points="2599.3627,-122 2460.6373,-122 2460.6373,-86 2599.3627,-86 2599.3627,-122"/>
<text text-anchor="middle" x="2530" y="-99.8" font-family="Times,serif" font-size="14.00" fill="#000000">AddressesComponent</text>
</g>
<!-- AddressesComponent&#45;&gt;UserModule -->
<g id="edge2" class="edge">
<title>AddressesComponent&#45;&gt;UserModule</title>
<path fill="none" stroke="#000000" d="M2530,-122.1554C2530,-144.3519 2530,-179 2530,-179 2530,-179 1366.3137,-179 1366.3137,-179"/>
<polygon fill="#000000" stroke="#000000" points="1366.3137,-175.5001 1356.3137,-179 1366.3136,-182.5001 1366.3137,-175.5001"/>
</g>
<!-- FavoriteProductListItemComponent -->
<g id="node3" class="node">
<title>FavoriteProductListItemComponent</title>
<polygon fill="#ffffb3" stroke="#000000" points="2442.4692,-122 2223.5308,-122 2223.5308,-86 2442.4692,-86 2442.4692,-122"/>
<text text-anchor="middle" x="2333" y="-99.8" font-family="Times,serif" font-size="14.00" fill="#000000">FavoriteProductListItemComponent</text>
</g>
<!-- FavoriteProductListItemComponent&#45;&gt;UserModule -->
<g id="edge3" class="edge">
<title>FavoriteProductListItemComponent&#45;&gt;UserModule</title>
<path fill="none" stroke="#000000" d="M2333,-122.2843C2333,-143.3211 2333,-175 2333,-175 2333,-175 1366.1766,-175 1366.1766,-175"/>
<polygon fill="#000000" stroke="#000000" points="1366.1767,-171.5001 1356.1766,-175 1366.1766,-178.5001 1366.1767,-171.5001"/>
</g>
<!-- FavoriteProductsComponent -->
<g id="node4" class="node">
<title>FavoriteProductsComponent</title>
<polygon fill="#ffffb3" stroke="#000000" points="2205.479,-122 2028.521,-122 2028.521,-86 2205.479,-86 2205.479,-122"/>
<text text-anchor="middle" x="2117" y="-99.8" font-family="Times,serif" font-size="14.00" fill="#000000">FavoriteProductsComponent</text>
</g>
<!-- FavoriteProductsComponent&#45;&gt;UserModule -->
<g id="edge4" class="edge">
<title>FavoriteProductsComponent&#45;&gt;UserModule</title>
<path fill="none" stroke="#000000" d="M2117,-122.308C2117,-142.1455 2117,-171 2117,-171 2117,-171 1366.2265,-171 1366.2265,-171"/>
<polygon fill="#000000" stroke="#000000" points="1366.2266,-167.5001 1356.2265,-171 1366.2265,-174.5001 1366.2266,-167.5001"/>
</g>
<!-- OrderDetailComponent -->
<g id="node5" class="node">
<title>OrderDetailComponent</title>
<polygon fill="#ffffb3" stroke="#000000" points="2010.1825,-122 1861.8175,-122 1861.8175,-86 2010.1825,-86 2010.1825,-122"/>
<text text-anchor="middle" x="1936" y="-99.8" font-family="Times,serif" font-size="14.00" fill="#000000">OrderDetailComponent</text>
</g>
<!-- OrderDetailComponent&#45;&gt;UserModule -->
<g id="edge5" class="edge">
<title>OrderDetailComponent&#45;&gt;UserModule</title>
<path fill="none" stroke="#000000" d="M1936,-122.2222C1936,-140.8285 1936,-167 1936,-167 1936,-167 1366.3135,-167 1366.3135,-167"/>
<polygon fill="#000000" stroke="#000000" points="1366.3136,-163.5001 1356.3135,-167 1366.3135,-170.5001 1366.3136,-163.5001"/>
</g>
<!-- OrderListItemComponent -->
<g id="node6" class="node">
<title>OrderListItemComponent</title>
<polygon fill="#ffffb3" stroke="#000000" points="1843.9101,-122 1682.0899,-122 1682.0899,-86 1843.9101,-86 1843.9101,-122"/>
<text text-anchor="middle" x="1763" y="-99.8" font-family="Times,serif" font-size="14.00" fill="#000000">OrderListItemComponent</text>
</g>
<!-- OrderListItemComponent&#45;&gt;UserModule -->
<g id="edge6" class="edge">
<title>OrderListItemComponent&#45;&gt;UserModule</title>
<path fill="none" stroke="#000000" d="M1763,-122.0225C1763,-139.3734 1763,-163 1763,-163 1763,-163 1366.1479,-163 1366.1479,-163"/>
<polygon fill="#000000" stroke="#000000" points="1366.1479,-159.5001 1356.1479,-163 1366.1479,-166.5001 1366.1479,-159.5001"/>
</g>
<!-- OrdersComponent -->
<g id="node7" class="node">
<title>OrdersComponent</title>
<polygon fill="#ffffb3" stroke="#000000" points="1664.9201,-122 1545.0799,-122 1545.0799,-86 1664.9201,-86 1664.9201,-122"/>
<text text-anchor="middle" x="1605" y="-99.8" font-family="Times,serif" font-size="14.00" fill="#000000">OrdersComponent</text>
</g>
<!-- OrdersComponent&#45;&gt;UserModule -->
<g id="edge7" class="edge">
<title>OrdersComponent&#45;&gt;UserModule</title>
<path fill="none" stroke="#000000" d="M1605,-122.0091C1605,-138.0494 1605,-159 1605,-159 1605,-159 1366.0856,-159 1366.0856,-159"/>
<polygon fill="#000000" stroke="#000000" points="1366.0856,-155.5001 1356.0856,-159 1366.0856,-162.5001 1366.0856,-155.5001"/>
</g>
<!-- OverviewComponent -->
<g id="node8" class="node">
<title>OverviewComponent</title>
<polygon fill="#ffffb3" stroke="#000000" points="1527.0268,-122 1390.9732,-122 1390.9732,-86 1527.0268,-86 1527.0268,-122"/>
<text text-anchor="middle" x="1459" y="-99.8" font-family="Times,serif" font-size="14.00" fill="#000000">OverviewComponent</text>
</g>
<!-- OverviewComponent&#45;&gt;UserModule -->
<g id="edge8" class="edge">
<title>OverviewComponent&#45;&gt;UserModule</title>
<path fill="none" stroke="#000000" d="M1459,-122.1243C1459,-136.7832 1459,-155 1459,-155 1459,-155 1366.0152,-155 1366.0152,-155"/>
<polygon fill="#000000" stroke="#000000" points="1366.0152,-151.5001 1356.0152,-155 1366.0151,-158.5001 1366.0152,-151.5001"/>
</g>
<!-- ProfileComponent -->
<g id="node9" class="node">
<title>ProfileComponent</title>
<polygon fill="#ffffb3" stroke="#000000" points="1372.9328,-122 1253.0672,-122 1253.0672,-86 1372.9328,-86 1372.9328,-122"/>
<text text-anchor="middle" x="1313" y="-99.8" font-family="Times,serif" font-size="14.00" fill="#000000">ProfileComponent</text>
</g>
<!-- ProfileComponent&#45;&gt;UserModule -->
<g id="edge9" class="edge">
<title>ProfileComponent&#45;&gt;UserModule</title>
<path fill="none" stroke="#000000" d="M1313,-122.1061C1313,-122.1061 1313,-140.991 1313,-140.991"/>
<polygon fill="#000000" stroke="#000000" points="1309.5001,-140.9909 1313,-150.991 1316.5001,-140.991 1309.5001,-140.9909"/>
</g>
<!-- ProfileEmailComponent -->
<g id="node10" class="node">
<title>ProfileEmailComponent</title>
<polygon fill="#ffffb3" stroke="#000000" points="1235.3711,-122 1082.6289,-122 1082.6289,-86 1235.3711,-86 1235.3711,-122"/>
<text text-anchor="middle" x="1159" y="-99.8" font-family="Times,serif" font-size="14.00" fill="#000000">ProfileEmailComponent</text>
</g>
<!-- ProfileEmailComponent&#45;&gt;UserModule -->
<g id="edge10" class="edge">
<title>ProfileEmailComponent&#45;&gt;UserModule</title>
<path fill="none" stroke="#000000" d="M1159,-122.1243C1159,-136.7832 1159,-155 1159,-155 1159,-155 1259.6926,-155 1259.6926,-155"/>
<polygon fill="#000000" stroke="#000000" points="1259.6926,-158.5001 1269.6926,-155 1259.6926,-151.5001 1259.6926,-158.5001"/>
</g>
<!-- ProfilePasswordComponent -->
<g id="node11" class="node">
<title>ProfilePasswordComponent</title>
<polygon fill="#ffffb3" stroke="#000000" points="1064.5856,-122 891.4144,-122 891.4144,-86 1064.5856,-86 1064.5856,-122"/>
<text text-anchor="middle" x="978" y="-99.8" font-family="Times,serif" font-size="14.00" fill="#000000">ProfilePasswordComponent</text>
</g>
<!-- ProfilePasswordComponent&#45;&gt;UserModule -->
<g id="edge11" class="edge">
<title>ProfilePasswordComponent&#45;&gt;UserModule</title>
<path fill="none" stroke="#000000" d="M978,-122.0091C978,-138.0494 978,-159 978,-159 978,-159 1259.8904,-159 1259.8904,-159"/>
<polygon fill="#000000" stroke="#000000" points="1259.8905,-162.5001 1269.8904,-159 1259.8904,-155.5001 1259.8905,-162.5001"/>
</g>
<!-- ReturnListItemComponent -->
<g id="node12" class="node">
<title>ReturnListItemComponent</title>
<polygon fill="#ffffb3" stroke="#000000" points="873.3697,-122 706.6303,-122 706.6303,-86 873.3697,-86 873.3697,-122"/>
<text text-anchor="middle" x="790" y="-99.8" font-family="Times,serif" font-size="14.00" fill="#000000">ReturnListItemComponent</text>
</g>
<!-- ReturnListItemComponent&#45;&gt;UserModule -->
<g id="edge12" class="edge">
<title>ReturnListItemComponent&#45;&gt;UserModule</title>
<path fill="none" stroke="#000000" d="M790,-122.0225C790,-139.3734 790,-163 790,-163 790,-163 1259.7558,-163 1259.7558,-163"/>
<polygon fill="#000000" stroke="#000000" points="1259.7558,-166.5001 1269.7558,-163 1259.7557,-159.5001 1259.7558,-166.5001"/>
</g>
<!-- ReturnsComponent -->
<g id="node13" class="node">
<title>ReturnsComponent</title>
<polygon fill="#ffffb3" stroke="#000000" points="688.3795,-122 563.6205,-122 563.6205,-86 688.3795,-86 688.3795,-122"/>
<text text-anchor="middle" x="626" y="-99.8" font-family="Times,serif" font-size="14.00" fill="#000000">ReturnsComponent</text>
</g>
<!-- ReturnsComponent&#45;&gt;UserModule -->
<g id="edge13" class="edge">
<title>ReturnsComponent&#45;&gt;UserModule</title>
<path fill="none" stroke="#000000" d="M626,-122.2222C626,-140.8285 626,-167 626,-167 626,-167 1259.7648,-167 1259.7648,-167"/>
<polygon fill="#000000" stroke="#000000" points="1259.7649,-170.5001 1269.7648,-167 1259.7648,-163.5001 1259.7649,-170.5001"/>
</g>
<!-- UserComponent -->
<g id="node14" class="node">
<title>UserComponent</title>
<polygon fill="#ffffb3" stroke="#000000" points="545.7591,-122 438.2409,-122 438.2409,-86 545.7591,-86 545.7591,-122"/>
<text text-anchor="middle" x="492" y="-99.8" font-family="Times,serif" font-size="14.00" fill="#000000">UserComponent</text>
</g>
<!-- UserComponent&#45;&gt;UserModule -->
<g id="edge14" class="edge">
<title>UserComponent&#45;&gt;UserModule</title>
<path fill="none" stroke="#000000" d="M492,-122.308C492,-142.1455 492,-171 492,-171 492,-171 1260.0154,-171 1260.0154,-171"/>
<polygon fill="#000000" stroke="#000000" points="1260.0154,-174.5001 1270.0154,-171 1260.0154,-167.5001 1260.0154,-174.5001"/>
</g>
<!-- AddressModule -->
<g id="node16" class="node">
<title>AddressModule</title>
<polygon fill="#8dd3c7" stroke="#000000" points="413.9216,-122 410.9216,-126 389.9216,-126 386.9216,-122 308.0784,-122 308.0784,-86 413.9216,-86 413.9216,-122"/>
<text text-anchor="middle" x="361" y="-99.8" font-family="Times,serif" font-size="14.00" fill="#000000">AddressModule</text>
</g>
<!-- AddressModule&#45;&gt;UserModule -->
<g id="edge15" class="edge">
<title>AddressModule&#45;&gt;UserModule</title>
<path fill="none" stroke="#000000" d="M361,-122.2843C361,-143.3211 361,-175 361,-175 361,-175 1259.9334,-175 1259.9334,-175"/>
<polygon fill="#000000" stroke="#000000" points="1259.9335,-178.5001 1269.9334,-175 1259.9334,-171.5001 1259.9335,-178.5001"/>
</g>
<!-- SharedModule -->
<g id="node17" class="node">
<title>SharedModule</title>
<polygon fill="#8dd3c7" stroke="#000000" points="290.4231,-122 287.4231,-126 266.4231,-126 263.4231,-122 191.5769,-122 191.5769,-86 290.4231,-86 290.4231,-122"/>
<text text-anchor="middle" x="241" y="-99.8" font-family="Times,serif" font-size="14.00" fill="#000000">SharedModule</text>
</g>
<!-- SharedModule&#45;&gt;UserModule -->
<g id="edge16" class="edge">
<title>SharedModule&#45;&gt;UserModule</title>
<path fill="none" stroke="#000000" d="M241,-122.1554C241,-144.3519 241,-179 241,-179 241,-179 1259.9823,-179 1259.9823,-179"/>
<polygon fill="#000000" stroke="#000000" points="1259.9823,-182.5001 1269.9823,-179 1259.9823,-175.5001 1259.9823,-182.5001"/>
</g>
<!-- AddressService -->
<g id="node18" class="node">
<title>AddressService</title>
<ellipse fill="#fdb462" stroke="#000000" cx="96" cy="-104" rx="71.766" ry="18"/>
<text text-anchor="middle" x="96" y="-99.8" font-family="Times,serif" font-size="14.00" fill="#000000">AddressService</text>
</g>
<!-- AddressService&#45;&gt;UserModule -->
<g id="edge17" class="edge">
<title>AddressService&#45;&gt;UserModule</title>
<path fill="none" stroke="#000000" d="M96,-122.3228C96,-145.6602 96,-183 96,-183 96,-183 1259.6863,-183 1259.6863,-183"/>
<polygon fill="#000000" stroke="#000000" points="1259.6864,-186.5001 1269.6863,-183 1259.6863,-179.5001 1259.6864,-186.5001"/>
</g>
</g>
</svg>
