<?xml version="1.0" encoding="UTF-8" standalone="no"?>
<!DOCTYPE svg PUBLIC "-//W3C//DTD SVG 1.1//EN"
 "http://www.w3.org/Graphics/SVG/1.1/DTD/svg11.dtd">
<!-- Generated by graphviz version 2.40.1 (20161225.0304)
 -->
<!-- Title: dependencies Pages: 1 -->
<svg width="1607pt" height="211pt"
 viewBox="0.00 0.00 1607.00 211.00" xmlns="http://www.w3.org/2000/svg" xmlns:xlink="http://www.w3.org/1999/xlink">
<g id="graph0" class="graph" transform="scale(1 1) rotate(0) translate(4 207)">
<title>dependencies</title>
<polygon fill="#ffffff" stroke="transparent" points="-4,4 -4,-207 1603,-207 1603,4 -4,4"/>
<text text-anchor="start" x="778.5091" y="-42.4" font-family="sans-serif" font-weight="bold" font-size="14.00" fill="#000000">Legend</text>
<polygon fill="#ffffb3" stroke="transparent" points="565.5,-10 565.5,-30 585.5,-30 585.5,-10 565.5,-10"/>
<text text-anchor="start" x="589.129" y="-15.4" font-family="sans-serif" font-size="14.00" fill="#000000"> &#160;Declarations</text>
<polygon fill="#8dd3c7" stroke="transparent" points="678.5,-10 678.5,-30 698.5,-30 698.5,-10 678.5,-10"/>
<text text-anchor="start" x="702.2251" y="-15.4" font-family="sans-serif" font-size="14.00" fill="#000000"> &#160;Module</text>
<polygon fill="#80b1d3" stroke="transparent" points="764.5,-10 764.5,-30 784.5,-30 784.5,-10 764.5,-10"/>
<text text-anchor="start" x="788.2812" y="-15.4" font-family="sans-serif" font-size="14.00" fill="#000000"> &#160;Bootstrap</text>
<polygon fill="#fdb462" stroke="transparent" points="861.5,-10 861.5,-30 881.5,-30 881.5,-10 861.5,-10"/>
<text text-anchor="start" x="885.1732" y="-15.4" font-family="sans-serif" font-size="14.00" fill="#000000"> &#160;Providers</text>
<polygon fill="#fb8072" stroke="transparent" points="957.5,-10 957.5,-30 977.5,-30 977.5,-10 957.5,-10"/>
<text text-anchor="start" x="981.2258" y="-15.4" font-family="sans-serif" font-size="14.00" fill="#000000"> &#160;Exports</text>
<g id="clust1" class="cluster">
<title>cluster_UserModule</title>
<polygon fill="none" stroke="#000000" stroke-dasharray="1,5" points="8,-70 8,-195 1591,-195 1591,-70 8,-70"/>
</g>
<g id="clust2" class="cluster">
<title>cluster_UserModule_declarations</title>
<polygon fill="none" stroke="#000000" points="338,-78 338,-130 1583,-130 1583,-78 338,-78"/>
</g>
<g id="clust11" class="cluster">
<title>cluster_UserModule_imports</title>
<polygon fill="none" stroke="#000000" points="16,-78 16,-130 330,-130 330,-78 16,-78"/>
</g>
<!-- OverviewComponent -->
<g id="node1" class="node">
<title>OverviewComponent</title>
<polygon fill="#ffffb3" stroke="#000000" points="1575.0268,-122 1438.9732,-122 1438.9732,-86 1575.0268,-86 1575.0268,-122"/>
<text text-anchor="middle" x="1507" y="-99.8" font-family="Times,serif" font-size="14.00" fill="#000000">OverviewComponent</text>
</g>
<!-- UserModule -->
<g id="node9" class="node">
<title>UserModule</title>
<polygon fill="#8dd3c7" stroke="#000000" points="842.9762,-187 839.9762,-191 818.9762,-191 815.9762,-187 757.0238,-187 757.0238,-151 842.9762,-151 842.9762,-187"/>
<text text-anchor="middle" x="800" y="-164.8" font-family="Times,serif" font-size="14.00" fill="#000000">UserModule</text>
</g>
<!-- OverviewComponent&#45;&gt;UserModule -->
<g id="edge1" class="edge">
<title>OverviewComponent&#45;&gt;UserModule</title>
<path fill="none" stroke="#000000" d="M1507,-122.0109C1507,-144.4852 1507,-180 1507,-180 1507,-180 853.1617,-180 853.1617,-180"/>
<polygon fill="#000000" stroke="#000000" points="853.1618,-176.5001 843.1617,-180 853.1617,-183.5001 853.1618,-176.5001"/>
</g>
<!-- OrderListItemComponent -->
<g id="node2" class="node">
<title>OrderListItemComponent</title>
<polygon fill="#ffffb3" stroke="#000000" points="1420.9101,-122 1259.0899,-122 1259.0899,-86 1420.9101,-86 1420.9101,-122"/>
<text text-anchor="middle" x="1340" y="-99.8" font-family="Times,serif" font-size="14.00" fill="#000000">OrderListItemComponent</text>
</g>
<!-- OrderListItemComponent&#45;&gt;UserModule -->
<g id="edge2" class="edge">
<title>OrderListItemComponent&#45;&gt;UserModule</title>
<path fill="none" stroke="#000000" d="M1340,-122.1289C1340,-142.5724 1340,-173 1340,-173 1340,-173 853.2776,-173 853.2776,-173"/>
<polygon fill="#000000" stroke="#000000" points="853.2777,-169.5001 843.2776,-173 853.2776,-176.5001 853.2777,-169.5001"/>
</g>
<!-- OrdersComponent -->
<g id="node3" class="node">
<title>OrdersComponent</title>
<polygon fill="#ffffb3" stroke="#000000" points="1241.9201,-122 1122.0799,-122 1122.0799,-86 1241.9201,-86 1241.9201,-122"/>
<text text-anchor="middle" x="1182" y="-99.8" font-family="Times,serif" font-size="14.00" fill="#000000">OrdersComponent</text>
</g>
<!-- OrdersComponent&#45;&gt;UserModule -->
<g id="edge3" class="edge">
<title>OrdersComponent&#45;&gt;UserModule</title>
<path fill="none" stroke="#000000" d="M1182,-122.2667C1182,-140.5552 1182,-166 1182,-166 1182,-166 853.0777,-166 853.0777,-166"/>
<polygon fill="#000000" stroke="#000000" points="853.0777,-162.5001 843.0777,-166 853.0777,-169.5001 853.0777,-162.5001"/>
</g>
<!-- ReturnsComponent -->
<g id="node4" class="node">
<title>ReturnsComponent</title>
<polygon fill="#ffffb3" stroke="#000000" points="1104.3795,-122 979.6205,-122 979.6205,-86 1104.3795,-86 1104.3795,-122"/>
<text text-anchor="middle" x="1042" y="-99.8" font-family="Times,serif" font-size="14.00" fill="#000000">ReturnsComponent</text>
</g>
<!-- ReturnsComponent&#45;&gt;UserModule -->
<g id="edge4" class="edge">
<title>ReturnsComponent&#45;&gt;UserModule</title>
<path fill="none" stroke="#000000" d="M1042,-122.0091C1042,-138.0494 1042,-159 1042,-159 1042,-159 852.9859,-159 852.9859,-159"/>
<polygon fill="#000000" stroke="#000000" points="852.9859,-155.5001 842.9859,-159 852.9859,-162.5001 852.9859,-155.5001"/>
</g>
<!-- ReturnListItemComponent -->
<g id="node5" class="node">
<title>ReturnListItemComponent</title>
<polygon fill="#ffffb3" stroke="#000000" points="961.3697,-122 794.6303,-122 794.6303,-86 961.3697,-86 961.3697,-122"/>
<text text-anchor="middle" x="878" y="-99.8" font-family="Times,serif" font-size="14.00" fill="#000000">ReturnListItemComponent</text>
</g>
<!-- ReturnListItemComponent&#45;&gt;UserModule -->
<g id="edge5" class="edge">
<title>ReturnListItemComponent&#45;&gt;UserModule</title>
<path fill="none" stroke="#000000" d="M818.7767,-122.1061C818.7767,-122.1061 818.7767,-140.991 818.7767,-140.991"/>
<polygon fill="#000000" stroke="#000000" points="815.2767,-140.9909 818.7767,-150.991 822.2767,-140.991 815.2767,-140.9909"/>
</g>
<!-- UserComponent -->
<g id="node6" class="node">
<title>UserComponent</title>
<polygon fill="#ffffb3" stroke="#000000" points="776.7591,-122 669.2409,-122 669.2409,-86 776.7591,-86 776.7591,-122"/>
<text text-anchor="middle" x="723" y="-99.8" font-family="Times,serif" font-size="14.00" fill="#000000">UserComponent</text>
</g>
<!-- UserComponent&#45;&gt;UserModule -->
<g id="edge6" class="edge">
<title>UserComponent&#45;&gt;UserModule</title>
<path fill="none" stroke="#000000" d="M766.9457,-122.1061C766.9457,-122.1061 766.9457,-140.991 766.9457,-140.991"/>
<polygon fill="#000000" stroke="#000000" points="763.4457,-140.9909 766.9457,-150.991 770.4457,-140.991 763.4457,-140.9909"/>
</g>
<!-- AddressesComponent -->
<g id="node7" class="node">
<title>AddressesComponent</title>
<polygon fill="#ffffb3" stroke="#000000" points="651.3627,-122 512.6373,-122 512.6373,-86 651.3627,-86 651.3627,-122"/>
<text text-anchor="middle" x="582" y="-99.8" font-family="Times,serif" font-size="14.00" fill="#000000">AddressesComponent</text>
</g>
<!-- AddressesComponent&#45;&gt;UserModule -->
<g id="edge7" class="edge">
<title>AddressesComponent&#45;&gt;UserModule</title>
<path fill="none" stroke="#000000" d="M582,-122.0091C582,-138.0494 582,-159 582,-159 582,-159 746.9302,-159 746.9302,-159"/>
<polygon fill="#000000" stroke="#000000" points="746.9303,-162.5001 756.9302,-159 746.9302,-155.5001 746.9303,-162.5001"/>
</g>
<!-- OrderDetailComponent -->
<g id="node8" class="node">
<title>OrderDetailComponent</title>
<polygon fill="#ffffb3" stroke="#000000" points="494.1825,-122 345.8175,-122 345.8175,-86 494.1825,-86 494.1825,-122"/>
<text text-anchor="middle" x="420" y="-99.8" font-family="Times,serif" font-size="14.00" fill="#000000">OrderDetailComponent</text>
</g>
<!-- OrderDetailComponent&#45;&gt;UserModule -->
<g id="edge8" class="edge">
<title>OrderDetailComponent&#45;&gt;UserModule</title>
<path fill="none" stroke="#000000" d="M420,-122.2667C420,-140.5552 420,-166 420,-166 420,-166 746.7791,-166 746.7791,-166"/>
<polygon fill="#000000" stroke="#000000" points="746.7792,-169.5001 756.7791,-166 746.7791,-162.5001 746.7792,-169.5001"/>
</g>
<!-- RouterModule.forChild(args) -->
<g id="node10" class="node">
<title>RouterModule.forChild(args)</title>
<polygon fill="#8dd3c7" stroke="#000000" points="321.7323,-122 318.7323,-126 297.7323,-126 294.7323,-122 140.2677,-122 140.2677,-86 321.7323,-86 321.7323,-122"/>
<text text-anchor="middle" x="231" y="-99.8" font-family="Times,serif" font-size="14.00" fill="#000000">RouterModule.forChild(args)</text>
</g>
<!-- RouterModule.forChild(args)&#45;&gt;UserModule -->
<g id="edge9" class="edge">
<title>RouterModule.forChild(args)&#45;&gt;UserModule</title>
<path fill="none" stroke="#000000" d="M231,-122.1289C231,-142.5724 231,-173 231,-173 231,-173 746.7655,-173 746.7655,-173"/>
<polygon fill="#000000" stroke="#000000" points="746.7655,-176.5001 756.7655,-173 746.7655,-169.5001 746.7655,-176.5001"/>
</g>
<!-- SharedModule -->
<g id="node11" class="node">
<title>SharedModule</title>
<polygon fill="#8dd3c7" stroke="#000000" points="122.4231,-122 119.4231,-126 98.4231,-126 95.4231,-122 23.5769,-122 23.5769,-86 122.4231,-86 122.4231,-122"/>
<text text-anchor="middle" x="73" y="-99.8" font-family="Times,serif" font-size="14.00" fill="#000000">SharedModule</text>
</g>
<!-- SharedModule&#45;&gt;UserModule -->
<g id="edge10" class="edge">
<title>SharedModule&#45;&gt;UserModule</title>
<path fill="none" stroke="#000000" d="M73,-122.0109C73,-144.4852 73,-180 73,-180 73,-180 746.9689,-180 746.9689,-180"/>
<polygon fill="#000000" stroke="#000000" points="746.9689,-183.5001 756.9689,-180 746.9688,-176.5001 746.9689,-183.5001"/>
</g>
</g>
</svg>
