<?xml version="1.0" encoding="UTF-8" standalone="no"?>
<!DOCTYPE svg PUBLIC "-//W3C//DTD SVG 1.1//EN"
 "http://www.w3.org/Graphics/SVG/1.1/DTD/svg11.dtd">
<!-- Generated by graphviz version 2.40.1 (20161225.0304)
 -->
<!-- Title: dependencies Pages: 1 -->
<svg width="1211pt" height="284pt"
 viewBox="0.00 0.00 1211.00 284.00" xmlns="http://www.w3.org/2000/svg" xmlns:xlink="http://www.w3.org/1999/xlink">
<g id="graph0" class="graph" transform="scale(1 1) rotate(0) translate(4 280)">
<title>dependencies</title>
<polygon fill="#ffffff" stroke="transparent" points="-4,4 -4,-280 1207,-280 1207,4 -4,4"/>
<text text-anchor="start" x="580.5091" y="-42.4" font-family="sans-serif" font-weight="bold" font-size="14.00" fill="#000000">Legend</text>
<polygon fill="#ffffb3" stroke="transparent" points="367.5,-10 367.5,-30 387.5,-30 387.5,-10 367.5,-10"/>
<text text-anchor="start" x="391.129" y="-15.4" font-family="sans-serif" font-size="14.00" fill="#000000"> &#160;Declarations</text>
<polygon fill="#8dd3c7" stroke="transparent" points="480.5,-10 480.5,-30 500.5,-30 500.5,-10 480.5,-10"/>
<text text-anchor="start" x="504.2251" y="-15.4" font-family="sans-serif" font-size="14.00" fill="#000000"> &#160;Module</text>
<polygon fill="#80b1d3" stroke="transparent" points="566.5,-10 566.5,-30 586.5,-30 586.5,-10 566.5,-10"/>
<text text-anchor="start" x="590.2812" y="-15.4" font-family="sans-serif" font-size="14.00" fill="#000000"> &#160;Bootstrap</text>
<polygon fill="#fdb462" stroke="transparent" points="663.5,-10 663.5,-30 683.5,-30 683.5,-10 663.5,-10"/>
<text text-anchor="start" x="687.1732" y="-15.4" font-family="sans-serif" font-size="14.00" fill="#000000"> &#160;Providers</text>
<polygon fill="#fb8072" stroke="transparent" points="759.5,-10 759.5,-30 779.5,-30 779.5,-10 759.5,-10"/>
<text text-anchor="start" x="783.2258" y="-15.4" font-family="sans-serif" font-size="14.00" fill="#000000"> &#160;Exports</text>
<g id="clust1" class="cluster">
<title>cluster_SharedModule</title>
<polygon fill="none" stroke="#000000" stroke-dasharray="1,5" points="8,-70 8,-268 1195,-268 1195,-70 8,-70"/>
</g>
<g id="clust2" class="cluster">
<title>cluster_SharedModule_declarations</title>
<polygon fill="none" stroke="#000000" points="622,-78 622,-130 1187,-130 1187,-78 622,-78"/>
</g>
<g id="clust7" class="cluster">
<title>cluster_SharedModule_imports</title>
<polygon fill="none" stroke="#000000" points="16,-78 16,-130 614,-130 614,-78 16,-78"/>
</g>
<g id="clust8" class="cluster">
<title>cluster_SharedModule_exports</title>
<polygon fill="none" stroke="#000000" points="34,-208 34,-260 1170,-260 1170,-208 34,-208"/>
</g>
<!-- LoadingIndicatorComponent -->
<g id="node1" class="node">
<title>LoadingIndicatorComponent</title>
<polygon fill="#ffffb3" stroke="#000000" points="1179.0224,-122 1000.9776,-122 1000.9776,-86 1179.0224,-86 1179.0224,-122"/>
<text text-anchor="middle" x="1090" y="-99.8" font-family="Times,serif" font-size="14.00" fill="#000000">LoadingIndicatorComponent</text>
</g>
<!-- SharedModule -->
<g id="node5" class="node">
<title>SharedModule</title>
<polygon fill="#8dd3c7" stroke="#000000" points="626.4231,-187 623.4231,-191 602.4231,-191 599.4231,-187 527.5769,-187 527.5769,-151 626.4231,-151 626.4231,-187"/>
<text text-anchor="middle" x="577" y="-164.8" font-family="Times,serif" font-size="14.00" fill="#000000">SharedModule</text>
</g>
<!-- LoadingIndicatorComponent&#45;&gt;SharedModule -->
<g id="edge1" class="edge">
<title>LoadingIndicatorComponent&#45;&gt;SharedModule</title>
<path fill="none" stroke="#000000" d="M1081.375,-122.2222C1081.375,-140.8285 1081.375,-167 1081.375,-167 1081.375,-167 636.2799,-167 636.2799,-167"/>
<polygon fill="#000000" stroke="#000000" points="636.28,-163.5001 626.2799,-167 636.2799,-170.5001 636.28,-163.5001"/>
</g>
<!-- NotificationComponent -->
<g id="node2" class="node">
<title>NotificationComponent</title>
<polygon fill="#ffffb3" stroke="#000000" points="982.4818,-122 833.5182,-122 833.5182,-86 982.4818,-86 982.4818,-122"/>
<text text-anchor="middle" x="908" y="-99.8" font-family="Times,serif" font-size="14.00" fill="#000000">NotificationComponent</text>
</g>
<!-- NotificationComponent&#45;&gt;SharedModule -->
<g id="edge2" class="edge">
<title>NotificationComponent&#45;&gt;SharedModule</title>
<path fill="none" stroke="#000000" d="M897.875,-122.0336C897.875,-139.0597 897.875,-162 897.875,-162 897.875,-162 636.4335,-162 636.4335,-162"/>
<polygon fill="#000000" stroke="#000000" points="636.4335,-158.5001 626.4335,-162 636.4335,-165.5001 636.4335,-158.5001"/>
</g>
<!-- KeysPipe -->
<g id="node3" class="node">
<title>KeysPipe</title>
<polygon fill="#ffffb3" stroke="#000000" points="815.6545,-122 746.3455,-122 746.3455,-86 815.6545,-86 815.6545,-122"/>
<text text-anchor="middle" x="781" y="-99.8" font-family="Times,serif" font-size="14.00" fill="#000000">KeysPipe</text>
</g>
<!-- KeysPipe&#45;&gt;SharedModule -->
<g id="edge3" class="edge">
<title>KeysPipe&#45;&gt;SharedModule</title>
<path fill="none" stroke="#000000" d="M768.8785,-122.2396C768.8785,-137.5706 768.8785,-157 768.8785,-157 768.8785,-157 636.4135,-157 636.4135,-157"/>
<polygon fill="#000000" stroke="#000000" points="636.4135,-153.5001 626.4135,-157 636.4134,-160.5001 636.4135,-153.5001"/>
</g>
<!-- HumanizePipe -->
<g id="node4" class="node">
<title>HumanizePipe</title>
<polygon fill="#ffffb3" stroke="#000000" points="728.4203,-122 629.5797,-122 629.5797,-86 728.4203,-86 728.4203,-122"/>
<text text-anchor="middle" x="679" y="-99.8" font-family="Times,serif" font-size="14.00" fill="#000000">HumanizePipe</text>
</g>
<!-- HumanizePipe&#45;&gt;SharedModule -->
<g id="edge4" class="edge">
<title>HumanizePipe&#45;&gt;SharedModule</title>
<path fill="none" stroke="#000000" d="M629.6212,-104C621.6428,-104 615.9376,-104 615.9376,-104 615.9376,-104 615.9376,-140.8939 615.9376,-140.8939"/>
<polygon fill="#000000" stroke="#000000" points="612.4377,-140.8938 615.9376,-150.8939 619.4377,-140.8939 612.4377,-140.8938"/>
</g>
<!-- LoadingIndicatorComponent  -->
<g id="node10" class="node">
<title>LoadingIndicatorComponent </title>
<polygon fill="#fb8072" stroke="#000000" points="1162.0218,-252 979.9782,-252 979.9782,-216 1162.0218,-216 1162.0218,-252"/>
<text text-anchor="middle" x="1071" y="-229.8" font-family="Times,serif" font-size="14.00" fill="#000000">LoadingIndicatorComponent </text>
</g>
<!-- SharedModule&#45;&gt;LoadingIndicatorComponent  -->
<g id="edge9" class="edge">
<title>SharedModule&#45;&gt;LoadingIndicatorComponent </title>
<path fill="none" stroke="#000000" stroke-dasharray="5,2" d="M626.6004,-172C736.6526,-172 991.615,-172 991.615,-172 991.615,-172 991.615,-205.7333 991.615,-205.7333"/>
<polygon fill="#000000" stroke="#000000" points="988.1151,-205.7333 991.615,-215.7333 995.1151,-205.7333 988.1151,-205.7333"/>
</g>
<!-- NotificationComponent  -->
<g id="node11" class="node">
<title>NotificationComponent </title>
<polygon fill="#fb8072" stroke="#000000" points="962.4826,-252 809.5174,-252 809.5174,-216 962.4826,-216 962.4826,-252"/>
<text text-anchor="middle" x="886" y="-229.8" font-family="Times,serif" font-size="14.00" fill="#000000">NotificationComponent </text>
</g>
<!-- SharedModule&#45;&gt;NotificationComponent  -->
<g id="edge10" class="edge">
<title>SharedModule&#45;&gt;NotificationComponent </title>
<path fill="none" stroke="#000000" stroke-dasharray="5,2" d="M626.2273,-177C698.4548,-177 824.668,-177 824.668,-177 824.668,-177 824.668,-205.9648 824.668,-205.9648"/>
<polygon fill="#000000" stroke="#000000" points="821.168,-205.9648 824.668,-215.9648 828.168,-205.9649 821.168,-205.9648"/>
</g>
<!-- CommonModule  -->
<g id="node12" class="node">
<title>CommonModule </title>
<polygon fill="#fb8072" stroke="#000000" points="791.6677,-252 676.3323,-252 676.3323,-216 791.6677,-216 791.6677,-252"/>
<text text-anchor="middle" x="734" y="-229.8" font-family="Times,serif" font-size="14.00" fill="#000000">CommonModule </text>
</g>
<!-- SharedModule&#45;&gt;CommonModule  -->
<g id="edge11" class="edge">
<title>SharedModule&#45;&gt;CommonModule </title>
<path fill="none" stroke="#000000" stroke-dasharray="5,2" d="M626.527,-182C661.5541,-182 702.313,-182 702.313,-182 702.313,-182 702.313,-205.8129 702.313,-205.8129"/>
<polygon fill="#000000" stroke="#000000" points="698.813,-205.8129 702.313,-215.8129 705.813,-205.813 698.813,-205.8129"/>
</g>
<!-- DropdownModule  -->
<g id="node13" class="node">
<title>DropdownModule </title>
<polygon fill="#fb8072" stroke="#000000" points="658.4236,-252 535.5764,-252 535.5764,-216 658.4236,-216 658.4236,-252"/>
<text text-anchor="middle" x="597" y="-229.8" font-family="Times,serif" font-size="14.00" fill="#000000">DropdownModule </text>
</g>
<!-- SharedModule&#45;&gt;DropdownModule  -->
<g id="edge12" class="edge">
<title>SharedModule&#45;&gt;DropdownModule </title>
<path fill="none" stroke="#000000" stroke-dasharray="5,2" d="M580.8747,-187.1061C580.8747,-187.1061 580.8747,-205.991 580.8747,-205.991"/>
<polygon fill="#000000" stroke="#000000" points="577.3747,-205.9909 580.8747,-215.991 584.3747,-205.991 577.3747,-205.9909"/>
</g>
<!-- FormsModule  -->
<g id="node14" class="node">
<title>FormsModule </title>
<polygon fill="#fb8072" stroke="#000000" points="517.3283,-252 418.6717,-252 418.6717,-216 517.3283,-216 517.3283,-252"/>
<text text-anchor="middle" x="468" y="-229.8" font-family="Times,serif" font-size="14.00" fill="#000000">FormsModule </text>
</g>
<!-- SharedModule&#45;&gt;FormsModule  -->
<g id="edge13" class="edge">
<title>SharedModule&#45;&gt;FormsModule </title>
<path fill="none" stroke="#000000" stroke-dasharray="5,2" d="M531.6636,-187.1061C531.6636,-206.3391 531.6636,-234 531.6636,-234 531.6636,-234 527.5345,-234 527.5345,-234"/>
<polygon fill="#000000" stroke="#000000" points="527.5346,-230.5001 517.5345,-234 527.5345,-237.5001 527.5346,-230.5001"/>
</g>
<!-- ReactiveFormsModule  -->
<g id="node15" class="node">
<title>ReactiveFormsModule </title>
<polygon fill="#fb8072" stroke="#000000" points="400.8045,-252 253.1955,-252 253.1955,-216 400.8045,-216 400.8045,-252"/>
<text text-anchor="middle" x="327" y="-229.8" font-family="Times,serif" font-size="14.00" fill="#000000">ReactiveFormsModule </text>
</g>
<!-- SharedModule&#45;&gt;ReactiveFormsModule  -->
<g id="edge14" class="edge">
<title>SharedModule&#45;&gt;ReactiveFormsModule </title>
<path fill="none" stroke="#000000" stroke-dasharray="5,2" d="M527.6915,-182C467.7139,-182 374.375,-182 374.375,-182 374.375,-182 374.375,-205.8129 374.375,-205.8129"/>
<polygon fill="#000000" stroke="#000000" points="370.8751,-205.8129 374.375,-215.8129 377.8751,-205.813 370.8751,-205.8129"/>
</g>
<!-- KeysPipe  -->
<g id="node16" class="node">
<title>KeysPipe </title>
<polygon fill="#fb8072" stroke="#000000" points="235.6538,-252 162.3462,-252 162.3462,-216 235.6538,-216 235.6538,-252"/>
<text text-anchor="middle" x="199" y="-229.8" font-family="Times,serif" font-size="14.00" fill="#000000">KeysPipe </text>
</g>
<!-- SharedModule&#45;&gt;KeysPipe  -->
<g id="edge15" class="edge">
<title>SharedModule&#45;&gt;KeysPipe </title>
<path fill="none" stroke="#000000" stroke-dasharray="5,2" d="M527.5777,-177C431.0646,-177 226.8715,-177 226.8715,-177 226.8715,-177 226.8715,-205.9648 226.8715,-205.9648"/>
<polygon fill="#000000" stroke="#000000" points="223.3714,-205.9649 226.8715,-215.9648 230.3714,-205.9648 223.3714,-205.9649"/>
</g>
<!-- HumanizePipe  -->
<g id="node17" class="node">
<title>HumanizePipe </title>
<polygon fill="#fb8072" stroke="#000000" points="143.9194,-252 42.0806,-252 42.0806,-216 143.9194,-216 143.9194,-252"/>
<text text-anchor="middle" x="93" y="-229.8" font-family="Times,serif" font-size="14.00" fill="#000000">HumanizePipe </text>
</g>
<!-- SharedModule&#45;&gt;HumanizePipe  -->
<g id="edge16" class="edge">
<title>SharedModule&#45;&gt;HumanizePipe </title>
<path fill="none" stroke="#000000" stroke-dasharray="5,2" d="M527.4781,-172C404.1227,-172 93,-172 93,-172 93,-172 93,-205.7333 93,-205.7333"/>
<polygon fill="#000000" stroke="#000000" points="89.5001,-205.7333 93,-215.7333 96.5001,-205.7333 89.5001,-205.7333"/>
</g>
<!-- FormsModule -->
<g id="node6" class="node">
<title>FormsModule</title>
<polygon fill="#8dd3c7" stroke="#000000" points="605.8288,-122 602.8288,-126 581.8288,-126 578.8288,-122 510.1712,-122 510.1712,-86 605.8288,-86 605.8288,-122"/>
<text text-anchor="middle" x="558" y="-99.8" font-family="Times,serif" font-size="14.00" fill="#000000">FormsModule</text>
</g>
<!-- FormsModule&#45;&gt;SharedModule -->
<g id="edge5" class="edge">
<title>FormsModule&#45;&gt;SharedModule</title>
<path fill="none" stroke="#000000" d="M566.7265,-122.1061C566.7265,-122.1061 566.7265,-140.991 566.7265,-140.991"/>
<polygon fill="#000000" stroke="#000000" points="563.2266,-140.9909 566.7265,-150.991 570.2266,-140.991 563.2266,-140.9909"/>
</g>
<!-- ReactiveFormsModule -->
<g id="node7" class="node">
<title>ReactiveFormsModule</title>
<polygon fill="#8dd3c7" stroke="#000000" points="492.3047,-122 489.3047,-126 468.3047,-126 465.3047,-122 347.6953,-122 347.6953,-86 492.3047,-86 492.3047,-122"/>
<text text-anchor="middle" x="420" y="-99.8" font-family="Times,serif" font-size="14.00" fill="#000000">ReactiveFormsModule</text>
</g>
<!-- ReactiveFormsModule&#45;&gt;SharedModule -->
<g id="edge6" class="edge">
<title>ReactiveFormsModule&#45;&gt;SharedModule</title>
<path fill="none" stroke="#000000" d="M455.3691,-122.2396C455.3691,-137.5706 455.3691,-157 455.3691,-157 455.3691,-157 517.528,-157 517.528,-157"/>
<polygon fill="#000000" stroke="#000000" points="517.5281,-160.5001 527.528,-157 517.528,-153.5001 517.5281,-160.5001"/>
</g>
<!-- CommonModule -->
<g id="node8" class="node">
<title>CommonModule</title>
<polygon fill="#8dd3c7" stroke="#000000" points="329.6681,-122 326.6681,-126 305.6681,-126 302.6681,-122 218.3319,-122 218.3319,-86 329.6681,-86 329.6681,-122"/>
<text text-anchor="middle" x="274" y="-99.8" font-family="Times,serif" font-size="14.00" fill="#000000">CommonModule</text>
</g>
<!-- CommonModule&#45;&gt;SharedModule -->
<g id="edge7" class="edge">
<title>CommonModule&#45;&gt;SharedModule</title>
<path fill="none" stroke="#000000" d="M291.4658,-122.0336C291.4658,-139.0597 291.4658,-162 291.4658,-162 291.4658,-162 517.5897,-162 517.5897,-162"/>
<polygon fill="#000000" stroke="#000000" points="517.5897,-165.5001 527.5897,-162 517.5897,-158.5001 517.5897,-165.5001"/>
</g>
<!-- DropdownModule.forRoot() -->
<g id="node9" class="node">
<title>DropdownModule.forRoot()</title>
<polygon fill="#8dd3c7" stroke="#000000" points="199.7933,-122 196.7933,-126 175.7933,-126 172.7933,-122 24.2067,-122 24.2067,-86 199.7933,-86 199.7933,-122"/>
<text text-anchor="middle" x="112" y="-99.8" font-family="Times,serif" font-size="14.00" fill="#000000">DropdownModule.forRoot()</text>
</g>
<!-- DropdownModule.forRoot()&#45;&gt;SharedModule -->
<g id="edge8" class="edge">
<title>DropdownModule.forRoot()&#45;&gt;SharedModule</title>
<path fill="none" stroke="#000000" d="M181.1599,-122.2222C181.1599,-140.8285 181.1599,-167 181.1599,-167 181.1599,-167 517.6669,-167 517.6669,-167"/>
<polygon fill="#000000" stroke="#000000" points="517.667,-170.5001 527.6669,-167 517.6669,-163.5001 517.667,-170.5001"/>
</g>
</g>
</svg>
