<?xml version="1.0" encoding="UTF-8" standalone="no"?>
<!DOCTYPE svg PUBLIC "-//W3C//DTD SVG 1.1//EN"
 "http://www.w3.org/Graphics/SVG/1.1/DTD/svg11.dtd">
<!-- Generated by graphviz version 2.40.1 (20161225.0304)
 -->
<!-- Title: dependencies Pages: 1 -->
<svg width="1020pt" height="284pt"
 viewBox="0.00 0.00 1020.00 284.00" xmlns="http://www.w3.org/2000/svg" xmlns:xlink="http://www.w3.org/1999/xlink">
<g id="graph0" class="graph" transform="scale(1 1) rotate(0) translate(4 280)">
<title>dependencies</title>
<polygon fill="#ffffff" stroke="transparent" points="-4,4 -4,-280 1016,-280 1016,4 -4,4"/>
<text text-anchor="start" x="485.0091" y="-42.4" font-family="sans-serif" font-weight="bold" font-size="14.00" fill="#000000">Legend</text>
<polygon fill="#ffffb3" stroke="transparent" points="272,-10 272,-30 292,-30 292,-10 272,-10"/>
<text text-anchor="start" x="295.629" y="-15.4" font-family="sans-serif" font-size="14.00" fill="#000000"> &#160;Declarations</text>
<polygon fill="#8dd3c7" stroke="transparent" points="385,-10 385,-30 405,-30 405,-10 385,-10"/>
<text text-anchor="start" x="408.7251" y="-15.4" font-family="sans-serif" font-size="14.00" fill="#000000"> &#160;Module</text>
<polygon fill="#80b1d3" stroke="transparent" points="471,-10 471,-30 491,-30 491,-10 471,-10"/>
<text text-anchor="start" x="494.7812" y="-15.4" font-family="sans-serif" font-size="14.00" fill="#000000"> &#160;Bootstrap</text>
<polygon fill="#fdb462" stroke="transparent" points="568,-10 568,-30 588,-30 588,-10 568,-10"/>
<text text-anchor="start" x="591.6732" y="-15.4" font-family="sans-serif" font-size="14.00" fill="#000000"> &#160;Providers</text>
<polygon fill="#fb8072" stroke="transparent" points="664,-10 664,-30 684,-30 684,-10 664,-10"/>
<text text-anchor="start" x="687.7258" y="-15.4" font-family="sans-serif" font-size="14.00" fill="#000000"> &#160;Exports</text>
<g id="clust1" class="cluster">
<title>cluster_SharedModule</title>
<polygon fill="none" stroke="#000000" stroke-dasharray="1,5" points="8,-70 8,-268 1004,-268 1004,-70 8,-70"/>
</g>
<g id="clust2" class="cluster">
<title>cluster_SharedModule_declarations</title>
<polygon fill="none" stroke="#000000" points="16,-78 16,-130 996,-130 996,-78 16,-78"/>
</g>
<g id="clust11" class="cluster">
<title>cluster_SharedModule_exports</title>
<polygon fill="none" stroke="#000000" points="82,-208 82,-260 908,-260 908,-208 82,-208"/>
</g>
<!-- HumanizePipe -->
<g id="node1" class="node">
<title>HumanizePipe</title>
<polygon fill="#ffffb3" stroke="#000000" points="988.4203,-122 889.5797,-122 889.5797,-86 988.4203,-86 988.4203,-122"/>
<text text-anchor="middle" x="939" y="-99.8" font-family="Times,serif" font-size="14.00" fill="#000000">HumanizePipe</text>
</g>
<!-- SharedModule -->
<g id="node8" class="node">
<title>SharedModule</title>
<polygon fill="#8dd3c7" stroke="#000000" points="578.4231,-187 575.4231,-191 554.4231,-191 551.4231,-187 479.5769,-187 479.5769,-151 578.4231,-151 578.4231,-187"/>
<text text-anchor="middle" x="529" y="-164.8" font-family="Times,serif" font-size="14.00" fill="#000000">SharedModule</text>
</g>
<!-- HumanizePipe&#45;&gt;SharedModule -->
<g id="edge1" class="edge">
<title>HumanizePipe&#45;&gt;SharedModule</title>
<path fill="none" stroke="#000000" d="M894.875,-122.1061C894.875,-141.3391 894.875,-169 894.875,-169 894.875,-169 588.3435,-169 588.3435,-169"/>
<polygon fill="#000000" stroke="#000000" points="588.3436,-165.5001 578.3435,-169 588.3435,-172.5001 588.3436,-165.5001"/>
</g>
<!-- InnerIproductComponent -->
<g id="node2" class="node">
<title>InnerIproductComponent</title>
<polygon fill="#ffffb3" stroke="#000000" points="872.2949,-122 713.7051,-122 713.7051,-86 872.2949,-86 872.2949,-122"/>
<text text-anchor="middle" x="793" y="-99.8" font-family="Times,serif" font-size="14.00" fill="#000000">InnerIproductComponent</text>
</g>
<!-- InnerIproductComponent&#45;&gt;SharedModule -->
<g id="edge2" class="edge">
<title>InnerIproductComponent&#45;&gt;SharedModule</title>
<path fill="none" stroke="#000000" d="M746.7148,-122.0225C746.7148,-139.3734 746.7148,-163 746.7148,-163 746.7148,-163 588.4028,-163 588.4028,-163"/>
<polygon fill="#000000" stroke="#000000" points="588.4029,-159.5001 578.4028,-163 588.4028,-166.5001 588.4029,-159.5001"/>
</g>
<!-- KeysPipe -->
<g id="node3" class="node">
<title>KeysPipe</title>
<polygon fill="#ffffb3" stroke="#000000" points="695.6545,-122 626.3455,-122 626.3455,-86 695.6545,-86 695.6545,-122"/>
<text text-anchor="middle" x="661" y="-99.8" font-family="Times,serif" font-size="14.00" fill="#000000">KeysPipe</text>
</g>
<!-- KeysPipe&#45;&gt;SharedModule -->
<g id="edge3" class="edge">
<title>KeysPipe&#45;&gt;SharedModule</title>
<path fill="none" stroke="#000000" d="M657.5415,-122.2396C657.5415,-137.5706 657.5415,-157 657.5415,-157 657.5415,-157 588.3299,-157 588.3299,-157"/>
<polygon fill="#000000" stroke="#000000" points="588.3299,-153.5001 578.3299,-157 588.3299,-160.5001 588.3299,-153.5001"/>
</g>
<!-- ProductSliderComponent -->
<g id="node4" class="node">
<title>ProductSliderComponent</title>
<polygon fill="#ffffb3" stroke="#000000" points="608.3201,-122 449.6799,-122 449.6799,-86 608.3201,-86 608.3201,-122"/>
<text text-anchor="middle" x="529" y="-99.8" font-family="Times,serif" font-size="14.00" fill="#000000">ProductSliderComponent</text>
</g>
<!-- ProductSliderComponent&#45;&gt;SharedModule -->
<g id="edge4" class="edge">
<title>ProductSliderComponent&#45;&gt;SharedModule</title>
<path fill="none" stroke="#000000" d="M529,-122.1061C529,-122.1061 529,-140.991 529,-140.991"/>
<polygon fill="#000000" stroke="#000000" points="525.5001,-140.9909 529,-150.991 532.5001,-140.991 525.5001,-140.9909"/>
</g>
<!-- ReversePipe -->
<g id="node5" class="node">
<title>ReversePipe</title>
<polygon fill="#ffffb3" stroke="#000000" points="431.9734,-122 346.0266,-122 346.0266,-86 431.9734,-86 431.9734,-122"/>
<text text-anchor="middle" x="389" y="-99.8" font-family="Times,serif" font-size="14.00" fill="#000000">ReversePipe</text>
</g>
<!-- ReversePipe&#45;&gt;SharedModule -->
<g id="edge5" class="edge">
<title>ReversePipe&#45;&gt;SharedModule</title>
<path fill="none" stroke="#000000" d="M425.625,-122.2396C425.625,-137.5706 425.625,-157 425.625,-157 425.625,-157 469.7346,-157 469.7346,-157"/>
<polygon fill="#000000" stroke="#000000" points="469.7346,-160.5001 479.7346,-157 469.7345,-153.5001 469.7346,-160.5001"/>
</g>
<!-- SavedAddressComponent -->
<g id="node6" class="node">
<title>SavedAddressComponent</title>
<polygon fill="#ffffb3" stroke="#000000" points="327.9157,-122 166.0843,-122 166.0843,-86 327.9157,-86 327.9157,-122"/>
<text text-anchor="middle" x="247" y="-99.8" font-family="Times,serif" font-size="14.00" fill="#000000">SavedAddressComponent</text>
</g>
<!-- SavedAddressComponent&#45;&gt;SharedModule -->
<g id="edge6" class="edge">
<title>SavedAddressComponent&#45;&gt;SharedModule</title>
<path fill="none" stroke="#000000" d="M282.125,-122.0225C282.125,-139.3734 282.125,-163 282.125,-163 282.125,-163 469.6345,-163 469.6345,-163"/>
<polygon fill="#000000" stroke="#000000" points="469.6345,-166.5001 479.6345,-163 469.6345,-159.5001 469.6345,-166.5001"/>
</g>
<!-- ZoomableDirective -->
<g id="node7" class="node">
<title>ZoomableDirective</title>
<polygon fill="#ffffb3" stroke="#000000" points="148.3459,-122 23.6541,-122 23.6541,-86 148.3459,-86 148.3459,-122"/>
<text text-anchor="middle" x="86" y="-99.8" font-family="Times,serif" font-size="14.00" fill="#000000">ZoomableDirective</text>
</g>
<!-- ZoomableDirective&#45;&gt;SharedModule -->
<g id="edge7" class="edge">
<title>ZoomableDirective&#45;&gt;SharedModule</title>
<path fill="none" stroke="#000000" d="M119.125,-122.1061C119.125,-141.3391 119.125,-169 119.125,-169 119.125,-169 469.5595,-169 469.5595,-169"/>
<polygon fill="#000000" stroke="#000000" points="469.5595,-172.5001 479.5595,-169 469.5595,-165.5001 469.5595,-172.5001"/>
</g>
<!-- HumanizePipe  -->
<g id="node9" class="node">
<title>HumanizePipe </title>
<polygon fill="#fb8072" stroke="#000000" points="899.9194,-252 798.0806,-252 798.0806,-216 899.9194,-216 899.9194,-252"/>
<text text-anchor="middle" x="849" y="-229.8" font-family="Times,serif" font-size="14.00" fill="#000000">HumanizePipe </text>
</g>
<!-- SharedModule&#45;&gt;HumanizePipe  -->
<g id="edge8" class="edge">
<title>SharedModule&#45;&gt;HumanizePipe </title>
<path fill="none" stroke="#000000" stroke-dasharray="5,2" d="M578.5195,-175C665.1506,-175 835.0938,-175 835.0938,-175 835.0938,-175 835.0938,-205.9775 835.0938,-205.9775"/>
<polygon fill="#000000" stroke="#000000" points="831.5939,-205.9774 835.0938,-215.9775 838.5939,-205.9775 831.5939,-205.9774"/>
</g>
<!-- KeysPipe  -->
<g id="node10" class="node">
<title>KeysPipe </title>
<polygon fill="#fb8072" stroke="#000000" points="779.6538,-252 706.3462,-252 706.3462,-216 779.6538,-216 779.6538,-252"/>
<text text-anchor="middle" x="743" y="-229.8" font-family="Times,serif" font-size="14.00" fill="#000000">KeysPipe </text>
</g>
<!-- SharedModule&#45;&gt;KeysPipe  -->
<g id="edge9" class="edge">
<title>SharedModule&#45;&gt;KeysPipe </title>
<path fill="none" stroke="#000000" stroke-dasharray="5,2" d="M578.4967,-181C632.1283,-181 710.138,-181 710.138,-181 710.138,-181 710.138,-205.7604 710.138,-205.7604"/>
<polygon fill="#000000" stroke="#000000" points="706.638,-205.7604 710.138,-215.7604 713.638,-205.7604 706.638,-205.7604"/>
</g>
<!-- ProductSliderComponent  -->
<g id="node11" class="node">
<title>ProductSliderComponent </title>
<polygon fill="#fb8072" stroke="#000000" points="688.8199,-252 527.1801,-252 527.1801,-216 688.8199,-216 688.8199,-252"/>
<text text-anchor="middle" x="608" y="-229.8" font-family="Times,serif" font-size="14.00" fill="#000000">ProductSliderComponent </text>
</g>
<!-- SharedModule&#45;&gt;ProductSliderComponent  -->
<g id="edge10" class="edge">
<title>SharedModule&#45;&gt;ProductSliderComponent </title>
<path fill="none" stroke="#000000" stroke-dasharray="5,2" d="M552.6506,-187.1061C552.6506,-187.1061 552.6506,-205.991 552.6506,-205.991"/>
<polygon fill="#000000" stroke="#000000" points="549.1507,-205.9909 552.6506,-215.991 556.1507,-205.991 549.1507,-205.9909"/>
</g>
<!-- ReversePipe  -->
<g id="node12" class="node">
<title>ReversePipe </title>
<polygon fill="#fb8072" stroke="#000000" points="508.9747,-252 419.0253,-252 419.0253,-216 508.9747,-216 508.9747,-252"/>
<text text-anchor="middle" x="464" y="-229.8" font-family="Times,serif" font-size="14.00" fill="#000000">ReversePipe </text>
</g>
<!-- SharedModule&#45;&gt;ReversePipe  -->
<g id="edge11" class="edge">
<title>SharedModule&#45;&gt;ReversePipe </title>
<path fill="none" stroke="#000000" stroke-dasharray="5,2" d="M494.2628,-187.1061C494.2628,-187.1061 494.2628,-205.991 494.2628,-205.991"/>
<polygon fill="#000000" stroke="#000000" points="490.7629,-205.9909 494.2628,-215.991 497.7629,-205.991 490.7629,-205.9909"/>
</g>
<!-- SavedAddressComponent  -->
<g id="node13" class="node">
<title>SavedAddressComponent </title>
<polygon fill="#fb8072" stroke="#000000" points="401.4152,-252 236.5848,-252 236.5848,-216 401.4152,-216 401.4152,-252"/>
<text text-anchor="middle" x="319" y="-229.8" font-family="Times,serif" font-size="14.00" fill="#000000">SavedAddressComponent </text>
</g>
<!-- SharedModule&#45;&gt;SavedAddressComponent  -->
<g id="edge12" class="edge">
<title>SharedModule&#45;&gt;SavedAddressComponent </title>
<path fill="none" stroke="#000000" stroke-dasharray="5,2" d="M479.4464,-181C434.0072,-181 373.7355,-181 373.7355,-181 373.7355,-181 373.7355,-205.7604 373.7355,-205.7604"/>
<polygon fill="#000000" stroke="#000000" points="370.2355,-205.7604 373.7355,-215.7604 377.2355,-205.7604 370.2355,-205.7604"/>
</g>
<!-- ZoomableDirective  -->
<g id="node14" class="node">
<title>ZoomableDirective </title>
<polygon fill="#fb8072" stroke="#000000" points="218.3463,-252 89.6537,-252 89.6537,-216 218.3463,-216 218.3463,-252"/>
<text text-anchor="middle" x="154" y="-229.8" font-family="Times,serif" font-size="14.00" fill="#000000">ZoomableDirective </text>
</g>
<!-- SharedModule&#45;&gt;ZoomableDirective  -->
<g id="edge13" class="edge">
<title>SharedModule&#45;&gt;ZoomableDirective </title>
<path fill="none" stroke="#000000" stroke-dasharray="5,2" d="M479.6705,-175C386.1301,-175 192.2327,-175 192.2327,-175 192.2327,-175 192.2327,-205.9775 192.2327,-205.9775"/>
<polygon fill="#000000" stroke="#000000" points="188.7327,-205.9774 192.2327,-215.9775 195.7327,-205.9775 188.7327,-205.9774"/>
</g>
</g>
</svg>
