<?xml version="1.0" encoding="UTF-8" standalone="no"?>
<!DOCTYPE svg PUBLIC "-//W3C//DTD SVG 1.1//EN"
 "http://www.w3.org/Graphics/SVG/1.1/DTD/svg11.dtd">
<!-- Generated by graphviz version 2.40.1 (20161225.0304)
 -->
<!-- Title: dependencies Pages: 1 -->
<svg width="1796pt" height="211pt"
 viewBox="0.00 0.00 1796.00 211.00" xmlns="http://www.w3.org/2000/svg" xmlns:xlink="http://www.w3.org/1999/xlink">
<g id="graph0" class="graph" transform="scale(1 1) rotate(0) translate(4 207)">
<title>dependencies</title>
<polygon fill="#ffffff" stroke="transparent" points="-4,4 -4,-207 1792,-207 1792,4 -4,4"/>
<text text-anchor="start" x="873.0091" y="-42.4" font-family="sans-serif" font-weight="bold" font-size="14.00" fill="#000000">Legend</text>
<polygon fill="#ffffb3" stroke="transparent" points="660,-10 660,-30 680,-30 680,-10 660,-10"/>
<text text-anchor="start" x="683.629" y="-15.4" font-family="sans-serif" font-size="14.00" fill="#000000"> &#160;Declarations</text>
<polygon fill="#8dd3c7" stroke="transparent" points="773,-10 773,-30 793,-30 793,-10 773,-10"/>
<text text-anchor="start" x="796.7251" y="-15.4" font-family="sans-serif" font-size="14.00" fill="#000000"> &#160;Module</text>
<polygon fill="#80b1d3" stroke="transparent" points="859,-10 859,-30 879,-30 879,-10 859,-10"/>
<text text-anchor="start" x="882.7812" y="-15.4" font-family="sans-serif" font-size="14.00" fill="#000000"> &#160;Bootstrap</text>
<polygon fill="#fdb462" stroke="transparent" points="956,-10 956,-30 976,-30 976,-10 956,-10"/>
<text text-anchor="start" x="979.6732" y="-15.4" font-family="sans-serif" font-size="14.00" fill="#000000"> &#160;Providers</text>
<polygon fill="#fb8072" stroke="transparent" points="1052,-10 1052,-30 1072,-30 1072,-10 1052,-10"/>
<text text-anchor="start" x="1075.7258" y="-15.4" font-family="sans-serif" font-size="14.00" fill="#000000"> &#160;Exports</text>
<g id="clust1" class="cluster">
<title>cluster_PaymentModule</title>
<polygon fill="none" stroke="#000000" stroke-dasharray="1,5" points="8,-70 8,-195 1780,-195 1780,-70 8,-70"/>
</g>
<g id="clust2" class="cluster">
<title>cluster_PaymentModule_declarations</title>
<polygon fill="none" stroke="#000000" points="715,-78 715,-130 1772,-130 1772,-78 715,-78"/>
</g>
<g id="clust9" class="cluster">
<title>cluster_PaymentModule_imports</title>
<polygon fill="none" stroke="#000000" points="188,-78 188,-130 707,-130 707,-78 188,-78"/>
</g>
<g id="clust12" class="cluster">
<title>cluster_PaymentModule_providers</title>
<polygon fill="none" stroke="#000000" points="16,-78 16,-130 180,-130 180,-78 16,-78"/>
</g>
<!-- PaymentComponent -->
<g id="node1" class="node">
<title>PaymentComponent</title>
<polygon fill="#ffffb3" stroke="#000000" points="1764.3258,-122 1633.6742,-122 1633.6742,-86 1764.3258,-86 1764.3258,-122"/>
<text text-anchor="middle" x="1699" y="-99.8" font-family="Times,serif" font-size="14.00" fill="#000000">PaymentComponent</text>
</g>
<!-- PaymentModule -->
<g id="node7" class="node">
<title>PaymentModule</title>
<polygon fill="#8dd3c7" stroke="#000000" points="865.0438,-187 862.0438,-191 841.0438,-191 838.0438,-187 756.9562,-187 756.9562,-151 865.0438,-151 865.0438,-187"/>
<text text-anchor="middle" x="811" y="-164.8" font-family="Times,serif" font-size="14.00" fill="#000000">PaymentModule</text>
</g>
<!-- PaymentComponent&#45;&gt;PaymentModule -->
<g id="edge1" class="edge">
<title>PaymentComponent&#45;&gt;PaymentModule</title>
<path fill="none" stroke="#000000" d="M1699,-122.0908C1699,-145.1328 1699,-182 1699,-182 1699,-182 875.2116,-182 875.2116,-182"/>
<polygon fill="#000000" stroke="#000000" points="875.2117,-178.5001 865.2116,-182 875.2116,-185.5001 875.2117,-178.5001"/>
</g>
<!-- PaymentModesListComponent -->
<g id="node2" class="node">
<title>PaymentModesListComponent</title>
<polygon fill="#ffffb3" stroke="#000000" points="1616.2077,-122 1425.7923,-122 1425.7923,-86 1616.2077,-86 1616.2077,-122"/>
<text text-anchor="middle" x="1521" y="-99.8" font-family="Times,serif" font-size="14.00" fill="#000000">PaymentModesListComponent</text>
</g>
<!-- PaymentModesListComponent&#45;&gt;PaymentModule -->
<g id="edge2" class="edge">
<title>PaymentModesListComponent&#45;&gt;PaymentModule</title>
<path fill="none" stroke="#000000" d="M1521,-122.2843C1521,-143.3211 1521,-175 1521,-175 1521,-175 875.2405,-175 875.2405,-175"/>
<polygon fill="#000000" stroke="#000000" points="875.2406,-171.5001 865.2405,-175 875.2405,-178.5001 875.2406,-171.5001"/>
</g>
<!-- PaymentModeComponent -->
<g id="node3" class="node">
<title>PaymentModeComponent</title>
<polygon fill="#ffffb3" stroke="#000000" points="1407.4846,-122 1244.5154,-122 1244.5154,-86 1407.4846,-86 1407.4846,-122"/>
<text text-anchor="middle" x="1326" y="-99.8" font-family="Times,serif" font-size="14.00" fill="#000000">PaymentModeComponent</text>
</g>
<!-- PaymentModeComponent&#45;&gt;PaymentModule -->
<g id="edge3" class="edge">
<title>PaymentModeComponent&#45;&gt;PaymentModule</title>
<path fill="none" stroke="#000000" d="M1326,-122.1061C1326,-141.3391 1326,-169 1326,-169 1326,-169 875.1406,-169 875.1406,-169"/>
<polygon fill="#000000" stroke="#000000" points="875.1407,-165.5001 865.1406,-169 875.1406,-172.5001 875.1407,-165.5001"/>
</g>
<!-- CreditCardComponent -->
<g id="node4" class="node">
<title>CreditCardComponent</title>
<polygon fill="#ffffb3" stroke="#000000" points="1226.5379,-122 1083.4621,-122 1083.4621,-86 1226.5379,-86 1226.5379,-122"/>
<text text-anchor="middle" x="1155" y="-99.8" font-family="Times,serif" font-size="14.00" fill="#000000">CreditCardComponent</text>
</g>
<!-- CreditCardComponent&#45;&gt;PaymentModule -->
<g id="edge4" class="edge">
<title>CreditCardComponent&#45;&gt;PaymentModule</title>
<path fill="none" stroke="#000000" d="M1155,-122.0225C1155,-139.3734 1155,-163 1155,-163 1155,-163 875.1284,-163 875.1284,-163"/>
<polygon fill="#000000" stroke="#000000" points="875.1285,-159.5001 865.1284,-163 875.1284,-166.5001 875.1285,-159.5001"/>
</g>
<!-- NetBankingComponent -->
<g id="node5" class="node">
<title>NetBankingComponent</title>
<polygon fill="#ffffb3" stroke="#000000" points="1065.486,-122 916.514,-122 916.514,-86 1065.486,-86 1065.486,-122"/>
<text text-anchor="middle" x="991" y="-99.8" font-family="Times,serif" font-size="14.00" fill="#000000">NetBankingComponent</text>
</g>
<!-- NetBankingComponent&#45;&gt;PaymentModule -->
<g id="edge5" class="edge">
<title>NetBankingComponent&#45;&gt;PaymentModule</title>
<path fill="none" stroke="#000000" d="M991,-122.2396C991,-137.5706 991,-157 991,-157 991,-157 875.4944,-157 875.4944,-157"/>
<polygon fill="#000000" stroke="#000000" points="875.4944,-153.5001 865.4944,-157 875.4944,-160.5001 875.4944,-153.5001"/>
</g>
<!-- CashOnDeliveryComponent -->
<g id="node6" class="node">
<title>CashOnDeliveryComponent</title>
<polygon fill="#ffffb3" stroke="#000000" points="898.9129,-122 723.0871,-122 723.0871,-86 898.9129,-86 898.9129,-122"/>
<text text-anchor="middle" x="811" y="-99.8" font-family="Times,serif" font-size="14.00" fill="#000000">CashOnDeliveryComponent</text>
</g>
<!-- CashOnDeliveryComponent&#45;&gt;PaymentModule -->
<g id="edge6" class="edge">
<title>CashOnDeliveryComponent&#45;&gt;PaymentModule</title>
<path fill="none" stroke="#000000" d="M811,-122.1061C811,-122.1061 811,-140.991 811,-140.991"/>
<polygon fill="#000000" stroke="#000000" points="807.5001,-140.9909 811,-150.991 814.5001,-140.991 807.5001,-140.9909"/>
</g>
<!-- RouterModule -->
<g id="node8" class="node">
<title>RouterModule</title>
<polygon fill="#8dd3c7" stroke="#000000" points="698.6528,-122 695.6528,-126 674.6528,-126 671.6528,-122 601.3472,-122 601.3472,-86 698.6528,-86 698.6528,-122"/>
<text text-anchor="middle" x="650" y="-99.8" font-family="Times,serif" font-size="14.00" fill="#000000">RouterModule</text>
</g>
<!-- RouterModule&#45;&gt;PaymentModule -->
<g id="edge7" class="edge">
<title>RouterModule&#45;&gt;PaymentModule</title>
<path fill="none" stroke="#000000" d="M650,-122.2396C650,-137.5706 650,-157 650,-157 650,-157 746.9414,-157 746.9414,-157"/>
<polygon fill="#000000" stroke="#000000" points="746.9415,-160.5001 756.9414,-157 746.9414,-153.5001 746.9415,-160.5001"/>
</g>
<!-- CommonModule -->
<g id="node9" class="node">
<title>CommonModule</title>
<polygon fill="#8dd3c7" stroke="#000000" points="582.6681,-122 579.6681,-126 558.6681,-126 555.6681,-122 471.3319,-122 471.3319,-86 582.6681,-86 582.6681,-122"/>
<text text-anchor="middle" x="527" y="-99.8" font-family="Times,serif" font-size="14.00" fill="#000000">CommonModule</text>
</g>
<!-- CommonModule&#45;&gt;PaymentModule -->
<g id="edge8" class="edge">
<title>CommonModule&#45;&gt;PaymentModule</title>
<path fill="none" stroke="#000000" d="M527,-122.0225C527,-139.3734 527,-163 527,-163 527,-163 746.9133,-163 746.9133,-163"/>
<polygon fill="#000000" stroke="#000000" points="746.9133,-166.5001 756.9133,-163 746.9133,-159.5001 746.9133,-166.5001"/>
</g>
<!-- FormsModule -->
<g id="node10" class="node">
<title>FormsModule</title>
<polygon fill="#8dd3c7" stroke="#000000" points="453.8288,-122 450.8288,-126 429.8288,-126 426.8288,-122 358.1712,-122 358.1712,-86 453.8288,-86 453.8288,-122"/>
<text text-anchor="middle" x="406" y="-99.8" font-family="Times,serif" font-size="14.00" fill="#000000">FormsModule</text>
</g>
<!-- FormsModule&#45;&gt;PaymentModule -->
<g id="edge9" class="edge">
<title>FormsModule&#45;&gt;PaymentModule</title>
<path fill="none" stroke="#000000" d="M406,-122.1061C406,-141.3391 406,-169 406,-169 406,-169 746.8001,-169 746.8001,-169"/>
<polygon fill="#000000" stroke="#000000" points="746.8002,-172.5001 756.8001,-169 746.8001,-165.5001 746.8002,-172.5001"/>
</g>
<!-- ReactiveFormsModule -->
<g id="node11" class="node">
<title>ReactiveFormsModule</title>
<polygon fill="#8dd3c7" stroke="#000000" points="340.3047,-122 337.3047,-126 316.3047,-126 313.3047,-122 195.6953,-122 195.6953,-86 340.3047,-86 340.3047,-122"/>
<text text-anchor="middle" x="268" y="-99.8" font-family="Times,serif" font-size="14.00" fill="#000000">ReactiveFormsModule</text>
</g>
<!-- ReactiveFormsModule&#45;&gt;PaymentModule -->
<g id="edge10" class="edge">
<title>ReactiveFormsModule&#45;&gt;PaymentModule</title>
<path fill="none" stroke="#000000" d="M268,-122.2843C268,-143.3211 268,-175 268,-175 268,-175 746.9499,-175 746.9499,-175"/>
<polygon fill="#000000" stroke="#000000" points="746.9499,-178.5001 756.9499,-175 746.9499,-171.5001 746.9499,-178.5001"/>
</g>
<!-- PaymentService -->
<g id="node12" class="node">
<title>PaymentService</title>
<ellipse fill="#fdb462" stroke="#000000" cx="98" cy="-104" rx="73.5734" ry="18"/>
<text text-anchor="middle" x="98" y="-99.8" font-family="Times,serif" font-size="14.00" fill="#000000">PaymentService</text>
</g>
<!-- PaymentService&#45;&gt;PaymentModule -->
<g id="edge11" class="edge">
<title>PaymentService&#45;&gt;PaymentModule</title>
<path fill="none" stroke="#000000" d="M98,-122.0908C98,-145.1328 98,-182 98,-182 98,-182 746.8239,-182 746.8239,-182"/>
<polygon fill="#000000" stroke="#000000" points="746.8239,-185.5001 756.8239,-182 746.8239,-178.5001 746.8239,-185.5001"/>
</g>
</g>
</svg>
