<?xml version="1.0" encoding="UTF-8" standalone="no"?>
<!DOCTYPE svg PUBLIC "-//W3C//DTD SVG 1.1//EN"
 "http://www.w3.org/Graphics/SVG/1.1/DTD/svg11.dtd">
<!-- Generated by graphviz version 2.40.1 (20161225.0304)
 -->
<!-- Title: dependencies Pages: 1 -->
<svg width="2116pt" height="211pt"
 viewBox="0.00 0.00 2116.00 211.00" xmlns="http://www.w3.org/2000/svg" xmlns:xlink="http://www.w3.org/1999/xlink">
<g id="graph0" class="graph" transform="scale(1 1) rotate(0) translate(4 207)">
<title>dependencies</title>
<polygon fill="#ffffff" stroke="transparent" points="-4,4 -4,-207 2112,-207 2112,4 -4,4"/>
<text text-anchor="start" x="1033.0091" y="-42.4" font-family="sans-serif" font-weight="bold" font-size="14.00" fill="#000000">Legend</text>
<polygon fill="#ffffb3" stroke="transparent" points="820,-10 820,-30 840,-30 840,-10 820,-10"/>
<text text-anchor="start" x="843.629" y="-15.4" font-family="sans-serif" font-size="14.00" fill="#000000"> &#160;Declarations</text>
<polygon fill="#8dd3c7" stroke="transparent" points="933,-10 933,-30 953,-30 953,-10 933,-10"/>
<text text-anchor="start" x="956.7251" y="-15.4" font-family="sans-serif" font-size="14.00" fill="#000000"> &#160;Module</text>
<polygon fill="#80b1d3" stroke="transparent" points="1019,-10 1019,-30 1039,-30 1039,-10 1019,-10"/>
<text text-anchor="start" x="1042.7812" y="-15.4" font-family="sans-serif" font-size="14.00" fill="#000000"> &#160;Bootstrap</text>
<polygon fill="#fdb462" stroke="transparent" points="1116,-10 1116,-30 1136,-30 1136,-10 1116,-10"/>
<text text-anchor="start" x="1139.6732" y="-15.4" font-family="sans-serif" font-size="14.00" fill="#000000"> &#160;Providers</text>
<polygon fill="#fb8072" stroke="transparent" points="1212,-10 1212,-30 1232,-30 1232,-10 1212,-10"/>
<text text-anchor="start" x="1235.7258" y="-15.4" font-family="sans-serif" font-size="14.00" fill="#000000"> &#160;Exports</text>
<g id="clust1" class="cluster">
<title>cluster_CoreModule</title>
<polygon fill="none" stroke="#000000" stroke-dasharray="1,5" points="8,-70 8,-195 2100,-195 2100,-70 8,-70"/>
</g>
<g id="clust6" class="cluster">
<title>cluster_CoreModule_providers</title>
<polygon fill="none" stroke="#000000" points="16,-78 16,-130 2092,-130 2092,-78 16,-78"/>
</g>
<!-- AuthService -->
<g id="node1" class="node">
<title>AuthService</title>
<ellipse fill="#fdb462" stroke="#000000" cx="2025" cy="-104" rx="59.1083" ry="18"/>
<text text-anchor="middle" x="2025" y="-99.8" font-family="Times,serif" font-size="14.00" fill="#000000">AuthService</text>
</g>
<!-- CoreModule -->
<g id="node12" class="node">
<title>CoreModule</title>
<polygon fill="#8dd3c7" stroke="#000000" points="1133.2619,-187 1130.2619,-191 1109.2619,-191 1106.2619,-187 1046.7381,-187 1046.7381,-151 1133.2619,-151 1133.2619,-187"/>
<text text-anchor="middle" x="1090" y="-164.8" font-family="Times,serif" font-size="14.00" fill="#000000">CoreModule</text>
</g>
<!-- AuthService&#45;&gt;CoreModule -->
<g id="edge1" class="edge">
<title>AuthService&#45;&gt;CoreModule</title>
<path fill="none" stroke="#000000" d="M2025,-122.0908C2025,-145.1328 2025,-182 2025,-182 2025,-182 1143.5319,-182 1143.5319,-182"/>
<polygon fill="#000000" stroke="#000000" points="1143.5319,-178.5001 1133.5319,-182 1143.5318,-185.5001 1143.5319,-178.5001"/>
</g>
<!-- CanActivateViaAuthGuard -->
<g id="node2" class="node">
<title>CanActivateViaAuthGuard</title>
<ellipse fill="#fdb462" stroke="#000000" cx="1831" cy="-104" rx="116.8731" ry="18"/>
<text text-anchor="middle" x="1831" y="-99.8" font-family="Times,serif" font-size="14.00" fill="#000000">CanActivateViaAuthGuard</text>
</g>
<!-- CanActivateViaAuthGuard&#45;&gt;CoreModule -->
<g id="edge2" class="edge">
<title>CanActivateViaAuthGuard&#45;&gt;CoreModule</title>
<path fill="none" stroke="#000000" d="M1831,-122.2843C1831,-143.3211 1831,-175 1831,-175 1831,-175 1143.314,-175 1143.314,-175"/>
<polygon fill="#000000" stroke="#000000" points="1143.314,-171.5001 1133.314,-175 1143.3139,-178.5001 1143.314,-171.5001"/>
</g>
<!-- CheckoutService -->
<g id="node3" class="node">
<title>CheckoutService</title>
<ellipse fill="#fdb462" stroke="#000000" cx="1619" cy="-104" rx="77.0062" ry="18"/>
<text text-anchor="middle" x="1619" y="-99.8" font-family="Times,serif" font-size="14.00" fill="#000000">CheckoutService</text>
</g>
<!-- CheckoutService&#45;&gt;CoreModule -->
<g id="edge3" class="edge">
<title>CheckoutService&#45;&gt;CoreModule</title>
<path fill="none" stroke="#000000" d="M1619,-122.1061C1619,-141.3391 1619,-169 1619,-169 1619,-169 1143.2903,-169 1143.2903,-169"/>
<polygon fill="#000000" stroke="#000000" points="1143.2903,-165.5001 1133.2903,-169 1143.2903,-172.5001 1143.2903,-165.5001"/>
</g>
<!-- ProductService -->
<g id="node4" class="node">
<title>ProductService</title>
<ellipse fill="#fdb462" stroke="#000000" cx="1454" cy="-104" rx="70.0616" ry="18"/>
<text text-anchor="middle" x="1454" y="-99.8" font-family="Times,serif" font-size="14.00" fill="#000000">ProductService</text>
</g>
<!-- ProductService&#45;&gt;CoreModule -->
<g id="edge4" class="edge">
<title>ProductService&#45;&gt;CoreModule</title>
<path fill="none" stroke="#000000" d="M1454,-122.0225C1454,-139.3734 1454,-163 1454,-163 1454,-163 1143.5454,-163 1143.5454,-163"/>
<polygon fill="#000000" stroke="#000000" points="1143.5454,-159.5001 1133.5454,-163 1143.5453,-166.5001 1143.5454,-159.5001"/>
</g>
<!-- ResponseInterceptor -->
<g id="node5" class="node">
<title>ResponseInterceptor</title>
<ellipse fill="#fdb462" stroke="#000000" cx="1276" cy="-104" rx="90.3082" ry="18"/>
<text text-anchor="middle" x="1276" y="-99.8" font-family="Times,serif" font-size="14.00" fill="#000000">ResponseInterceptor</text>
</g>
<!-- ResponseInterceptor&#45;&gt;CoreModule -->
<g id="edge5" class="edge">
<title>ResponseInterceptor&#45;&gt;CoreModule</title>
<path fill="none" stroke="#000000" d="M1276,-122.2396C1276,-137.5706 1276,-157 1276,-157 1276,-157 1143.6087,-157 1143.6087,-157"/>
<polygon fill="#000000" stroke="#000000" points="1143.6088,-153.5001 1133.6087,-157 1143.6087,-160.5001 1143.6088,-153.5001"/>
</g>
<!-- TokenInterceptor -->
<g id="node6" class="node">
<title>TokenInterceptor</title>
<ellipse fill="#fdb462" stroke="#000000" cx="1090" cy="-104" rx="78.1308" ry="18"/>
<text text-anchor="middle" x="1090" y="-99.8" font-family="Times,serif" font-size="14.00" fill="#000000">TokenInterceptor</text>
</g>
<!-- TokenInterceptor&#45;&gt;CoreModule -->
<g id="edge6" class="edge">
<title>TokenInterceptor&#45;&gt;CoreModule</title>
<path fill="none" stroke="#000000" d="M1090,-122.1061C1090,-122.1061 1090,-140.991 1090,-140.991"/>
<polygon fill="#000000" stroke="#000000" points="1086.5001,-140.9909 1090,-150.991 1093.5001,-140.991 1086.5001,-140.9909"/>
</g>
<!-- TransferStateInterceptor -->
<g id="node7" class="node">
<title>TransferStateInterceptor</title>
<ellipse fill="#fdb462" stroke="#000000" cx="889" cy="-104" rx="105.3084" ry="18"/>
<text text-anchor="middle" x="889" y="-99.8" font-family="Times,serif" font-size="14.00" fill="#000000">TransferStateInterceptor</text>
</g>
<!-- TransferStateInterceptor&#45;&gt;CoreModule -->
<g id="edge7" class="edge">
<title>TransferStateInterceptor&#45;&gt;CoreModule</title>
<path fill="none" stroke="#000000" d="M889,-122.2396C889,-137.5706 889,-157 889,-157 889,-157 1036.386,-157 1036.386,-157"/>
<polygon fill="#000000" stroke="#000000" points="1036.386,-160.5001 1046.386,-157 1036.386,-153.5001 1036.386,-160.5001"/>
</g>
<!-- TransferStateService -->
<g id="node8" class="node">
<title>TransferStateService</title>
<ellipse fill="#fdb462" stroke="#000000" cx="674" cy="-104" rx="92.0045" ry="18"/>
<text text-anchor="middle" x="674" y="-99.8" font-family="Times,serif" font-size="14.00" fill="#000000">TransferStateService</text>
</g>
<!-- TransferStateService&#45;&gt;CoreModule -->
<g id="edge8" class="edge">
<title>TransferStateService&#45;&gt;CoreModule</title>
<path fill="none" stroke="#000000" d="M674,-122.0225C674,-139.3734 674,-163 674,-163 674,-163 1036.658,-163 1036.658,-163"/>
<polygon fill="#000000" stroke="#000000" points="1036.658,-166.5001 1046.658,-163 1036.6579,-159.5001 1036.658,-166.5001"/>
</g>
<!-- UserService -->
<g id="node9" class="node">
<title>UserService</title>
<ellipse fill="#fdb462" stroke="#000000" cx="506" cy="-104" rx="58.4415" ry="18"/>
<text text-anchor="middle" x="506" y="-99.8" font-family="Times,serif" font-size="14.00" fill="#000000">UserService</text>
</g>
<!-- UserService&#45;&gt;CoreModule -->
<g id="edge9" class="edge">
<title>UserService&#45;&gt;CoreModule</title>
<path fill="none" stroke="#000000" d="M506,-122.1061C506,-141.3391 506,-169 506,-169 506,-169 1036.5822,-169 1036.5822,-169"/>
<polygon fill="#000000" stroke="#000000" points="1036.5822,-172.5001 1046.5822,-169 1036.5822,-165.5001 1036.5822,-172.5001"/>
</g>
<!-- VariantParserService -->
<g id="node10" class="node">
<title>VariantParserService</title>
<ellipse fill="#fdb462" stroke="#000000" cx="337" cy="-104" rx="93.1484" ry="18"/>
<text text-anchor="middle" x="337" y="-99.8" font-family="Times,serif" font-size="14.00" fill="#000000">VariantParserService</text>
</g>
<!-- VariantParserService&#45;&gt;CoreModule -->
<g id="edge10" class="edge">
<title>VariantParserService&#45;&gt;CoreModule</title>
<path fill="none" stroke="#000000" d="M337,-122.2843C337,-143.3211 337,-175 337,-175 337,-175 1036.5362,-175 1036.5362,-175"/>
<polygon fill="#000000" stroke="#000000" points="1036.5363,-178.5001 1046.5362,-175 1036.5362,-171.5001 1036.5363,-178.5001"/>
</g>
<!-- VariantRetriverService -->
<g id="node11" class="node">
<title>VariantRetriverService</title>
<ellipse fill="#fdb462" stroke="#000000" cx="125" cy="-104" rx="100.6727" ry="18"/>
<text text-anchor="middle" x="125" y="-99.8" font-family="Times,serif" font-size="14.00" fill="#000000">VariantRetriverService</text>
</g>
<!-- VariantRetriverService&#45;&gt;CoreModule -->
<g id="edge11" class="edge">
<title>VariantRetriverService&#45;&gt;CoreModule</title>
<path fill="none" stroke="#000000" d="M125,-122.0908C125,-145.1328 125,-182 125,-182 125,-182 1036.6613,-182 1036.6613,-182"/>
<polygon fill="#000000" stroke="#000000" points="1036.6613,-185.5001 1046.6613,-182 1036.6612,-178.5001 1036.6613,-185.5001"/>
</g>
</g>
</svg>
