<?xml version="1.0" encoding="UTF-8" standalone="no"?>
<!DOCTYPE svg PUBLIC "-//W3C//DTD SVG 1.1//EN"
 "http://www.w3.org/Graphics/SVG/1.1/DTD/svg11.dtd">
<!-- Generated by graphviz version 2.40.1 (20161225.0304)
 -->
<!-- Title: dependencies Pages: 1 -->
<svg width="2700pt" height="211pt"
 viewBox="0.00 0.00 2700.00 211.00" xmlns="http://www.w3.org/2000/svg" xmlns:xlink="http://www.w3.org/1999/xlink">
<g id="graph0" class="graph" transform="scale(1 1) rotate(0) translate(4 207)">
<title>dependencies</title>
<polygon fill="#ffffff" stroke="transparent" points="-4,4 -4,-207 2696,-207 2696,4 -4,4"/>
<text text-anchor="start" x="1325.0091" y="-42.4" font-family="sans-serif" font-weight="bold" font-size="14.00" fill="#000000">Legend</text>
<polygon fill="#ffffb3" stroke="transparent" points="1112,-10 1112,-30 1132,-30 1132,-10 1112,-10"/>
<text text-anchor="start" x="1135.629" y="-15.4" font-family="sans-serif" font-size="14.00" fill="#000000"> &#160;Declarations</text>
<polygon fill="#8dd3c7" stroke="transparent" points="1225,-10 1225,-30 1245,-30 1245,-10 1225,-10"/>
<text text-anchor="start" x="1248.7251" y="-15.4" font-family="sans-serif" font-size="14.00" fill="#000000"> &#160;Module</text>
<polygon fill="#80b1d3" stroke="transparent" points="1311,-10 1311,-30 1331,-30 1331,-10 1311,-10"/>
<text text-anchor="start" x="1334.7812" y="-15.4" font-family="sans-serif" font-size="14.00" fill="#000000"> &#160;Bootstrap</text>
<polygon fill="#fdb462" stroke="transparent" points="1408,-10 1408,-30 1428,-30 1428,-10 1408,-10"/>
<text text-anchor="start" x="1431.6732" y="-15.4" font-family="sans-serif" font-size="14.00" fill="#000000"> &#160;Providers</text>
<polygon fill="#fb8072" stroke="transparent" points="1504,-10 1504,-30 1524,-30 1524,-10 1504,-10"/>
<text text-anchor="start" x="1527.7258" y="-15.4" font-family="sans-serif" font-size="14.00" fill="#000000"> &#160;Exports</text>
<g id="clust1" class="cluster">
<title>cluster_CoreModule</title>
<polygon fill="none" stroke="#000000" stroke-dasharray="1,5" points="8,-70 8,-195 2684,-195 2684,-70 8,-70"/>
</g>
<g id="clust3" class="cluster">
<title>cluster_CoreModule_imports</title>
<polygon fill="none" stroke="#000000" points="2506,-78 2506,-130 2676,-130 2676,-78 2506,-78"/>
</g>
<g id="clust6" class="cluster">
<title>cluster_CoreModule_providers</title>
<polygon fill="none" stroke="#000000" points="16,-78 16,-130 2498,-130 2498,-78 16,-78"/>
</g>
<!-- EffectsModule.run(args) -->
<g id="node1" class="node">
<title>EffectsModule.run(args)</title>
<polygon fill="#8dd3c7" stroke="#000000" points="2667.9896,-122 2664.9896,-126 2643.9896,-126 2640.9896,-122 2514.0104,-122 2514.0104,-86 2667.9896,-86 2667.9896,-122"/>
<text text-anchor="middle" x="2591" y="-99.8" font-family="Times,serif" font-size="14.00" fill="#000000">EffectsModule.run(args)</text>
</g>
<!-- CoreModule -->
<g id="node2" class="node">
<title>CoreModule</title>
<polygon fill="#8dd3c7" stroke="#000000" points="1602.2619,-187 1599.2619,-191 1578.2619,-191 1575.2619,-187 1515.7381,-187 1515.7381,-151 1602.2619,-151 1602.2619,-187"/>
<text text-anchor="middle" x="1559" y="-164.8" font-family="Times,serif" font-size="14.00" fill="#000000">CoreModule</text>
</g>
<!-- EffectsModule.run(args)&#45;&gt;CoreModule -->
<g id="edge1" class="edge">
<title>EffectsModule.run(args)&#45;&gt;CoreModule</title>
<path fill="none" stroke="#000000" d="M2606.399,-122.2921C2606.399,-144.2057 2606.399,-178 2606.399,-178 2606.399,-178 1612.3414,-178 1612.3414,-178"/>
<polygon fill="#000000" stroke="#000000" points="1612.3414,-174.5001 1602.3414,-178 1612.3414,-181.5001 1612.3414,-174.5001"/>
</g>
<!-- EffectsModule.run(args)&#45;&gt;CoreModule -->
<g id="edge2" class="edge">
<title>EffectsModule.run(args)&#45;&gt;CoreModule</title>
<path fill="none" stroke="#000000" d="M2575.601,-122.0267C2575.601,-142.7672 2575.601,-174 2575.601,-174 2575.601,-174 1612.3569,-174 1612.3569,-174"/>
<polygon fill="#000000" stroke="#000000" points="1612.3569,-170.5001 1602.3569,-174 1612.3568,-177.5001 1612.3569,-170.5001"/>
</g>
<!-- EffectsModule.run(args)&#45;&gt;CoreModule -->
<g id="edge3" class="edge">
<title>EffectsModule.run(args)&#45;&gt;CoreModule</title>
<path fill="none" stroke="#000000" d="M2637.1969,-122.3228C2637.1969,-145.6602 2637.1969,-183 2637.1969,-183 2637.1969,-183 1612.2664,-183 1612.2664,-183"/>
<polygon fill="#000000" stroke="#000000" points="1612.2664,-179.5001 1602.2664,-183 1612.2663,-186.5001 1612.2664,-179.5001"/>
</g>
<!-- EffectsModule.run(args)&#45;&gt;CoreModule -->
<g id="edge4" class="edge">
<title>EffectsModule.run(args)&#45;&gt;CoreModule</title>
<path fill="none" stroke="#000000" d="M2544.8031,-122.1061C2544.8031,-141.3391 2544.8031,-169 2544.8031,-169 2544.8031,-169 1612.3111,-169 1612.3111,-169"/>
<polygon fill="#000000" stroke="#000000" points="1612.3112,-165.5001 1602.3111,-169 1612.3111,-172.5001 1612.3112,-165.5001"/>
</g>
<!-- VariantParserService -->
<g id="node3" class="node">
<title>VariantParserService</title>
<ellipse fill="#fdb462" stroke="#000000" cx="2397" cy="-104" rx="93.1484" ry="18"/>
<text text-anchor="middle" x="2397" y="-99.8" font-family="Times,serif" font-size="14.00" fill="#000000">VariantParserService</text>
</g>
<!-- VariantParserService&#45;&gt;CoreModule -->
<g id="edge5" class="edge">
<title>VariantParserService&#45;&gt;CoreModule</title>
<path fill="none" stroke="#000000" d="M2397,-122.302C2397,-140.2699 2397,-165 2397,-165 2397,-165 1612.2899,-165 1612.2899,-165"/>
<polygon fill="#000000" stroke="#000000" points="1612.2899,-161.5001 1602.2899,-165 1612.2899,-168.5001 1612.2899,-161.5001"/>
</g>
<!-- VariantRetriverService -->
<g id="node4" class="node">
<title>VariantRetriverService</title>
<ellipse fill="#fdb462" stroke="#000000" cx="2185" cy="-104" rx="100.6727" ry="18"/>
<text text-anchor="middle" x="2185" y="-99.8" font-family="Times,serif" font-size="14.00" fill="#000000">VariantRetriverService</text>
</g>
<!-- VariantRetriverService&#45;&gt;CoreModule -->
<g id="edge6" class="edge">
<title>VariantRetriverService&#45;&gt;CoreModule</title>
<path fill="none" stroke="#000000" d="M2185,-122.027C2185,-138.3976 2185,-160 2185,-160 2185,-160 1612.5221,-160 1612.5221,-160"/>
<polygon fill="#000000" stroke="#000000" points="1612.5221,-156.5001 1602.5221,-160 1612.5221,-163.5001 1612.5221,-156.5001"/>
</g>
<!-- AuthService -->
<g id="node5" class="node">
<title>AuthService</title>
<ellipse fill="#fdb462" stroke="#000000" cx="2007" cy="-104" rx="59.1083" ry="18"/>
<text text-anchor="middle" x="2007" y="-99.8" font-family="Times,serif" font-size="14.00" fill="#000000">AuthService</text>
</g>
<!-- AuthService&#45;&gt;CoreModule -->
<g id="edge7" class="edge">
<title>AuthService&#45;&gt;CoreModule</title>
<path fill="none" stroke="#000000" d="M2007,-122.1871C2007,-137.1824 2007,-156 2007,-156 2007,-156 1612.3632,-156 1612.3632,-156"/>
<polygon fill="#000000" stroke="#000000" points="1612.3632,-152.5001 1602.3632,-156 1612.3631,-159.5001 1612.3632,-152.5001"/>
</g>
<!-- { provide: HttpService, useFactory: httpInterceptor, deps: [XHRBackend, RequestOptions] } -->
<g id="node6" class="node">
<title>{ provide: HttpService, useFactory: httpInterceptor, deps: [XHRBackend, RequestOptions] }</title>
<ellipse fill="#fdb462" stroke="#000000" cx="1559" cy="-104" rx="370.0421" ry="18"/>
<text text-anchor="middle" x="1559" y="-99.8" font-family="Times,serif" font-size="14.00" fill="#000000">{ provide: HttpService, useFactory: httpInterceptor, deps: [XHRBackend, RequestOptions] }</text>
</g>
<!-- { provide: HttpService, useFactory: httpInterceptor, deps: [XHRBackend, RequestOptions] }&#45;&gt;CoreModule -->
<g id="edge8" class="edge">
<title>{ provide: HttpService, useFactory: httpInterceptor, deps: [XHRBackend, RequestOptions] }&#45;&gt;CoreModule</title>
<path fill="none" stroke="#000000" d="M1559,-122.1061C1559,-122.1061 1559,-140.991 1559,-140.991"/>
<polygon fill="#000000" stroke="#000000" points="1555.5001,-140.9909 1559,-150.991 1562.5001,-140.991 1555.5001,-140.9909"/>
</g>
<!-- CheckoutService -->
<g id="node7" class="node">
<title>CheckoutService</title>
<ellipse fill="#fdb462" stroke="#000000" cx="1094" cy="-104" rx="77.0062" ry="18"/>
<text text-anchor="middle" x="1094" y="-99.8" font-family="Times,serif" font-size="14.00" fill="#000000">CheckoutService</text>
</g>
<!-- CheckoutService&#45;&gt;CoreModule -->
<g id="edge9" class="edge">
<title>CheckoutService&#45;&gt;CoreModule</title>
<path fill="none" stroke="#000000" d="M1094,-122.1871C1094,-137.1824 1094,-156 1094,-156 1094,-156 1505.6715,-156 1505.6715,-156"/>
<polygon fill="#000000" stroke="#000000" points="1505.6715,-159.5001 1515.6715,-156 1505.6715,-152.5001 1505.6715,-159.5001"/>
</g>
<!-- ProductService -->
<g id="node8" class="node">
<title>ProductService</title>
<ellipse fill="#fdb462" stroke="#000000" cx="929" cy="-104" rx="70.0616" ry="18"/>
<text text-anchor="middle" x="929" y="-99.8" font-family="Times,serif" font-size="14.00" fill="#000000">ProductService</text>
</g>
<!-- ProductService&#45;&gt;CoreModule -->
<g id="edge10" class="edge">
<title>ProductService&#45;&gt;CoreModule</title>
<path fill="none" stroke="#000000" d="M929,-122.027C929,-138.3976 929,-160 929,-160 929,-160 1505.6975,-160 1505.6975,-160"/>
<polygon fill="#000000" stroke="#000000" points="1505.6976,-163.5001 1515.6975,-160 1505.6975,-156.5001 1505.6976,-163.5001"/>
</g>
<!-- AuthActions -->
<g id="node9" class="node">
<title>AuthActions</title>
<ellipse fill="#fdb462" stroke="#000000" cx="781" cy="-104" rx="60.273" ry="18"/>
<text text-anchor="middle" x="781" y="-99.8" font-family="Times,serif" font-size="14.00" fill="#000000">AuthActions</text>
</g>
<!-- AuthActions&#45;&gt;CoreModule -->
<g id="edge11" class="edge">
<title>AuthActions&#45;&gt;CoreModule</title>
<path fill="none" stroke="#000000" d="M781,-122.302C781,-140.2699 781,-165 781,-165 781,-165 1505.5043,-165 1505.5043,-165"/>
<polygon fill="#000000" stroke="#000000" points="1505.5043,-168.5001 1515.5043,-165 1505.5042,-161.5001 1505.5043,-168.5001"/>
</g>
<!-- CheckoutActions -->
<g id="node10" class="node">
<title>CheckoutActions</title>
<ellipse fill="#fdb462" stroke="#000000" cx="625" cy="-104" rx="78.1714" ry="18"/>
<text text-anchor="middle" x="625" y="-99.8" font-family="Times,serif" font-size="14.00" fill="#000000">CheckoutActions</text>
</g>
<!-- CheckoutActions&#45;&gt;CoreModule -->
<g id="edge12" class="edge">
<title>CheckoutActions&#45;&gt;CoreModule</title>
<path fill="none" stroke="#000000" d="M625,-122.1061C625,-141.3391 625,-169 625,-169 625,-169 1505.5147,-169 1505.5147,-169"/>
<polygon fill="#000000" stroke="#000000" points="1505.5147,-172.5001 1515.5147,-169 1505.5147,-165.5001 1505.5147,-172.5001"/>
</g>
<!-- UserActions -->
<g id="node11" class="node">
<title>UserActions</title>
<ellipse fill="#fdb462" stroke="#000000" cx="470" cy="-104" rx="59.1064" ry="18"/>
<text text-anchor="middle" x="470" y="-99.8" font-family="Times,serif" font-size="14.00" fill="#000000">UserActions</text>
</g>
<!-- UserActions&#45;&gt;CoreModule -->
<g id="edge13" class="edge">
<title>UserActions&#45;&gt;CoreModule</title>
<path fill="none" stroke="#000000" d="M470,-122.0267C470,-142.7672 470,-174 470,-174 470,-174 1505.6379,-174 1505.6379,-174"/>
<polygon fill="#000000" stroke="#000000" points="1505.6379,-177.5001 1515.6379,-174 1505.6379,-170.5001 1505.6379,-177.5001"/>
</g>
<!-- UserService -->
<g id="node12" class="node">
<title>UserService</title>
<ellipse fill="#fdb462" stroke="#000000" cx="334" cy="-104" rx="58.4415" ry="18"/>
<text text-anchor="middle" x="334" y="-99.8" font-family="Times,serif" font-size="14.00" fill="#000000">UserService</text>
</g>
<!-- UserService&#45;&gt;CoreModule -->
<g id="edge14" class="edge">
<title>UserService&#45;&gt;CoreModule</title>
<path fill="none" stroke="#000000" d="M334,-122.2921C334,-144.2057 334,-178 334,-178 334,-178 1505.4016,-178 1505.4016,-178"/>
<polygon fill="#000000" stroke="#000000" points="1505.4016,-181.5001 1515.4016,-178 1505.4016,-174.5001 1505.4016,-181.5001"/>
</g>
<!-- CanActivateViaAuthGuard -->
<g id="node13" class="node">
<title>CanActivateViaAuthGuard</title>
<ellipse fill="#fdb462" stroke="#000000" cx="141" cy="-104" rx="116.8731" ry="18"/>
<text text-anchor="middle" x="141" y="-99.8" font-family="Times,serif" font-size="14.00" fill="#000000">CanActivateViaAuthGuard</text>
</g>
<!-- CanActivateViaAuthGuard&#45;&gt;CoreModule -->
<g id="edge15" class="edge">
<title>CanActivateViaAuthGuard&#45;&gt;CoreModule</title>
<path fill="none" stroke="#000000" d="M141,-122.3228C141,-145.6602 141,-183 141,-183 141,-183 1505.3983,-183 1505.3983,-183"/>
<polygon fill="#000000" stroke="#000000" points="1505.3983,-186.5001 1515.3983,-183 1505.3983,-179.5001 1505.3983,-186.5001"/>
</g>
</g>
</svg>
