<?xml version="1.0" encoding="UTF-8" standalone="no"?>
<!DOCTYPE svg PUBLIC "-//W3C//DTD SVG 1.1//EN"
 "http://www.w3.org/Graphics/SVG/1.1/DTD/svg11.dtd">
<!-- Generated by graphviz version 2.40.1 (20161225.0304)
 -->
<!-- Title: dependencies Pages: 1 -->
<svg width="3825pt" height="502pt"
 viewBox="0.00 0.00 3825.00 502.00" xmlns="http://www.w3.org/2000/svg" xmlns:xlink="http://www.w3.org/1999/xlink">
<g id="graph0" class="graph" transform="scale(1 1) rotate(0) translate(4 498)">
<title>dependencies</title>
<polygon fill="#ffffff" stroke="transparent" points="-4,4 -4,-498 3821,-498 3821,4 -4,4"/>
<text text-anchor="start" x="1887.5091" y="-42.4" font-family="sans-serif" font-weight="bold" font-size="14.00" fill="#000000">Legend</text>
<polygon fill="#ffffb3" stroke="transparent" points="1674.5,-10 1674.5,-30 1694.5,-30 1694.5,-10 1674.5,-10"/>
<text text-anchor="start" x="1698.129" y="-15.4" font-family="sans-serif" font-size="14.00" fill="#000000"> &#160;Declarations</text>
<polygon fill="#8dd3c7" stroke="transparent" points="1787.5,-10 1787.5,-30 1807.5,-30 1807.5,-10 1787.5,-10"/>
<text text-anchor="start" x="1811.2251" y="-15.4" font-family="sans-serif" font-size="14.00" fill="#000000"> &#160;Module</text>
<polygon fill="#80b1d3" stroke="transparent" points="1873.5,-10 1873.5,-30 1893.5,-30 1893.5,-10 1873.5,-10"/>
<text text-anchor="start" x="1897.2812" y="-15.4" font-family="sans-serif" font-size="14.00" fill="#000000"> &#160;Bootstrap</text>
<polygon fill="#fdb462" stroke="transparent" points="1970.5,-10 1970.5,-30 1990.5,-30 1990.5,-10 1970.5,-10"/>
<text text-anchor="start" x="1994.1732" y="-15.4" font-family="sans-serif" font-size="14.00" fill="#000000"> &#160;Providers</text>
<polygon fill="#fb8072" stroke="transparent" points="2066.5,-10 2066.5,-30 2086.5,-30 2086.5,-10 2066.5,-10"/>
<text text-anchor="start" x="2090.2258" y="-15.4" font-family="sans-serif" font-size="14.00" fill="#000000"> &#160;Exports</text>
<g id="clust1" class="cluster">
<title>cluster_AddressModule</title>
<polygon fill="none" stroke="#000000" stroke-dasharray="1,5" points="504,-70 504,-198 1040,-198 1040,-70 504,-70"/>
</g>
<g id="clust3" class="cluster">
<title>cluster_AddressModule_imports</title>
<polygon fill="none" stroke="#000000" points="512,-78 512,-130 1032,-130 1032,-78 512,-78"/>
</g>
<g id="clust7" class="cluster">
<title>cluster_AppModule</title>
<polygon fill="none" stroke="#000000" stroke-dasharray="1,5" points="1368,-206 1368,-486 2241,-486 2241,-206 1368,-206"/>
</g>
<g id="clust9" class="cluster">
<title>cluster_AppModule_imports</title>
<polygon fill="none" stroke="#000000" points="1376,-214 1376,-334 2233,-334 2233,-214 1376,-214"/>
</g>
<g id="clust11" class="cluster">
<title>cluster_AppModule_bootstrap</title>
<polygon fill="none" stroke="#000000" points="1672,-426 1672,-478 1796,-478 1796,-426 1672,-426"/>
</g>
<g id="clust13" class="cluster">
<title>cluster_AuthModule</title>
<polygon fill="none" stroke="#000000" stroke-dasharray="1,5" points="3595,-206 3595,-334 3809,-334 3809,-206 3595,-206"/>
</g>
<g id="clust15" class="cluster">
<title>cluster_AuthModule_imports</title>
<polygon fill="none" stroke="#000000" points="3603,-214 3603,-266 3801,-266 3801,-214 3603,-214"/>
</g>
<g id="clust19" class="cluster">
<title>cluster_CartModule</title>
<polygon fill="none" stroke="#000000" stroke-dasharray="1,5" points="396,-146 396,-198 496,-198 496,-146 396,-146"/>
</g>
<g id="clust25" class="cluster">
<title>cluster_CheckoutModule</title>
<polygon fill="none" stroke="#000000" stroke-dasharray="1,5" points="1048,-138 1048,-266 1360,-266 1360,-138 1048,-138"/>
</g>
<g id="clust27" class="cluster">
<title>cluster_CheckoutModule_imports</title>
<polygon fill="none" stroke="#000000" points="1056,-146 1056,-198 1352,-198 1352,-146 1056,-146"/>
</g>
<g id="clust43" class="cluster">
<title>cluster_LayoutModule</title>
<polygon fill="none" stroke="#000000" stroke-dasharray="1,5" points="1063,-350 1063,-418 1360,-418 1360,-350 1063,-350"/>
</g>
<g id="clust46" class="cluster">
<title>cluster_LayoutModule_exports</title>
<polygon fill="none" stroke="#000000" points="1071,-358 1071,-410 1352,-410 1352,-358 1071,-358"/>
</g>
<g id="clust55" class="cluster">
<title>cluster_ProductModule</title>
<polygon fill="none" stroke="#000000" stroke-dasharray="1,5" points="2389,-282 2389,-418 3587,-418 3587,-282 2389,-282"/>
</g>
<g id="clust58" class="cluster">
<title>cluster_ProductModule_exports</title>
<polygon fill="none" stroke="#000000" points="2397,-358 2397,-410 3579,-410 3579,-358 2397,-358"/>
</g>
<g id="clust61" class="cluster">
<title>cluster_SharedModule</title>
<polygon fill="none" stroke="#000000" stroke-dasharray="1,5" points="8,-274 8,-342 1360,-342 1360,-274 8,-274"/>
</g>
<g id="clust63" class="cluster">
<title>cluster_SharedModule_imports</title>
<polygon fill="none" stroke="#000000" points="1160,-282 1160,-334 1352,-334 1352,-282 1160,-282"/>
</g>
<g id="clust64" class="cluster">
<title>cluster_SharedModule_exports</title>
<polygon fill="none" stroke="#000000" points="16,-282 16,-334 1152,-334 1152,-282 16,-282"/>
</g>
<g id="clust67" class="cluster">
<title>cluster_UserModule</title>
<polygon fill="none" stroke="#000000" stroke-dasharray="1,5" points="2249,-282 2249,-334 2351,-334 2351,-282 2249,-282"/>
</g>
<!-- RouterModule -->
<g id="node1" class="node">
<title>RouterModule</title>
<polygon fill="#8dd3c7" stroke="#000000" points="617.6528,-122 614.6528,-126 593.6528,-126 590.6528,-122 520.3472,-122 520.3472,-86 617.6528,-86 617.6528,-122"/>
<text text-anchor="middle" x="569" y="-99.8" font-family="Times,serif" font-size="14.00" fill="#000000">RouterModule</text>
</g>
<!-- AddressModule -->
<g id="node5" class="node">
<title>AddressModule</title>
<polygon fill="#8dd3c7" stroke="#000000" points="890.9216,-190 887.9216,-194 866.9216,-194 863.9216,-190 785.0784,-190 785.0784,-154 890.9216,-154 890.9216,-190"/>
<text text-anchor="middle" x="838" y="-167.8" font-family="Times,serif" font-size="14.00" fill="#000000">AddressModule</text>
</g>
<!-- RouterModule&#45;&gt;AddressModule -->
<g id="edge1" class="edge">
<title>RouterModule&#45;&gt;AddressModule</title>
<path fill="none" stroke="#000000" d="M595.3797,-122.1061C595.3797,-141.3391 595.3797,-169 595.3797,-169 595.3797,-169 775.0557,-169 775.0557,-169"/>
<polygon fill="#000000" stroke="#000000" points="775.0558,-172.5001 785.0557,-169 775.0557,-165.5001 775.0558,-172.5001"/>
</g>
<!-- LayoutModule -->
<g id="node11" class="node">
<title>LayoutModule</title>
<polygon fill="#8dd3c7" stroke="#000000" points="1872.7078,-326 1869.7078,-330 1848.7078,-330 1845.7078,-326 1773.2922,-326 1773.2922,-290 1872.7078,-290 1872.7078,-326"/>
<text text-anchor="middle" x="1823" y="-303.8" font-family="Times,serif" font-size="14.00" fill="#000000">LayoutModule</text>
</g>
<!-- RouterModule&#45;&gt;LayoutModule -->
<g id="edge33" class="edge">
<title>RouterModule&#45;&gt;LayoutModule</title>
<path fill="none" stroke="#000000" d="M550.4868,-122.3153C550.4868,-168.856 550.4868,-288 550.4868,-288 550.4868,-288 1778.0335,-288 1778.0335,-288 1778.0335,-288 1778.0335,-288.1846 1778.0335,-288.1846"/>
<polygon fill="#000000" stroke="#000000" points="1774.5341,-279.8455 1778.0335,-289.8457 1781.5341,-279.8459 1774.5341,-279.8455"/>
</g>
<!-- CartModule -->
<g id="node18" class="node">
<title>CartModule</title>
<polygon fill="#8dd3c7" stroke="#000000" points="487.6529,-190 484.6529,-194 463.6529,-194 460.6529,-190 404.3471,-190 404.3471,-154 487.6529,-154 487.6529,-190"/>
<text text-anchor="middle" x="446" y="-167.8" font-family="Times,serif" font-size="14.00" fill="#000000">CartModule</text>
</g>
<!-- RouterModule&#45;&gt;CartModule -->
<g id="edge19" class="edge">
<title>RouterModule&#45;&gt;CartModule</title>
<path fill="none" stroke="#000000" d="M524.1071,-122.1686C524.1071,-143.498 524.1071,-176 524.1071,-176 524.1071,-176 497.7975,-176 497.7975,-176"/>
<polygon fill="#000000" stroke="#000000" points="497.7975,-172.5001 487.7975,-176 497.7975,-179.5001 497.7975,-172.5001"/>
</g>
<!-- PaymentModule -->
<g id="node20" class="node">
<title>PaymentModule</title>
<polygon fill="#8dd3c7" stroke="#000000" points="1172.0438,-190 1169.0438,-194 1148.0438,-194 1145.0438,-190 1063.9562,-190 1063.9562,-154 1172.0438,-154 1172.0438,-190"/>
<text text-anchor="middle" x="1118" y="-167.8" font-family="Times,serif" font-size="14.00" fill="#000000">PaymentModule</text>
</g>
<!-- RouterModule&#45;&gt;PaymentModule -->
<g id="edge36" class="edge">
<title>RouterModule&#45;&gt;PaymentModule</title>
<path fill="none" stroke="#000000" d="M572.9332,-122.1274C572.9332,-132.7109 572.9332,-144 572.9332,-144 572.9332,-144 1099.9095,-144 1099.9095,-144 1099.9095,-144 1099.9095,-144.9793 1099.9095,-144.9793"/>
<polygon fill="#000000" stroke="#000000" points="1096.4096,-143.793 1099.9095,-153.793 1103.4096,-143.7931 1096.4096,-143.793"/>
</g>
<!-- CommonModule -->
<g id="node2" class="node">
<title>CommonModule</title>
<polygon fill="#8dd3c7" stroke="#000000" points="747.6681,-122 744.6681,-126 723.6681,-126 720.6681,-122 636.3319,-122 636.3319,-86 747.6681,-86 747.6681,-122"/>
<text text-anchor="middle" x="692" y="-99.8" font-family="Times,serif" font-size="14.00" fill="#000000">CommonModule</text>
</g>
<!-- CommonModule&#45;&gt;AddressModule -->
<g id="edge2" class="edge">
<title>CommonModule&#45;&gt;AddressModule</title>
<path fill="none" stroke="#000000" d="M745.6498,-122.0336C745.6498,-139.0597 745.6498,-162 745.6498,-162 745.6498,-162 775.0825,-162 775.0825,-162"/>
<polygon fill="#000000" stroke="#000000" points="775.0825,-165.5001 785.0825,-162 775.0824,-158.5001 775.0825,-165.5001"/>
</g>
<!-- SharedModule -->
<g id="node13" class="node">
<title>SharedModule</title>
<polygon fill="#8dd3c7" stroke="#000000" points="1587.4231,-258 1584.4231,-262 1563.4231,-262 1560.4231,-258 1488.5769,-258 1488.5769,-222 1587.4231,-222 1587.4231,-258"/>
<text text-anchor="middle" x="1538" y="-235.8" font-family="Times,serif" font-size="14.00" fill="#000000">SharedModule</text>
</g>
<!-- CommonModule&#45;&gt;SharedModule -->
<g id="edge50" class="edge">
<title>CommonModule&#45;&gt;SharedModule</title>
<path fill="none" stroke="#000000" d="M733.2575,-122.3207C733.2575,-153.1336 733.2575,-212 733.2575,-212 733.2575,-212 1513.3945,-212 1513.3945,-212 1513.3945,-212 1513.3945,-212.9793 1513.3945,-212.9793"/>
<polygon fill="#000000" stroke="#000000" points="1509.8946,-211.793 1513.3945,-221.793 1516.8946,-211.7931 1509.8946,-211.793"/>
</g>
<!-- AuthModule -->
<g id="node17" class="node">
<title>AuthModule</title>
<polygon fill="#8dd3c7" stroke="#000000" points="3745.5482,-326 3742.5482,-330 3721.5482,-330 3718.5482,-326 3658.4518,-326 3658.4518,-290 3745.5482,-290 3745.5482,-326"/>
<text text-anchor="middle" x="3702" y="-303.8" font-family="Times,serif" font-size="14.00" fill="#000000">AuthModule</text>
</g>
<!-- CommonModule&#45;&gt;AuthModule -->
<g id="edge15" class="edge">
<title>CommonModule&#45;&gt;AuthModule</title>
<path fill="none" stroke="#000000" d="M727.4171,-122.2393C727.4171,-164.0035 727.4171,-263 727.4171,-263 727.4171,-263 3687.4088,-263 3687.4088,-263 3687.4088,-263 3687.4088,-279.9561 3687.4088,-279.9561"/>
<polygon fill="#000000" stroke="#000000" points="3683.9089,-279.956 3687.4088,-289.9561 3690.9089,-279.9561 3683.9089,-279.956"/>
</g>
<!-- CommonModule&#45;&gt;CartModule -->
<g id="edge18" class="edge">
<title>CommonModule&#45;&gt;CartModule</title>
<path fill="none" stroke="#000000" d="M642.2947,-122.3228C642.2947,-145.6602 642.2947,-183 642.2947,-183 642.2947,-183 498.1101,-183 498.1101,-183"/>
<polygon fill="#000000" stroke="#000000" points="498.1102,-179.5001 488.1101,-183 498.1101,-186.5001 498.1102,-179.5001"/>
</g>
<!-- CommonModule&#45;&gt;PaymentModule -->
<g id="edge37" class="edge">
<title>CommonModule&#45;&gt;PaymentModule</title>
<path fill="none" stroke="#000000" d="M743.4658,-122.2015C743.4658,-128.028 743.4658,-133 743.4658,-133 743.4658,-133 1136.0905,-133 1136.0905,-133 1136.0905,-133 1136.0905,-143.8701 1136.0905,-143.8701"/>
<polygon fill="#000000" stroke="#000000" points="1132.5906,-143.8701 1136.0905,-153.8701 1139.5906,-143.8701 1132.5906,-143.8701"/>
</g>
<!-- CheckoutModule -->
<g id="node21" class="node">
<title>CheckoutModule</title>
<polygon fill="#8dd3c7" stroke="#000000" points="1171.7064,-258 1168.7064,-262 1147.7064,-262 1144.7064,-258 1058.2936,-258 1058.2936,-222 1171.7064,-222 1171.7064,-258"/>
<text text-anchor="middle" x="1115" y="-235.8" font-family="Times,serif" font-size="14.00" fill="#000000">CheckoutModule</text>
</g>
<!-- CommonModule&#45;&gt;CheckoutModule -->
<g id="edge20" class="edge">
<title>CommonModule&#45;&gt;CheckoutModule</title>
<path fill="none" stroke="#000000" d="M741.2818,-122.0597C741.2818,-159.0544 741.2818,-240 741.2818,-240 741.2818,-240 1048.2402,-240 1048.2402,-240"/>
<polygon fill="#000000" stroke="#000000" points="1048.2403,-243.5001 1058.2402,-240 1048.2402,-236.5001 1048.2403,-243.5001"/>
</g>
<!-- FormsModule -->
<g id="node3" class="node">
<title>FormsModule</title>
<polygon fill="#8dd3c7" stroke="#000000" points="1023.8288,-122 1020.8288,-126 999.8288,-126 996.8288,-122 928.1712,-122 928.1712,-86 1023.8288,-86 1023.8288,-122"/>
<text text-anchor="middle" x="976" y="-99.8" font-family="Times,serif" font-size="14.00" fill="#000000">FormsModule</text>
</g>
<!-- FormsModule&#45;&gt;AddressModule -->
<g id="edge3" class="edge">
<title>FormsModule&#45;&gt;AddressModule</title>
<path fill="none" stroke="#000000" d="M978.388,-122.2228C978.388,-142.3652 978.388,-172 978.388,-172 978.388,-172 901.0747,-172 901.0747,-172"/>
<polygon fill="#000000" stroke="#000000" points="901.0747,-168.5001 891.0747,-172 901.0747,-175.5001 901.0747,-168.5001"/>
</g>
<!-- FormsModule&#45;&gt;SharedModule -->
<g id="edge48" class="edge">
<title>FormsModule&#45;&gt;SharedModule</title>
<path fill="none" stroke="#000000" d="M1024.0044,-98C1164.103,-98 1562.6056,-98 1562.6056,-98 1562.6056,-98 1562.6056,-211.7267 1562.6056,-211.7267"/>
<polygon fill="#000000" stroke="#000000" points="1559.1056,-211.7267 1562.6056,-221.7267 1566.1056,-211.7267 1559.1056,-211.7267"/>
</g>
<!-- AppModule -->
<g id="node14" class="node">
<title>AppModule</title>
<polygon fill="#8dd3c7" stroke="#000000" points="1775.6571,-402 1772.6571,-406 1751.6571,-406 1748.6571,-402 1692.3429,-402 1692.3429,-366 1775.6571,-366 1775.6571,-402"/>
<text text-anchor="middle" x="1734" y="-379.8" font-family="Times,serif" font-size="14.00" fill="#000000">AppModule</text>
</g>
<!-- FormsModule&#45;&gt;AppModule -->
<g id="edge8" class="edge">
<title>FormsModule&#45;&gt;AppModule</title>
<path fill="none" stroke="#000000" d="M1023.8936,-110C1126.2769,-110 1357.2029,-110 1357.2029,-110 1357.2029,-110 1357.2029,-395 1357.2029,-395 1357.2029,-395 1682.2365,-395 1682.2365,-395"/>
<polygon fill="#000000" stroke="#000000" points="1682.2365,-398.5001 1692.2365,-395 1682.2364,-391.5001 1682.2365,-398.5001"/>
</g>
<!-- FormsModule&#45;&gt;PaymentModule -->
<g id="edge38" class="edge">
<title>FormsModule&#45;&gt;PaymentModule</title>
<path fill="none" stroke="#000000" d="M1012.4762,-122.0225C1012.4762,-139.3734 1012.4762,-163 1012.4762,-163 1012.4762,-163 1053.6925,-163 1053.6925,-163"/>
<polygon fill="#000000" stroke="#000000" points="1053.6925,-166.5001 1063.6925,-163 1053.6925,-159.5001 1053.6925,-166.5001"/>
</g>
<!-- ReactiveFormsModule -->
<g id="node4" class="node">
<title>ReactiveFormsModule</title>
<polygon fill="#8dd3c7" stroke="#000000" points="910.3047,-122 907.3047,-126 886.3047,-126 883.3047,-122 765.6953,-122 765.6953,-86 910.3047,-86 910.3047,-122"/>
<text text-anchor="middle" x="838" y="-99.8" font-family="Times,serif" font-size="14.00" fill="#000000">ReactiveFormsModule</text>
</g>
<!-- ReactiveFormsModule&#45;&gt;AddressModule -->
<g id="edge4" class="edge">
<title>ReactiveFormsModule&#45;&gt;AddressModule</title>
<path fill="none" stroke="#000000" d="M838,-122.2228C838,-122.2228 838,-143.7269 838,-143.7269"/>
<polygon fill="#000000" stroke="#000000" points="834.5001,-143.7269 838,-153.7269 841.5001,-143.727 834.5001,-143.7269"/>
</g>
<!-- ReactiveFormsModule&#45;&gt;SharedModule -->
<g id="edge49" class="edge">
<title>ReactiveFormsModule&#45;&gt;SharedModule</title>
<path fill="none" stroke="#000000" d="M895.3356,-122.245C895.3356,-150.3435 895.3356,-201 895.3356,-201 895.3356,-201 1538,-201 1538,-201 1538,-201 1538,-211.8701 1538,-211.8701"/>
<polygon fill="#000000" stroke="#000000" points="1534.5001,-211.8701 1538,-221.8701 1541.5001,-211.8701 1534.5001,-211.8701"/>
</g>
<!-- ReactiveFormsModule&#45;&gt;PaymentModule -->
<g id="edge39" class="edge">
<title>ReactiveFormsModule&#45;&gt;PaymentModule</title>
<path fill="none" stroke="#000000" d="M899.9607,-122.2479C899.9607,-145.0179 899.9607,-181 899.9607,-181 899.9607,-181 1053.8225,-181 1053.8225,-181"/>
<polygon fill="#000000" stroke="#000000" points="1053.8225,-184.5001 1063.8225,-181 1053.8225,-177.5001 1053.8225,-184.5001"/>
</g>
<!-- AddressModule&#45;&gt;CheckoutModule -->
<g id="edge24" class="edge">
<title>AddressModule&#45;&gt;CheckoutModule</title>
<path fill="none" stroke="#000000" d="M853.0313,-190.0225C853.0313,-207.3734 853.0313,-231 853.0313,-231 853.0313,-231 1048.1567,-231 1048.1567,-231"/>
<polygon fill="#000000" stroke="#000000" points="1048.1567,-234.5001 1058.1567,-231 1048.1567,-227.5001 1048.1567,-234.5001"/>
</g>
<!-- RouterModule.forRoot(args) -->
<g id="node6" class="node">
<title>RouterModule.forRoot(args)</title>
<polygon fill="#8dd3c7" stroke="#000000" points="1782.8419,-258 1779.8419,-262 1758.8419,-262 1755.8419,-258 1605.1581,-258 1605.1581,-222 1782.8419,-222 1782.8419,-258"/>
<text text-anchor="middle" x="1694" y="-235.8" font-family="Times,serif" font-size="14.00" fill="#000000">RouterModule.forRoot(args)</text>
</g>
<!-- RouterModule.forRoot(args)&#45;&gt;AppModule -->
<g id="edge5" class="edge">
<title>RouterModule.forRoot(args)&#45;&gt;AppModule</title>
<path fill="none" stroke="#000000" d="M1732.784,-258.2377C1732.784,-258.2377 1732.784,-355.9104 1732.784,-355.9104"/>
<polygon fill="#000000" stroke="#000000" points="1729.2841,-355.9103 1732.784,-365.9104 1736.2841,-355.9104 1729.2841,-355.9103"/>
</g>
<!-- StoreModule.provideStore(args) -->
<g id="node7" class="node">
<title>StoreModule.provideStore(args)</title>
<polygon fill="#8dd3c7" stroke="#000000" points="1997.5539,-258 1994.5539,-262 1973.5539,-262 1970.5539,-258 1800.4461,-258 1800.4461,-222 1997.5539,-222 1997.5539,-258"/>
<text text-anchor="middle" x="1899" y="-235.8" font-family="Times,serif" font-size="14.00" fill="#000000">StoreModule.provideStore(args)</text>
</g>
<!-- StoreModule.provideStore(args)&#45;&gt;AppModule -->
<g id="edge6" class="edge">
<title>StoreModule.provideStore(args)&#45;&gt;AppModule</title>
<path fill="none" stroke="#000000" d="M1881.3615,-258.0411C1881.3615,-295.4476 1881.3615,-378 1881.3615,-378 1881.3615,-378 1785.8337,-378 1785.8337,-378"/>
<polygon fill="#000000" stroke="#000000" points="1785.8338,-374.5001 1775.8337,-378 1785.8337,-381.5001 1785.8338,-374.5001"/>
</g>
<!-- BrowserModule -->
<g id="node8" class="node">
<title>BrowserModule</title>
<polygon fill="#8dd3c7" stroke="#000000" points="2122.4734,-258 2119.4734,-262 2098.4734,-262 2095.4734,-258 2015.5266,-258 2015.5266,-222 2122.4734,-222 2122.4734,-258"/>
<text text-anchor="middle" x="2069" y="-235.8" font-family="Times,serif" font-size="14.00" fill="#000000">BrowserModule</text>
</g>
<!-- BrowserModule&#45;&gt;AppModule -->
<g id="edge7" class="edge">
<title>BrowserModule&#45;&gt;AppModule</title>
<path fill="none" stroke="#000000" d="M2069,-258.0935C2069,-297.9889 2069,-390 2069,-390 2069,-390 1785.7506,-390 1785.7506,-390"/>
<polygon fill="#000000" stroke="#000000" points="1785.7507,-386.5001 1775.7506,-390 1785.7506,-393.5001 1785.7507,-386.5001"/>
</g>
<!-- HttpModule -->
<g id="node9" class="node">
<title>HttpModule</title>
<polygon fill="#8dd3c7" stroke="#000000" points="2225.4387,-258 2222.4387,-262 2201.4387,-262 2198.4387,-258 2140.5613,-258 2140.5613,-222 2225.4387,-222 2225.4387,-258"/>
<text text-anchor="middle" x="2183" y="-235.8" font-family="Times,serif" font-size="14.00" fill="#000000">HttpModule</text>
</g>
<!-- HttpModule&#45;&gt;AppModule -->
<g id="edge9" class="edge">
<title>HttpModule&#45;&gt;AppModule</title>
<path fill="none" stroke="#000000" d="M2183,-258.2005C2183,-299.3516 2183,-396 2183,-396 2183,-396 1785.8376,-396 1785.8376,-396"/>
<polygon fill="#000000" stroke="#000000" points="1785.8377,-392.5001 1775.8376,-396 1785.8376,-399.5001 1785.8377,-392.5001"/>
</g>
<!-- HomeModule -->
<g id="node10" class="node">
<title>HomeModule</title>
<polygon fill="#8dd3c7" stroke="#000000" points="1983.7619,-326 1980.7619,-330 1959.7619,-330 1956.7619,-326 1890.2381,-326 1890.2381,-290 1983.7619,-290 1983.7619,-326"/>
<text text-anchor="middle" x="1937" y="-303.8" font-family="Times,serif" font-size="14.00" fill="#000000">HomeModule</text>
</g>
<!-- HomeModule&#45;&gt;AppModule -->
<g id="edge10" class="edge">
<title>HomeModule&#45;&gt;AppModule</title>
<path fill="none" stroke="#000000" d="M1937,-326.0109C1937,-348.4852 1937,-384 1937,-384 1937,-384 1786.0617,-384 1786.0617,-384"/>
<polygon fill="#000000" stroke="#000000" points="1786.0618,-380.5001 1776.0617,-384 1786.0617,-387.5001 1786.0618,-380.5001"/>
</g>
<!-- LayoutModule&#45;&gt;AppModule -->
<g id="edge11" class="edge">
<title>LayoutModule&#45;&gt;AppModule</title>
<path fill="none" stroke="#000000" d="M1784.2557,-326.1686C1784.2557,-345.0898 1784.2557,-372 1784.2557,-372 1784.2557,-372 1783.4259,-372 1783.4259,-372"/>
<polygon fill="#000000" stroke="#000000" points="1785.9571,-368.5001 1775.957,-372 1785.957,-375.5001 1785.9571,-368.5001"/>
</g>
<!-- HeaderComponent  -->
<g id="node22" class="node">
<title>HeaderComponent </title>
<polygon fill="#fb8072" stroke="#000000" points="1204.7436,-402 1079.2564,-402 1079.2564,-366 1204.7436,-366 1204.7436,-402"/>
<text text-anchor="middle" x="1142" y="-379.8" font-family="Times,serif" font-size="14.00" fill="#000000">HeaderComponent </text>
</g>
<!-- LayoutModule&#45;&gt;HeaderComponent  -->
<g id="edge34" class="edge">
<title>LayoutModule&#45;&gt;HeaderComponent </title>
<path fill="none" stroke="#000000" stroke-dasharray="5,2" d="M1780.042,-326.0439C1780.042,-338.5633 1780.042,-353 1780.042,-353 1780.042,-353 1186.3626,-353 1186.3626,-353 1186.3626,-353 1186.3626,-355.9672 1186.3626,-355.9672"/>
<polygon fill="#000000" stroke="#000000" points="1182.8626,-355.9671 1186.3626,-365.9672 1189.8626,-355.9672 1182.8626,-355.9671"/>
</g>
<!-- FooterComponent  -->
<g id="node23" class="node">
<title>FooterComponent </title>
<polygon fill="#fb8072" stroke="#000000" points="1343.8814,-402 1222.1186,-402 1222.1186,-366 1343.8814,-366 1343.8814,-402"/>
<text text-anchor="middle" x="1283" y="-379.8" font-family="Times,serif" font-size="14.00" fill="#000000">FooterComponent </text>
</g>
<!-- LayoutModule&#45;&gt;FooterComponent  -->
<g id="edge35" class="edge">
<title>LayoutModule&#45;&gt;FooterComponent </title>
<path fill="none" stroke="#000000" stroke-dasharray="5,2" d="M1773.2704,-317C1655.7001,-317 1370.4111,-317 1370.4111,-317 1370.4111,-317 1370.4111,-374 1370.4111,-374 1370.4111,-374 1353.7099,-374 1353.7099,-374"/>
<polygon fill="#000000" stroke="#000000" points="1353.7099,-370.5001 1343.7099,-374 1353.7099,-377.5001 1353.7099,-370.5001"/>
</g>
<!-- CoreModule -->
<g id="node12" class="node">
<title>CoreModule</title>
<polygon fill="#8dd3c7" stroke="#000000" points="1470.2619,-258 1467.2619,-262 1446.2619,-262 1443.2619,-258 1383.7381,-258 1383.7381,-222 1470.2619,-222 1470.2619,-258"/>
<text text-anchor="middle" x="1427" y="-235.8" font-family="Times,serif" font-size="14.00" fill="#000000">CoreModule</text>
</g>
<!-- CoreModule&#45;&gt;AppModule -->
<g id="edge12" class="edge">
<title>CoreModule&#45;&gt;AppModule</title>
<path fill="none" stroke="#000000" d="M1427,-258.1477C1427,-297.668 1427,-388 1427,-388 1427,-388 1682.2771,-388 1682.2771,-388"/>
<polygon fill="#000000" stroke="#000000" points="1682.2771,-391.5001 1692.2771,-388 1682.2771,-384.5001 1682.2771,-391.5001"/>
</g>
<!-- SharedModule&#45;&gt;HomeModule -->
<g id="edge31" class="edge">
<title>SharedModule&#45;&gt;HomeModule</title>
<path fill="none" stroke="#000000" d="M1556.4542,-258.1804C1556.4542,-271.0382 1556.4542,-286 1556.4542,-286 1556.4542,-286 1937,-286 1937,-286 1937,-286 1937,-286.3832 1937,-286.3832"/>
<polygon fill="#000000" stroke="#000000" points="1933.5003,-279.832 1937,-289.8321 1940.5003,-279.8322 1933.5003,-279.832"/>
</g>
<!-- SharedModule&#45;&gt;LayoutModule -->
<g id="edge32" class="edge">
<title>SharedModule&#45;&gt;LayoutModule</title>
<path fill="none" stroke="#000000" d="M1581.0597,-258.0225C1581.0597,-275.3734 1581.0597,-299 1581.0597,-299 1581.0597,-299 1763.1632,-299 1763.1632,-299"/>
<polygon fill="#000000" stroke="#000000" points="1763.1632,-302.5001 1773.1632,-299 1763.1631,-295.5001 1763.1632,-302.5001"/>
</g>
<!-- SharedModule&#45;&gt;AppModule -->
<g id="edge13" class="edge">
<title>SharedModule&#45;&gt;AppModule</title>
<path fill="none" stroke="#000000" d="M1544.1514,-258.1446C1544.1514,-296.2265 1544.1514,-381 1544.1514,-381 1544.1514,-381 1682.3369,-381 1682.3369,-381"/>
<polygon fill="#000000" stroke="#000000" points="1682.337,-384.5001 1692.3369,-381 1682.3369,-377.5001 1682.337,-384.5001"/>
</g>
<!-- SharedModule&#45;&gt;AuthModule -->
<g id="edge17" class="edge">
<title>SharedModule&#45;&gt;AuthModule</title>
<path fill="none" stroke="#000000" d="M1550.3028,-258.3415C1550.3028,-287.2107 1550.3028,-340 1550.3028,-340 1550.3028,-340 3702,-340 3702,-340 3702,-340 3702,-336.2434 3702,-336.2434"/>
<polygon fill="#000000" stroke="#000000" points="3705.5001,-336.2434 3702,-326.2434 3698.5001,-336.2434 3705.5001,-336.2434"/>
</g>
<!-- ProductModule -->
<g id="node24" class="node">
<title>ProductModule</title>
<polygon fill="#8dd3c7" stroke="#000000" points="3023.5982,-326 3020.5982,-330 2999.5982,-330 2996.5982,-326 2920.4018,-326 2920.4018,-290 3023.5982,-290 3023.5982,-326"/>
<text text-anchor="middle" x="2972" y="-303.8" font-family="Times,serif" font-size="14.00" fill="#000000">ProductModule</text>
</g>
<!-- SharedModule&#45;&gt;ProductModule -->
<g id="edge40" class="edge">
<title>SharedModule&#45;&gt;ProductModule</title>
<path fill="none" stroke="#000000" d="M1568.7569,-258.1592C1568.7569,-263.0433 1568.7569,-267 1568.7569,-267 1568.7569,-267 2972,-267 2972,-267 2972,-267 2972,-279.8975 2972,-279.8975"/>
<polygon fill="#000000" stroke="#000000" points="2968.5001,-279.8974 2972,-289.8975 2975.5001,-279.8975 2968.5001,-279.8974"/>
</g>
<!-- LoadingIndicatorComponent  -->
<g id="node32" class="node">
<title>LoadingIndicatorComponent </title>
<polygon fill="#fb8072" stroke="#000000" points="510.0218,-326 327.9782,-326 327.9782,-290 510.0218,-290 510.0218,-326"/>
<text text-anchor="middle" x="419" y="-303.8" font-family="Times,serif" font-size="14.00" fill="#000000">LoadingIndicatorComponent </text>
</g>
<!-- SharedModule&#45;&gt;LoadingIndicatorComponent  -->
<g id="edge52" class="edge">
<title>SharedModule&#45;&gt;LoadingIndicatorComponent </title>
<path fill="none" stroke="#000000" stroke-dasharray="5,2" d="M1507.2431,-258.0328C1507.2431,-264.8526 1507.2431,-271 1507.2431,-271 1507.2431,-271 498.9185,-271 498.9185,-271 498.9185,-271 498.9185,-279.9336 498.9185,-279.9336"/>
<polygon fill="#000000" stroke="#000000" points="495.4186,-279.9335 498.9185,-289.9336 502.4186,-279.9336 495.4186,-279.9335"/>
</g>
<!-- NotificationComponent  -->
<g id="node33" class="node">
<title>NotificationComponent </title>
<polygon fill="#fb8072" stroke="#000000" points="310.4826,-326 157.5174,-326 157.5174,-290 310.4826,-290 310.4826,-326"/>
<text text-anchor="middle" x="234" y="-303.8" font-family="Times,serif" font-size="14.00" fill="#000000">NotificationComponent </text>
</g>
<!-- SharedModule&#45;&gt;NotificationComponent  -->
<g id="edge53" class="edge">
<title>SharedModule&#45;&gt;NotificationComponent </title>
<path fill="none" stroke="#000000" stroke-dasharray="5,2" d="M1501.0917,-258.2015C1501.0917,-264.028 1501.0917,-269 1501.0917,-269 1501.0917,-269 234,-269 234,-269 234,-269 234,-279.8701 234,-279.8701"/>
<polygon fill="#000000" stroke="#000000" points="230.5001,-279.8701 234,-289.8701 237.5001,-279.8701 230.5001,-279.8701"/>
</g>
<!-- CommonModule  -->
<g id="node34" class="node">
<title>CommonModule </title>
<polygon fill="#fb8072" stroke="#000000" points="139.6677,-326 24.3323,-326 24.3323,-290 139.6677,-290 139.6677,-326"/>
<text text-anchor="middle" x="82" y="-303.8" font-family="Times,serif" font-size="14.00" fill="#000000">CommonModule </text>
</g>
<!-- SharedModule&#45;&gt;CommonModule  -->
<g id="edge54" class="edge">
<title>SharedModule&#45;&gt;CommonModule </title>
<path fill="none" stroke="#000000" stroke-dasharray="5,2" d="M1494.9403,-258.1686C1494.9403,-262.0459 1494.9403,-265 1494.9403,-265 1494.9403,-265 82,-265 82,-265 82,-265 82,-279.5146 82,-279.5146"/>
<polygon fill="#000000" stroke="#000000" points="78.5001,-279.5145 82,-289.5146 85.5001,-279.5146 78.5001,-279.5145"/>
</g>
<!-- DropdownModule  -->
<g id="node35" class="node">
<title>DropdownModule </title>
<polygon fill="#fb8072" stroke="#000000" points="1144.4236,-326 1021.5764,-326 1021.5764,-290 1144.4236,-290 1144.4236,-326"/>
<text text-anchor="middle" x="1083" y="-303.8" font-family="Times,serif" font-size="14.00" fill="#000000">DropdownModule </text>
</g>
<!-- SharedModule&#45;&gt;DropdownModule  -->
<g id="edge55" class="edge">
<title>SharedModule&#45;&gt;DropdownModule </title>
<path fill="none" stroke="#000000" stroke-dasharray="5,2" d="M1538,-258.1505C1538,-270.2708 1538,-284 1538,-284 1538,-284 1101.4293,-284 1101.4293,-284 1101.4293,-284 1101.4293,-284.581 1101.4293,-284.581"/>
<polygon fill="#000000" stroke="#000000" points="1097.9295,-279.8097 1101.4293,-289.8097 1104.9295,-279.8098 1097.9295,-279.8097"/>
</g>
<!-- FormsModule  -->
<g id="node36" class="node">
<title>FormsModule </title>
<polygon fill="#fb8072" stroke="#000000" points="1003.3283,-326 904.6717,-326 904.6717,-290 1003.3283,-290 1003.3283,-326"/>
<text text-anchor="middle" x="954" y="-303.8" font-family="Times,serif" font-size="14.00" fill="#000000">FormsModule </text>
</g>
<!-- SharedModule&#45;&gt;FormsModule  -->
<g id="edge56" class="edge">
<title>SharedModule&#45;&gt;FormsModule </title>
<path fill="none" stroke="#000000" stroke-dasharray="5,2" d="M1531.8486,-258.0555C1531.8486,-269.439 1531.8486,-282 1531.8486,-282 1531.8486,-282 953.362,-282 953.362,-282 953.362,-282 953.362,-282.7942 953.362,-282.7942"/>
<polygon fill="#000000" stroke="#000000" points="949.8621,-279.9421 953.362,-289.9421 956.8621,-279.9422 949.8621,-279.9421"/>
</g>
<!-- ReactiveFormsModule  -->
<g id="node37" class="node">
<title>ReactiveFormsModule </title>
<polygon fill="#fb8072" stroke="#000000" points="886.8045,-326 739.1955,-326 739.1955,-290 886.8045,-290 886.8045,-326"/>
<text text-anchor="middle" x="813" y="-303.8" font-family="Times,serif" font-size="14.00" fill="#000000">ReactiveFormsModule </text>
</g>
<!-- SharedModule&#45;&gt;ReactiveFormsModule  -->
<g id="edge57" class="edge">
<title>SharedModule&#45;&gt;ReactiveFormsModule </title>
<path fill="none" stroke="#000000" stroke-dasharray="5,2" d="M1525.6972,-258.1274C1525.6972,-268.7109 1525.6972,-280 1525.6972,-280 1525.6972,-280 819.1605,-280 819.1605,-280 819.1605,-280 819.1605,-280.9793 819.1605,-280.9793"/>
<polygon fill="#000000" stroke="#000000" points="815.6606,-279.793 819.1605,-289.793 822.6606,-279.7931 815.6606,-279.793"/>
</g>
<!-- KeysPipe  -->
<g id="node38" class="node">
<title>KeysPipe </title>
<polygon fill="#fb8072" stroke="#000000" points="721.6538,-326 648.3462,-326 648.3462,-290 721.6538,-290 721.6538,-326"/>
<text text-anchor="middle" x="685" y="-303.8" font-family="Times,serif" font-size="14.00" fill="#000000">KeysPipe </text>
</g>
<!-- SharedModule&#45;&gt;KeysPipe  -->
<g id="edge58" class="edge">
<title>SharedModule&#45;&gt;KeysPipe </title>
<path fill="none" stroke="#000000" stroke-dasharray="5,2" d="M1519.5458,-258.4218C1519.5458,-267.2791 1519.5458,-276 1519.5458,-276 1519.5458,-276 685,-276 685,-276 685,-276 685,-279.7566 685,-279.7566"/>
<polygon fill="#000000" stroke="#000000" points="681.5001,-279.7566 685,-289.7566 688.5001,-279.7566 681.5001,-279.7566"/>
</g>
<!-- HumanizePipe  -->
<g id="node39" class="node">
<title>HumanizePipe </title>
<polygon fill="#fb8072" stroke="#000000" points="629.9194,-326 528.0806,-326 528.0806,-290 629.9194,-290 629.9194,-326"/>
<text text-anchor="middle" x="579" y="-303.8" font-family="Times,serif" font-size="14.00" fill="#000000">HumanizePipe </text>
</g>
<!-- SharedModule&#45;&gt;HumanizePipe  -->
<g id="edge59" class="edge">
<title>SharedModule&#45;&gt;HumanizePipe </title>
<path fill="none" stroke="#000000" stroke-dasharray="5,2" d="M1513.3945,-258.0449C1513.3945,-265.749 1513.3945,-273 1513.3945,-273 1513.3945,-273 623.8929,-273 623.8929,-273 623.8929,-273 623.8929,-279.68 623.8929,-279.68"/>
<polygon fill="#000000" stroke="#000000" points="620.393,-279.6799 623.8929,-289.68 627.393,-279.68 620.393,-279.6799"/>
</g>
<!-- UserModule -->
<g id="node40" class="node">
<title>UserModule</title>
<polygon fill="#8dd3c7" stroke="#000000" points="2342.9762,-326 2339.9762,-330 2318.9762,-330 2315.9762,-326 2257.0238,-326 2257.0238,-290 2342.9762,-290 2342.9762,-326"/>
<text text-anchor="middle" x="2300" y="-303.8" font-family="Times,serif" font-size="14.00" fill="#000000">UserModule</text>
</g>
<!-- SharedModule&#45;&gt;UserModule -->
<g id="edge61" class="edge">
<title>SharedModule&#45;&gt;UserModule</title>
<path fill="none" stroke="#000000" d="M1562.6056,-258.1097C1562.6056,-267.897 1562.6056,-278 1562.6056,-278 1562.6056,-278 2285.6706,-278 2285.6706,-278 2285.6706,-278 2285.6706,-279.8568 2285.6706,-279.8568"/>
<polygon fill="#000000" stroke="#000000" points="2282.1707,-279.8568 2285.6706,-289.8568 2289.1707,-279.8568 2282.1707,-279.8568"/>
</g>
<!-- AppComponent  -->
<g id="node15" class="node">
<title>AppComponent </title>
<polygon fill="#80b1d3" stroke="#000000" points="1788.439,-470 1679.561,-470 1679.561,-434 1788.439,-434 1788.439,-470"/>
<text text-anchor="middle" x="1734" y="-447.8" font-family="Times,serif" font-size="14.00" fill="#000000">AppComponent </text>
</g>
<!-- AppModule&#45;&gt;AppComponent  -->
<g id="edge14" class="edge">
<title>AppModule&#45;&gt;AppComponent </title>
<path fill="none" stroke="#000000" stroke-dasharray="1,5" d="M1734,-402.2228C1734,-402.2228 1734,-423.7269 1734,-423.7269"/>
<polygon fill="#000000" stroke="#000000" points="1730.5001,-423.7269 1734,-433.7269 1737.5001,-423.727 1730.5001,-423.7269"/>
</g>
<!-- RouterModule.forChild(args) -->
<g id="node16" class="node">
<title>RouterModule.forChild(args)</title>
<polygon fill="#8dd3c7" stroke="#000000" points="3792.7323,-258 3789.7323,-262 3768.7323,-262 3765.7323,-258 3611.2677,-258 3611.2677,-222 3792.7323,-222 3792.7323,-258"/>
<text text-anchor="middle" x="3702" y="-235.8" font-family="Times,serif" font-size="14.00" fill="#000000">RouterModule.forChild(args)</text>
</g>
<!-- RouterModule.forChild(args)&#45;&gt;HomeModule -->
<g id="edge30" class="edge">
<title>RouterModule.forChild(args)&#45;&gt;HomeModule</title>
<path fill="none" stroke="#000000" d="M3611.1671,-234C3292.0015,-234 2241.1154,-234 2241.1154,-234 2241.1154,-234 2241.1154,-308 2241.1154,-308 2241.1154,-308 1993.8515,-308 1993.8515,-308"/>
<polygon fill="#000000" stroke="#000000" points="1993.8516,-304.5001 1983.8515,-308 1993.8515,-311.5001 1993.8516,-304.5001"/>
</g>
<!-- RouterModule.forChild(args)&#45;&gt;AuthModule -->
<g id="edge16" class="edge">
<title>RouterModule.forChild(args)&#45;&gt;AuthModule</title>
<path fill="none" stroke="#000000" d="M3716.5912,-258.2228C3716.5912,-258.2228 3716.5912,-279.7269 3716.5912,-279.7269"/>
<polygon fill="#000000" stroke="#000000" points="3713.0913,-279.7269 3716.5912,-289.7269 3720.0913,-279.727 3713.0913,-279.7269"/>
</g>
<!-- RouterModule.forChild(args)&#45;&gt;CheckoutModule -->
<g id="edge21" class="edge">
<title>RouterModule.forChild(args)&#45;&gt;CheckoutModule</title>
<path fill="none" stroke="#000000" d="M3626.9981,-258.08C3626.9981,-259.8464 3626.9981,-261 3626.9981,-261 3626.9981,-261 1156.2826,-261 1156.2826,-261 1156.2826,-261 1156.2826,-260.708 1156.2826,-260.708"/>
<polygon fill="#000000" stroke="#000000" points="1159.783,-268.0799 1156.2826,-258.08 1152.783,-268.0802 1159.783,-268.0799"/>
</g>
<!-- RouterModule.forChild(args)&#45;&gt;ProductModule -->
<g id="edge41" class="edge">
<title>RouterModule.forChild(args)&#45;&gt;ProductModule</title>
<path fill="none" stroke="#000000" d="M3642.6123,-258.0225C3642.6123,-275.3734 3642.6123,-299 3642.6123,-299 3642.6123,-299 3033.7857,-299 3033.7857,-299"/>
<polygon fill="#000000" stroke="#000000" points="3033.7858,-295.5001 3023.7857,-299 3033.7857,-302.5001 3033.7858,-295.5001"/>
</g>
<!-- RouterModule.forChild(args)&#45;&gt;UserModule -->
<g id="edge60" class="edge">
<title>RouterModule.forChild(args)&#45;&gt;UserModule</title>
<path fill="none" stroke="#000000" d="M3611.2189,-246C3302.8034,-246 2314.3294,-246 2314.3294,-246 2314.3294,-246 2314.3294,-279.7333 2314.3294,-279.7333"/>
<polygon fill="#000000" stroke="#000000" points="2310.8295,-279.7333 2314.3294,-289.7333 2317.8295,-279.7333 2310.8295,-279.7333"/>
</g>
<!-- CartModule&#45;&gt;CheckoutModule -->
<g id="edge23" class="edge">
<title>CartModule&#45;&gt;CheckoutModule</title>
<path fill="none" stroke="#000000" d="M446,-190.2479C446,-213.0179 446,-249 446,-249 446,-249 1048.25,-249 1048.25,-249"/>
<polygon fill="#000000" stroke="#000000" points="1048.2501,-252.5001 1058.25,-249 1048.25,-245.5001 1048.2501,-252.5001"/>
</g>
<!-- EffectsModule.run(args) -->
<g id="node19" class="node">
<title>EffectsModule.run(args)</title>
<polygon fill="#8dd3c7" stroke="#000000" points="1343.9896,-190 1340.9896,-194 1319.9896,-194 1316.9896,-190 1190.0104,-190 1190.0104,-154 1343.9896,-154 1343.9896,-190"/>
<text text-anchor="middle" x="1267" y="-167.8" font-family="Times,serif" font-size="14.00" fill="#000000">EffectsModule.run(args)</text>
</g>
<!-- EffectsModule.run(args)&#45;&gt;CoreModule -->
<g id="edge26" class="edge">
<title>EffectsModule.run(args)&#45;&gt;CoreModule</title>
<path fill="none" stroke="#000000" d="M1344.1555,-183C1373.9364,-183 1400.9715,-183 1400.9715,-183 1400.9715,-183 1400.9715,-211.9648 1400.9715,-211.9648"/>
<polygon fill="#000000" stroke="#000000" points="1397.4716,-211.9648 1400.9715,-221.9648 1404.4716,-211.9649 1397.4716,-211.9648"/>
</g>
<!-- EffectsModule.run(args)&#45;&gt;CoreModule -->
<g id="edge27" class="edge">
<title>EffectsModule.run(args)&#45;&gt;CoreModule</title>
<path fill="none" stroke="#000000" d="M1343.9919,-176C1381.3743,-176 1418.3238,-176 1418.3238,-176 1418.3238,-176 1418.3238,-211.8314 1418.3238,-211.8314"/>
<polygon fill="#000000" stroke="#000000" points="1414.8239,-211.8313 1418.3238,-221.8314 1421.8239,-211.8314 1414.8239,-211.8313"/>
</g>
<!-- EffectsModule.run(args)&#45;&gt;CoreModule -->
<g id="edge28" class="edge">
<title>EffectsModule.run(args)&#45;&gt;CoreModule</title>
<path fill="none" stroke="#000000" d="M1344.0077,-162C1395.1854,-162 1453.0285,-162 1453.0285,-162 1453.0285,-162 1453.0285,-211.9092 1453.0285,-211.9092"/>
<polygon fill="#000000" stroke="#000000" points="1449.5286,-211.9091 1453.0285,-221.9092 1456.5286,-211.9092 1449.5286,-211.9091"/>
</g>
<!-- EffectsModule.run(args)&#45;&gt;CoreModule -->
<g id="edge29" class="edge">
<title>EffectsModule.run(args)&#45;&gt;CoreModule</title>
<path fill="none" stroke="#000000" d="M1344.4266,-169C1388.7688,-169 1435.6762,-169 1435.6762,-169 1435.6762,-169 1435.6762,-211.7157 1435.6762,-211.7157"/>
<polygon fill="#000000" stroke="#000000" points="1432.1763,-211.7157 1435.6762,-221.7157 1439.1763,-211.7158 1432.1763,-211.7157"/>
</g>
<!-- EffectsModule.run(args)&#45;&gt;CheckoutModule -->
<g id="edge22" class="edge">
<title>EffectsModule.run(args)&#45;&gt;CheckoutModule</title>
<path fill="none" stroke="#000000" d="M1266.9509,-190.2228C1266.9509,-210.3652 1266.9509,-240 1266.9509,-240 1266.9509,-240 1182.0132,-240 1182.0132,-240"/>
<polygon fill="#000000" stroke="#000000" points="1182.0133,-236.5001 1172.0132,-240 1182.0132,-243.5001 1182.0133,-236.5001"/>
</g>
<!-- PaymentModule&#45;&gt;CheckoutModule -->
<g id="edge25" class="edge">
<title>PaymentModule&#45;&gt;CheckoutModule</title>
<path fill="none" stroke="#000000" d="M1117.6659,-190.2228C1117.6659,-190.2228 1117.6659,-211.7269 1117.6659,-211.7269"/>
<polygon fill="#000000" stroke="#000000" points="1114.1659,-211.7269 1117.6659,-221.7269 1121.1659,-211.727 1114.1659,-211.7269"/>
</g>
<!-- ProductDetailPageComponent  -->
<g id="node25" class="node">
<title>ProductDetailPageComponent </title>
<polygon fill="#fb8072" stroke="#000000" points="2966.8003,-402 2777.1997,-402 2777.1997,-366 2966.8003,-366 2966.8003,-402"/>
<text text-anchor="middle" x="2872" y="-379.8" font-family="Times,serif" font-size="14.00" fill="#000000">ProductDetailPageComponent </text>
</g>
<!-- ProductModule&#45;&gt;ProductDetailPageComponent  -->
<g id="edge42" class="edge">
<title>ProductModule&#45;&gt;ProductDetailPageComponent </title>
<path fill="none" stroke="#000000" stroke-dasharray="5,2" d="M2943.6755,-326.0109C2943.6755,-326.0109 2943.6755,-355.855 2943.6755,-355.855"/>
<polygon fill="#000000" stroke="#000000" points="2940.1756,-355.8549 2943.6755,-365.855 2947.1756,-355.855 2940.1756,-355.8549"/>
</g>
<!-- ProductDetailsComponent  -->
<g id="node26" class="node">
<title>ProductDetailsComponent </title>
<polygon fill="#fb8072" stroke="#000000" points="2759.033,-402 2590.967,-402 2590.967,-366 2759.033,-366 2759.033,-402"/>
<text text-anchor="middle" x="2675" y="-379.8" font-family="Times,serif" font-size="14.00" fill="#000000">ProductDetailsComponent </text>
</g>
<!-- ProductModule&#45;&gt;ProductDetailsComponent  -->
<g id="edge43" class="edge">
<title>ProductModule&#45;&gt;ProductDetailsComponent </title>
<path fill="none" stroke="#000000" stroke-dasharray="5,2" d="M2920.2665,-314C2835.1741,-314 2675,-314 2675,-314 2675,-314 2675,-355.9733 2675,-355.9733"/>
<polygon fill="#000000" stroke="#000000" points="2671.5001,-355.9732 2675,-365.9733 2678.5001,-355.9733 2671.5001,-355.9732"/>
</g>
<!-- ProductImagesComponent  -->
<g id="node27" class="node">
<title>ProductImagesComponent </title>
<polygon fill="#fb8072" stroke="#000000" points="2573.3059,-402 2404.6941,-402 2404.6941,-366 2573.3059,-366 2573.3059,-402"/>
<text text-anchor="middle" x="2489" y="-379.8" font-family="Times,serif" font-size="14.00" fill="#000000">ProductImagesComponent </text>
</g>
<!-- ProductModule&#45;&gt;ProductImagesComponent  -->
<g id="edge44" class="edge">
<title>ProductModule&#45;&gt;ProductImagesComponent </title>
<path fill="none" stroke="#000000" stroke-dasharray="5,2" d="M2920.3105,-302C2795.7097,-302 2489,-302 2489,-302 2489,-302 2489,-355.8015 2489,-355.8015"/>
<polygon fill="#000000" stroke="#000000" points="2485.5001,-355.8015 2489,-365.8015 2492.5001,-355.8016 2485.5001,-355.8015"/>
</g>
<!-- ProductPriceInfoComponent  -->
<g id="node28" class="node">
<title>ProductPriceInfoComponent </title>
<polygon fill="#fb8072" stroke="#000000" points="3571.4656,-402 3390.5344,-402 3390.5344,-366 3571.4656,-366 3571.4656,-402"/>
<text text-anchor="middle" x="3481" y="-379.8" font-family="Times,serif" font-size="14.00" fill="#000000">ProductPriceInfoComponent </text>
</g>
<!-- ProductModule&#45;&gt;ProductPriceInfoComponent  -->
<g id="edge45" class="edge">
<title>ProductModule&#45;&gt;ProductPriceInfoComponent </title>
<path fill="none" stroke="#000000" stroke-dasharray="5,2" d="M3023.6067,-308C3153.0093,-308 3481,-308 3481,-308 3481,-308 3481,-355.9891 3481,-355.9891"/>
<polygon fill="#000000" stroke="#000000" points="3477.5001,-355.989 3481,-365.9891 3484.5001,-355.9891 3477.5001,-355.989"/>
</g>
<!-- ProductDescriptionComponent  -->
<g id="node29" class="node">
<title>ProductDescriptionComponent </title>
<polygon fill="#fb8072" stroke="#000000" points="3372.6938,-402 3179.3062,-402 3179.3062,-366 3372.6938,-366 3372.6938,-402"/>
<text text-anchor="middle" x="3276" y="-379.8" font-family="Times,serif" font-size="14.00" fill="#000000">ProductDescriptionComponent </text>
</g>
<!-- ProductModule&#45;&gt;ProductDescriptionComponent  -->
<g id="edge46" class="edge">
<title>ProductModule&#45;&gt;ProductDescriptionComponent </title>
<path fill="none" stroke="#000000" stroke-dasharray="5,2" d="M3023.5695,-317C3110.302,-317 3276,-317 3276,-317 3276,-317 3276,-355.692 3276,-355.692"/>
<polygon fill="#000000" stroke="#000000" points="3272.5001,-355.6919 3276,-365.692 3279.5001,-355.692 3272.5001,-355.6919"/>
</g>
<!-- ProductVariantsComponent  -->
<g id="node30" class="node">
<title>ProductVariantsComponent </title>
<polygon fill="#fb8072" stroke="#000000" points="3160.8031,-402 2985.1969,-402 2985.1969,-366 3160.8031,-366 3160.8031,-402"/>
<text text-anchor="middle" x="3073" y="-379.8" font-family="Times,serif" font-size="14.00" fill="#000000">ProductVariantsComponent </text>
</g>
<!-- ProductModule&#45;&gt;ProductVariantsComponent  -->
<g id="edge47" class="edge">
<title>ProductModule&#45;&gt;ProductVariantsComponent </title>
<path fill="none" stroke="#000000" stroke-dasharray="5,2" d="M3004.3238,-326.0109C3004.3238,-326.0109 3004.3238,-355.855 3004.3238,-355.855"/>
<polygon fill="#000000" stroke="#000000" points="3000.8239,-355.8549 3004.3238,-365.855 3007.8239,-355.855 3000.8239,-355.8549"/>
</g>
<!-- DropdownModule.forRoot() -->
<g id="node31" class="node">
<title>DropdownModule.forRoot()</title>
<polygon fill="#8dd3c7" stroke="#000000" points="1343.7933,-326 1340.7933,-330 1319.7933,-330 1316.7933,-326 1168.2067,-326 1168.2067,-290 1343.7933,-290 1343.7933,-326"/>
<text text-anchor="middle" x="1256" y="-303.8" font-family="Times,serif" font-size="14.00" fill="#000000">DropdownModule.forRoot()</text>
</g>
<!-- DropdownModule.forRoot()&#45;&gt;SharedModule -->
<g id="edge51" class="edge">
<title>DropdownModule.forRoot()&#45;&gt;SharedModule</title>
<path fill="none" stroke="#000000" d="M1343.9873,-308C1438.3823,-308 1574.9083,-308 1574.9083,-308 1574.9083,-308 1574.9083,-268.2228 1574.9083,-268.2228"/>
<polygon fill="#000000" stroke="#000000" points="1578.4084,-268.2227 1574.9083,-258.2228 1571.4084,-268.2228 1578.4084,-268.2227"/>
</g>
</g>
</svg>
