<?xml version="1.0" encoding="UTF-8" standalone="no"?>
<!DOCTYPE svg PUBLIC "-//W3C//DTD SVG 1.1//EN"
 "http://www.w3.org/Graphics/SVG/1.1/DTD/svg11.dtd">
<!-- Generated by graphviz version 2.40.1 (20161225.0304)
 -->
<!-- Title: dependencies Pages: 1 -->
<svg width="1029pt" height="211pt"
 viewBox="0.00 0.00 1029.00 211.00" xmlns="http://www.w3.org/2000/svg" xmlns:xlink="http://www.w3.org/1999/xlink">
<g id="graph0" class="graph" transform="scale(1 1) rotate(0) translate(4 207)">
<title>dependencies</title>
<polygon fill="#ffffff" stroke="transparent" points="-4,4 -4,-207 1025,-207 1025,4 -4,4"/>
<text text-anchor="start" x="489.5091" y="-42.4" font-family="sans-serif" font-weight="bold" font-size="14.00" fill="#000000">Legend</text>
<polygon fill="#ffffb3" stroke="transparent" points="276.5,-10 276.5,-30 296.5,-30 296.5,-10 276.5,-10"/>
<text text-anchor="start" x="300.129" y="-15.4" font-family="sans-serif" font-size="14.00" fill="#000000"> &#160;Declarations</text>
<polygon fill="#8dd3c7" stroke="transparent" points="389.5,-10 389.5,-30 409.5,-30 409.5,-10 389.5,-10"/>
<text text-anchor="start" x="413.2251" y="-15.4" font-family="sans-serif" font-size="14.00" fill="#000000"> &#160;Module</text>
<polygon fill="#80b1d3" stroke="transparent" points="475.5,-10 475.5,-30 495.5,-30 495.5,-10 475.5,-10"/>
<text text-anchor="start" x="499.2812" y="-15.4" font-family="sans-serif" font-size="14.00" fill="#000000"> &#160;Bootstrap</text>
<polygon fill="#fdb462" stroke="transparent" points="572.5,-10 572.5,-30 592.5,-30 592.5,-10 572.5,-10"/>
<text text-anchor="start" x="596.1732" y="-15.4" font-family="sans-serif" font-size="14.00" fill="#000000"> &#160;Providers</text>
<polygon fill="#fb8072" stroke="transparent" points="668.5,-10 668.5,-30 688.5,-30 688.5,-10 668.5,-10"/>
<text text-anchor="start" x="692.2258" y="-15.4" font-family="sans-serif" font-size="14.00" fill="#000000"> &#160;Exports</text>
<g id="clust1" class="cluster">
<title>cluster_AddressModule</title>
<polygon fill="none" stroke="#000000" stroke-dasharray="1,5" points="8,-70 8,-195 1013,-195 1013,-70 8,-70"/>
</g>
<g id="clust2" class="cluster">
<title>cluster_AddressModule_declarations</title>
<polygon fill="none" stroke="#000000" points="306,-78 306,-130 1005,-130 1005,-78 306,-78"/>
</g>
<g id="clust7" class="cluster">
<title>cluster_AddressModule_imports</title>
<polygon fill="none" stroke="#000000" points="184,-78 184,-130 298,-130 298,-78 184,-78"/>
</g>
<g id="clust10" class="cluster">
<title>cluster_AddressModule_providers</title>
<polygon fill="none" stroke="#000000" points="16,-78 16,-130 176,-130 176,-78 16,-78"/>
</g>
<!-- AddAddressComponent -->
<g id="node1" class="node">
<title>AddAddressComponent</title>
<polygon fill="#ffffb3" stroke="#000000" points="996.8103,-122 845.1897,-122 845.1897,-86 996.8103,-86 996.8103,-122"/>
<text text-anchor="middle" x="921" y="-99.8" font-family="Times,serif" font-size="14.00" fill="#000000">AddAddressComponent</text>
</g>
<!-- AddressModule -->
<g id="node5" class="node">
<title>AddressModule</title>
<polygon fill="#8dd3c7" stroke="#000000" points="549.9216,-187 546.9216,-191 525.9216,-191 522.9216,-187 444.0784,-187 444.0784,-151 549.9216,-151 549.9216,-187"/>
<text text-anchor="middle" x="497" y="-164.8" font-family="Times,serif" font-size="14.00" fill="#000000">AddressModule</text>
</g>
<!-- AddAddressComponent&#45;&gt;AddressModule -->
<g id="edge1" class="edge">
<title>AddAddressComponent&#45;&gt;AddressModule</title>
<path fill="none" stroke="#000000" d="M921,-122.2843C921,-143.3211 921,-175 921,-175 921,-175 559.8426,-175 559.8426,-175"/>
<polygon fill="#000000" stroke="#000000" points="559.8426,-171.5001 549.8426,-175 559.8426,-178.5001 559.8426,-171.5001"/>
</g>
<!-- AddressComponent -->
<g id="node2" class="node">
<title>AddressComponent</title>
<polygon fill="#ffffb3" stroke="#000000" points="827.7036,-122 700.2964,-122 700.2964,-86 827.7036,-86 827.7036,-122"/>
<text text-anchor="middle" x="764" y="-99.8" font-family="Times,serif" font-size="14.00" fill="#000000">AddressComponent</text>
</g>
<!-- AddressComponent&#45;&gt;AddressModule -->
<g id="edge2" class="edge">
<title>AddressComponent&#45;&gt;AddressModule</title>
<path fill="none" stroke="#000000" d="M764,-122.0225C764,-139.3734 764,-163 764,-163 764,-163 559.7506,-163 559.7506,-163"/>
<polygon fill="#000000" stroke="#000000" points="559.7506,-159.5001 549.7506,-163 559.7506,-166.5001 559.7506,-159.5001"/>
</g>
<!-- DeliveryAddressComponent -->
<g id="node3" class="node">
<title>DeliveryAddressComponent</title>
<polygon fill="#ffffb3" stroke="#000000" points="682.1811,-122 505.8189,-122 505.8189,-86 682.1811,-86 682.1811,-122"/>
<text text-anchor="middle" x="594" y="-99.8" font-family="Times,serif" font-size="14.00" fill="#000000">DeliveryAddressComponent</text>
</g>
<!-- DeliveryAddressComponent&#45;&gt;AddressModule -->
<g id="edge3" class="edge">
<title>DeliveryAddressComponent&#45;&gt;AddressModule</title>
<path fill="none" stroke="#000000" d="M527.81,-122.1061C527.81,-122.1061 527.81,-140.991 527.81,-140.991"/>
<polygon fill="#000000" stroke="#000000" points="524.31,-140.9909 527.81,-150.991 531.31,-140.991 524.31,-140.9909"/>
</g>
<!-- DeliveryOptionsComponent -->
<g id="node4" class="node">
<title>DeliveryOptionsComponent</title>
<polygon fill="#ffffb3" stroke="#000000" points="488.1428,-122 313.8572,-122 313.8572,-86 488.1428,-86 488.1428,-122"/>
<text text-anchor="middle" x="401" y="-99.8" font-family="Times,serif" font-size="14.00" fill="#000000">DeliveryOptionsComponent</text>
</g>
<!-- DeliveryOptionsComponent&#45;&gt;AddressModule -->
<g id="edge4" class="edge">
<title>DeliveryOptionsComponent&#45;&gt;AddressModule</title>
<path fill="none" stroke="#000000" d="M466.3054,-122.1061C466.3054,-122.1061 466.3054,-140.991 466.3054,-140.991"/>
<polygon fill="#000000" stroke="#000000" points="462.8055,-140.9909 466.3054,-150.991 469.8055,-140.991 462.8055,-140.9909"/>
</g>
<!-- SharedModule -->
<g id="node6" class="node">
<title>SharedModule</title>
<polygon fill="#8dd3c7" stroke="#000000" points="290.4231,-122 287.4231,-126 266.4231,-126 263.4231,-122 191.5769,-122 191.5769,-86 290.4231,-86 290.4231,-122"/>
<text text-anchor="middle" x="241" y="-99.8" font-family="Times,serif" font-size="14.00" fill="#000000">SharedModule</text>
</g>
<!-- SharedModule&#45;&gt;AddressModule -->
<g id="edge5" class="edge">
<title>SharedModule&#45;&gt;AddressModule</title>
<path fill="none" stroke="#000000" d="M241,-122.0225C241,-139.3734 241,-163 241,-163 241,-163 434.267,-163 434.267,-163"/>
<polygon fill="#000000" stroke="#000000" points="434.2671,-166.5001 444.267,-163 434.267,-159.5001 434.2671,-166.5001"/>
</g>
<!-- AddressService -->
<g id="node7" class="node">
<title>AddressService</title>
<ellipse fill="#fdb462" stroke="#000000" cx="96" cy="-104" rx="71.766" ry="18"/>
<text text-anchor="middle" x="96" y="-99.8" font-family="Times,serif" font-size="14.00" fill="#000000">AddressService</text>
</g>
<!-- AddressService&#45;&gt;AddressModule -->
<g id="edge6" class="edge">
<title>AddressService&#45;&gt;AddressModule</title>
<path fill="none" stroke="#000000" d="M96,-122.2843C96,-143.3211 96,-175 96,-175 96,-175 434.1639,-175 434.1639,-175"/>
<polygon fill="#000000" stroke="#000000" points="434.1639,-178.5001 444.1639,-175 434.1639,-171.5001 434.1639,-178.5001"/>
</g>
</g>
</svg>
