<?xml version="1.0" encoding="UTF-8" standalone="no"?>
<!DOCTYPE svg PUBLIC "-//W3C//DTD SVG 1.1//EN"
 "http://www.w3.org/Graphics/SVG/1.1/DTD/svg11.dtd">
<!-- Generated by graphviz version 2.40.1 (20161225.0304)
 -->
<!-- Title: dependencies Pages: 1 -->
<svg width="1434pt" height="211pt"
 viewBox="0.00 0.00 1434.00 211.00" xmlns="http://www.w3.org/2000/svg" xmlns:xlink="http://www.w3.org/1999/xlink">
<g id="graph0" class="graph" transform="scale(1 1) rotate(0) translate(4 207)">
<title>dependencies</title>
<polygon fill="#ffffff" stroke="transparent" points="-4,4 -4,-207 1430,-207 1430,4 -4,4"/>
<text text-anchor="start" x="692.0091" y="-42.4" font-family="sans-serif" font-weight="bold" font-size="14.00" fill="#000000">Legend</text>
<polygon fill="#ffffb3" stroke="transparent" points="479,-10 479,-30 499,-30 499,-10 479,-10"/>
<text text-anchor="start" x="502.629" y="-15.4" font-family="sans-serif" font-size="14.00" fill="#000000"> &#160;Declarations</text>
<polygon fill="#8dd3c7" stroke="transparent" points="592,-10 592,-30 612,-30 612,-10 592,-10"/>
<text text-anchor="start" x="615.7251" y="-15.4" font-family="sans-serif" font-size="14.00" fill="#000000"> &#160;Module</text>
<polygon fill="#80b1d3" stroke="transparent" points="678,-10 678,-30 698,-30 698,-10 678,-10"/>
<text text-anchor="start" x="701.7812" y="-15.4" font-family="sans-serif" font-size="14.00" fill="#000000"> &#160;Bootstrap</text>
<polygon fill="#fdb462" stroke="transparent" points="775,-10 775,-30 795,-30 795,-10 775,-10"/>
<text text-anchor="start" x="798.6732" y="-15.4" font-family="sans-serif" font-size="14.00" fill="#000000"> &#160;Providers</text>
<polygon fill="#fb8072" stroke="transparent" points="871,-10 871,-30 891,-30 891,-10 871,-10"/>
<text text-anchor="start" x="894.7258" y="-15.4" font-family="sans-serif" font-size="14.00" fill="#000000"> &#160;Exports</text>
<g id="clust1" class="cluster">
<title>cluster_AddressModule</title>
<polygon fill="none" stroke="#000000" stroke-dasharray="1,5" points="8,-70 8,-195 1418,-195 1418,-70 8,-70"/>
</g>
<g id="clust2" class="cluster">
<title>cluster_AddressModule_declarations</title>
<polygon fill="none" stroke="#000000" points="711,-78 711,-130 1410,-130 1410,-78 711,-78"/>
</g>
<g id="clust7" class="cluster">
<title>cluster_AddressModule_imports</title>
<polygon fill="none" stroke="#000000" points="184,-78 184,-130 703,-130 703,-78 184,-78"/>
</g>
<g id="clust10" class="cluster">
<title>cluster_AddressModule_providers</title>
<polygon fill="none" stroke="#000000" points="16,-78 16,-130 176,-130 176,-78 16,-78"/>
</g>
<!-- AddressComponent -->
<g id="node1" class="node">
<title>AddressComponent</title>
<polygon fill="#ffffb3" stroke="#000000" points="1401.7036,-122 1274.2964,-122 1274.2964,-86 1401.7036,-86 1401.7036,-122"/>
<text text-anchor="middle" x="1338" y="-99.8" font-family="Times,serif" font-size="14.00" fill="#000000">AddressComponent</text>
</g>
<!-- AddressModule -->
<g id="node5" class="node">
<title>AddressModule</title>
<polygon fill="#8dd3c7" stroke="#000000" points="698.9216,-187 695.9216,-191 674.9216,-191 671.9216,-187 593.0784,-187 593.0784,-151 698.9216,-151 698.9216,-187"/>
<text text-anchor="middle" x="646" y="-164.8" font-family="Times,serif" font-size="14.00" fill="#000000">AddressModule</text>
</g>
<!-- AddressComponent&#45;&gt;AddressModule -->
<g id="edge1" class="edge">
<title>AddressComponent&#45;&gt;AddressModule</title>
<path fill="none" stroke="#000000" d="M1338,-122.0109C1338,-144.4852 1338,-180 1338,-180 1338,-180 708.8654,-180 708.8654,-180"/>
<polygon fill="#000000" stroke="#000000" points="708.8655,-176.5001 698.8654,-180 708.8654,-183.5001 708.8655,-176.5001"/>
</g>
<!-- AddAddressComponent -->
<g id="node2" class="node">
<title>AddAddressComponent</title>
<polygon fill="#ffffb3" stroke="#000000" points="1256.8103,-122 1105.1897,-122 1105.1897,-86 1256.8103,-86 1256.8103,-122"/>
<text text-anchor="middle" x="1181" y="-99.8" font-family="Times,serif" font-size="14.00" fill="#000000">AddAddressComponent</text>
</g>
<!-- AddAddressComponent&#45;&gt;AddressModule -->
<g id="edge2" class="edge">
<title>AddAddressComponent&#45;&gt;AddressModule</title>
<path fill="none" stroke="#000000" d="M1181,-122.1289C1181,-142.5724 1181,-173 1181,-173 1181,-173 708.762,-173 708.762,-173"/>
<polygon fill="#000000" stroke="#000000" points="708.7621,-169.5001 698.762,-173 708.762,-176.5001 708.7621,-169.5001"/>
</g>
<!-- DeliveryAddressComponent -->
<g id="node3" class="node">
<title>DeliveryAddressComponent</title>
<polygon fill="#ffffb3" stroke="#000000" points="1087.1811,-122 910.8189,-122 910.8189,-86 1087.1811,-86 1087.1811,-122"/>
<text text-anchor="middle" x="999" y="-99.8" font-family="Times,serif" font-size="14.00" fill="#000000">DeliveryAddressComponent</text>
</g>
<!-- DeliveryAddressComponent&#45;&gt;AddressModule -->
<g id="edge3" class="edge">
<title>DeliveryAddressComponent&#45;&gt;AddressModule</title>
<path fill="none" stroke="#000000" d="M999,-122.2667C999,-140.5552 999,-166 999,-166 999,-166 708.8477,-166 708.8477,-166"/>
<polygon fill="#000000" stroke="#000000" points="708.8477,-162.5001 698.8477,-166 708.8476,-169.5001 708.8477,-162.5001"/>
</g>
<!-- DeliveryOptionsComponent -->
<g id="node4" class="node">
<title>DeliveryOptionsComponent</title>
<polygon fill="#ffffb3" stroke="#000000" points="893.1428,-122 718.8572,-122 718.8572,-86 893.1428,-86 893.1428,-122"/>
<text text-anchor="middle" x="806" y="-99.8" font-family="Times,serif" font-size="14.00" fill="#000000">DeliveryOptionsComponent</text>
</g>
<!-- DeliveryOptionsComponent&#45;&gt;AddressModule -->
<g id="edge4" class="edge">
<title>DeliveryOptionsComponent&#45;&gt;AddressModule</title>
<path fill="none" stroke="#000000" d="M806,-122.0091C806,-138.0494 806,-159 806,-159 806,-159 708.8334,-159 708.8334,-159"/>
<polygon fill="#000000" stroke="#000000" points="708.8334,-155.5001 698.8334,-159 708.8334,-162.5001 708.8334,-155.5001"/>
</g>
<!-- RouterModule -->
<g id="node6" class="node">
<title>RouterModule</title>
<polygon fill="#8dd3c7" stroke="#000000" points="694.6528,-122 691.6528,-126 670.6528,-126 667.6528,-122 597.3472,-122 597.3472,-86 694.6528,-86 694.6528,-122"/>
<text text-anchor="middle" x="646" y="-99.8" font-family="Times,serif" font-size="14.00" fill="#000000">RouterModule</text>
</g>
<!-- RouterModule&#45;&gt;AddressModule -->
<g id="edge5" class="edge">
<title>RouterModule&#45;&gt;AddressModule</title>
<path fill="none" stroke="#000000" d="M646,-122.1061C646,-122.1061 646,-140.991 646,-140.991"/>
<polygon fill="#000000" stroke="#000000" points="642.5001,-140.9909 646,-150.991 649.5001,-140.991 642.5001,-140.9909"/>
</g>
<!-- CommonModule -->
<g id="node7" class="node">
<title>CommonModule</title>
<polygon fill="#8dd3c7" stroke="#000000" points="578.6681,-122 575.6681,-126 554.6681,-126 551.6681,-122 467.3319,-122 467.3319,-86 578.6681,-86 578.6681,-122"/>
<text text-anchor="middle" x="523" y="-99.8" font-family="Times,serif" font-size="14.00" fill="#000000">CommonModule</text>
</g>
<!-- CommonModule&#45;&gt;AddressModule -->
<g id="edge6" class="edge">
<title>CommonModule&#45;&gt;AddressModule</title>
<path fill="none" stroke="#000000" d="M523,-122.0091C523,-138.0494 523,-159 523,-159 523,-159 583.1231,-159 583.1231,-159"/>
<polygon fill="#000000" stroke="#000000" points="583.1231,-162.5001 593.1231,-159 583.1231,-155.5001 583.1231,-162.5001"/>
</g>
<!-- FormsModule -->
<g id="node8" class="node">
<title>FormsModule</title>
<polygon fill="#8dd3c7" stroke="#000000" points="449.8288,-122 446.8288,-126 425.8288,-126 422.8288,-122 354.1712,-122 354.1712,-86 449.8288,-86 449.8288,-122"/>
<text text-anchor="middle" x="402" y="-99.8" font-family="Times,serif" font-size="14.00" fill="#000000">FormsModule</text>
</g>
<!-- FormsModule&#45;&gt;AddressModule -->
<g id="edge7" class="edge">
<title>FormsModule&#45;&gt;AddressModule</title>
<path fill="none" stroke="#000000" d="M402,-122.2667C402,-140.5552 402,-166 402,-166 402,-166 583.0556,-166 583.0556,-166"/>
<polygon fill="#000000" stroke="#000000" points="583.0557,-169.5001 593.0556,-166 583.0556,-162.5001 583.0557,-169.5001"/>
</g>
<!-- ReactiveFormsModule -->
<g id="node9" class="node">
<title>ReactiveFormsModule</title>
<polygon fill="#8dd3c7" stroke="#000000" points="336.3047,-122 333.3047,-126 312.3047,-126 309.3047,-122 191.6953,-122 191.6953,-86 336.3047,-86 336.3047,-122"/>
<text text-anchor="middle" x="264" y="-99.8" font-family="Times,serif" font-size="14.00" fill="#000000">ReactiveFormsModule</text>
</g>
<!-- ReactiveFormsModule&#45;&gt;AddressModule -->
<g id="edge8" class="edge">
<title>ReactiveFormsModule&#45;&gt;AddressModule</title>
<path fill="none" stroke="#000000" d="M264,-122.1289C264,-142.5724 264,-173 264,-173 264,-173 583.2856,-173 583.2856,-173"/>
<polygon fill="#000000" stroke="#000000" points="583.2856,-176.5001 593.2856,-173 583.2856,-169.5001 583.2856,-176.5001"/>
</g>
<!-- AddressService -->
<g id="node10" class="node">
<title>AddressService</title>
<ellipse fill="#fdb462" stroke="#000000" cx="96" cy="-104" rx="71.766" ry="18"/>
<text text-anchor="middle" x="96" y="-99.8" font-family="Times,serif" font-size="14.00" fill="#000000">AddressService</text>
</g>
<!-- AddressService&#45;&gt;AddressModule -->
<g id="edge9" class="edge">
<title>AddressService&#45;&gt;AddressModule</title>
<path fill="none" stroke="#000000" d="M96,-122.0109C96,-144.4852 96,-180 96,-180 96,-180 583.2637,-180 583.2637,-180"/>
<polygon fill="#000000" stroke="#000000" points="583.2637,-183.5001 593.2637,-180 583.2637,-176.5001 583.2637,-183.5001"/>
</g>
</g>
</svg>
