<?xml version="1.0" encoding="UTF-8" standalone="no"?>
<!DOCTYPE svg PUBLIC "-//W3C//DTD SVG 1.1//EN"
 "http://www.w3.org/Graphics/SVG/1.1/DTD/svg11.dtd">
<!-- Generated by graphviz version 2.40.1 (20161225.0304)
 -->
<!-- Title: dependencies Pages: 1 -->
<svg width="3208pt" height="284pt"
 viewBox="0.00 0.00 3208.00 284.00" xmlns="http://www.w3.org/2000/svg" xmlns:xlink="http://www.w3.org/1999/xlink">
<g id="graph0" class="graph" transform="scale(1 1) rotate(0) translate(4 280)">
<title>dependencies</title>
<polygon fill="#ffffff" stroke="transparent" points="-4,4 -4,-280 3204,-280 3204,4 -4,4"/>
<text text-anchor="start" x="1579.0091" y="-42.4" font-family="sans-serif" font-weight="bold" font-size="14.00" fill="#000000">Legend</text>
<polygon fill="#ffffb3" stroke="transparent" points="1366,-10 1366,-30 1386,-30 1386,-10 1366,-10"/>
<text text-anchor="start" x="1389.629" y="-15.4" font-family="sans-serif" font-size="14.00" fill="#000000"> &#160;Declarations</text>
<polygon fill="#8dd3c7" stroke="transparent" points="1479,-10 1479,-30 1499,-30 1499,-10 1479,-10"/>
<text text-anchor="start" x="1502.7251" y="-15.4" font-family="sans-serif" font-size="14.00" fill="#000000"> &#160;Module</text>
<polygon fill="#80b1d3" stroke="transparent" points="1565,-10 1565,-30 1585,-30 1585,-10 1565,-10"/>
<text text-anchor="start" x="1588.7812" y="-15.4" font-family="sans-serif" font-size="14.00" fill="#000000"> &#160;Bootstrap</text>
<polygon fill="#fdb462" stroke="transparent" points="1662,-10 1662,-30 1682,-30 1682,-10 1662,-10"/>
<text text-anchor="start" x="1685.6732" y="-15.4" font-family="sans-serif" font-size="14.00" fill="#000000"> &#160;Providers</text>
<polygon fill="#fb8072" stroke="transparent" points="1758,-10 1758,-30 1778,-30 1778,-10 1758,-10"/>
<text text-anchor="start" x="1781.7258" y="-15.4" font-family="sans-serif" font-size="14.00" fill="#000000"> &#160;Exports</text>
<g id="clust1" class="cluster">
<title>cluster_LayoutModule</title>
<polygon fill="none" stroke="#000000" stroke-dasharray="1,5" points="8,-70 8,-268 3192,-268 3192,-70 8,-70"/>
</g>
<g id="clust2" class="cluster">
<title>cluster_LayoutModule_declarations</title>
<polygon fill="none" stroke="#000000" points="138,-78 138,-130 3184,-130 3184,-78 138,-78"/>
</g>
<g id="clust19" class="cluster">
<title>cluster_LayoutModule_imports</title>
<polygon fill="none" stroke="#000000" points="16,-78 16,-130 130,-130 130,-78 16,-78"/>
</g>
<g id="clust20" class="cluster">
<title>cluster_LayoutModule_exports</title>
<polygon fill="none" stroke="#000000" points="1407,-208 1407,-260 1688,-260 1688,-208 1407,-208"/>
</g>
<!-- BrandListComponent -->
<g id="node1" class="node">
<title>BrandListComponent</title>
<polygon fill="#ffffb3" stroke="#000000" points="3175.823,-122 3038.177,-122 3038.177,-86 3175.823,-86 3175.823,-122"/>
<text text-anchor="middle" x="3107" y="-99.8" font-family="Times,serif" font-size="14.00" fill="#000000">BrandListComponent</text>
</g>
<!-- LayoutModule -->
<g id="node17" class="node">
<title>LayoutModule</title>
<polygon fill="#8dd3c7" stroke="#000000" points="1597.7078,-187 1594.7078,-191 1573.7078,-191 1570.7078,-187 1498.2922,-187 1498.2922,-151 1597.7078,-151 1597.7078,-187"/>
<text text-anchor="middle" x="1548" y="-164.8" font-family="Times,serif" font-size="14.00" fill="#000000">LayoutModule</text>
</g>
<!-- BrandListComponent&#45;&gt;LayoutModule -->
<g id="edge1" class="edge">
<title>BrandListComponent&#45;&gt;LayoutModule</title>
<path fill="none" stroke="#000000" d="M3107,-122.3228C3107,-145.6602 3107,-183 3107,-183 3107,-183 1607.668,-183 1607.668,-183"/>
<polygon fill="#000000" stroke="#000000" points="1607.668,-179.5001 1597.668,-183 1607.6679,-186.5001 1607.668,-179.5001"/>
</g>
<!-- BrandLogoComponent -->
<g id="node2" class="node">
<title>BrandLogoComponent</title>
<polygon fill="#ffffb3" stroke="#000000" points="3020.5968,-122 2875.4032,-122 2875.4032,-86 3020.5968,-86 3020.5968,-122"/>
<text text-anchor="middle" x="2948" y="-99.8" font-family="Times,serif" font-size="14.00" fill="#000000">BrandLogoComponent</text>
</g>
<!-- BrandLogoComponent&#45;&gt;LayoutModule -->
<g id="edge2" class="edge">
<title>BrandLogoComponent&#45;&gt;LayoutModule</title>
<path fill="none" stroke="#000000" d="M2948,-122.1554C2948,-144.3519 2948,-179 2948,-179 2948,-179 1607.8267,-179 1607.8267,-179"/>
<polygon fill="#000000" stroke="#000000" points="1607.8268,-175.5001 1597.8267,-179 1607.8267,-182.5001 1607.8268,-175.5001"/>
</g>
<!-- BrandMenuDropdownComponent -->
<g id="node3" class="node">
<title>BrandMenuDropdownComponent</title>
<polygon fill="#ffffb3" stroke="#000000" points="2857.0772,-122 2648.9228,-122 2648.9228,-86 2857.0772,-86 2857.0772,-122"/>
<text text-anchor="middle" x="2753" y="-99.8" font-family="Times,serif" font-size="14.00" fill="#000000">BrandMenuDropdownComponent</text>
</g>
<!-- BrandMenuDropdownComponent&#45;&gt;LayoutModule -->
<g id="edge3" class="edge">
<title>BrandMenuDropdownComponent&#45;&gt;LayoutModule</title>
<path fill="none" stroke="#000000" d="M2753,-122.2843C2753,-143.3211 2753,-175 2753,-175 2753,-175 1607.8629,-175 1607.8629,-175"/>
<polygon fill="#000000" stroke="#000000" points="1607.863,-171.5001 1597.8629,-175 1607.8629,-178.5001 1607.863,-171.5001"/>
</g>
<!-- CategoriesDetailsComponent -->
<g id="node4" class="node">
<title>CategoriesDetailsComponent</title>
<polygon fill="#ffffb3" stroke="#000000" points="2631.3515,-122 2450.6485,-122 2450.6485,-86 2631.3515,-86 2631.3515,-122"/>
<text text-anchor="middle" x="2541" y="-99.8" font-family="Times,serif" font-size="14.00" fill="#000000">CategoriesDetailsComponent</text>
</g>
<!-- CategoriesDetailsComponent&#45;&gt;LayoutModule -->
<g id="edge4" class="edge">
<title>CategoriesDetailsComponent&#45;&gt;LayoutModule</title>
<path fill="none" stroke="#000000" d="M2541,-122.308C2541,-142.1455 2541,-171 2541,-171 2541,-171 1607.9235,-171 1607.9235,-171"/>
<polygon fill="#000000" stroke="#000000" points="1607.9236,-167.5001 1597.9235,-171 1607.9235,-174.5001 1607.9236,-167.5001"/>
</g>
<!-- CategoriesListComponent -->
<g id="node5" class="node">
<title>CategoriesListComponent</title>
<polygon fill="#ffffb3" stroke="#000000" points="2432.4776,-122 2269.5224,-122 2269.5224,-86 2432.4776,-86 2432.4776,-122"/>
<text text-anchor="middle" x="2351" y="-99.8" font-family="Times,serif" font-size="14.00" fill="#000000">CategoriesListComponent</text>
</g>
<!-- CategoriesListComponent&#45;&gt;LayoutModule -->
<g id="edge5" class="edge">
<title>CategoriesListComponent&#45;&gt;LayoutModule</title>
<path fill="none" stroke="#000000" d="M2351,-122.2222C2351,-140.8285 2351,-167 2351,-167 2351,-167 1607.6253,-167 1607.6253,-167"/>
<polygon fill="#000000" stroke="#000000" points="1607.6253,-163.5001 1597.6253,-167 1607.6252,-170.5001 1607.6253,-163.5001"/>
</g>
<!-- CategoriesMenuDropdownComponent -->
<g id="node6" class="node">
<title>CategoriesMenuDropdownComponent</title>
<polygon fill="#ffffb3" stroke="#000000" points="2251.7324,-122 2018.2676,-122 2018.2676,-86 2251.7324,-86 2251.7324,-122"/>
<text text-anchor="middle" x="2135" y="-99.8" font-family="Times,serif" font-size="14.00" fill="#000000">CategoriesMenuDropdownComponent</text>
</g>
<!-- CategoriesMenuDropdownComponent&#45;&gt;LayoutModule -->
<g id="edge6" class="edge">
<title>CategoriesMenuDropdownComponent&#45;&gt;LayoutModule</title>
<path fill="none" stroke="#000000" d="M2135,-122.0225C2135,-139.3734 2135,-163 2135,-163 2135,-163 1607.7941,-163 1607.7941,-163"/>
<polygon fill="#000000" stroke="#000000" points="1607.7941,-159.5001 1597.7941,-163 1607.794,-166.5001 1607.7941,-159.5001"/>
</g>
<!-- CategoryMobileMenuComponent -->
<g id="node7" class="node">
<title>CategoryMobileMenuComponent</title>
<polygon fill="#ffffb3" stroke="#000000" points="1999.7492,-122 1794.2508,-122 1794.2508,-86 1999.7492,-86 1999.7492,-122"/>
<text text-anchor="middle" x="1897" y="-99.8" font-family="Times,serif" font-size="14.00" fill="#000000">CategoryMobileMenuComponent</text>
</g>
<!-- CategoryMobileMenuComponent&#45;&gt;LayoutModule -->
<g id="edge7" class="edge">
<title>CategoryMobileMenuComponent&#45;&gt;LayoutModule</title>
<path fill="none" stroke="#000000" d="M1897,-122.0091C1897,-138.0494 1897,-159 1897,-159 1897,-159 1607.6326,-159 1607.6326,-159"/>
<polygon fill="#000000" stroke="#000000" points="1607.6326,-155.5001 1597.6326,-159 1607.6325,-162.5001 1607.6326,-155.5001"/>
</g>
<!-- FooterComponent -->
<g id="node8" class="node">
<title>FooterComponent</title>
<polygon fill="#ffffb3" stroke="#000000" points="1775.8809,-122 1658.1191,-122 1658.1191,-86 1775.8809,-86 1775.8809,-122"/>
<text text-anchor="middle" x="1717" y="-99.8" font-family="Times,serif" font-size="14.00" fill="#000000">FooterComponent</text>
</g>
<!-- FooterComponent&#45;&gt;LayoutModule -->
<g id="edge8" class="edge">
<title>FooterComponent&#45;&gt;LayoutModule</title>
<path fill="none" stroke="#000000" d="M1668.875,-122.1243C1668.875,-136.7832 1668.875,-155 1668.875,-155 1668.875,-155 1607.8624,-155 1607.8624,-155"/>
<polygon fill="#000000" stroke="#000000" points="1607.8624,-151.5001 1597.8624,-155 1607.8623,-158.5001 1607.8624,-151.5001"/>
</g>
<!-- FooterContactInfoComponent -->
<g id="node9" class="node">
<title>FooterContactInfoComponent</title>
<polygon fill="#ffffb3" stroke="#000000" points="1640.2492,-122 1455.7508,-122 1455.7508,-86 1640.2492,-86 1640.2492,-122"/>
<text text-anchor="middle" x="1548" y="-99.8" font-family="Times,serif" font-size="14.00" fill="#000000">FooterContactInfoComponent</text>
</g>
<!-- FooterContactInfoComponent&#45;&gt;LayoutModule -->
<g id="edge9" class="edge">
<title>FooterContactInfoComponent&#45;&gt;LayoutModule</title>
<path fill="none" stroke="#000000" d="M1548,-122.1061C1548,-122.1061 1548,-140.991 1548,-140.991"/>
<polygon fill="#000000" stroke="#000000" points="1544.5001,-140.9909 1548,-150.991 1551.5001,-140.991 1544.5001,-140.9909"/>
</g>
<!-- FooterQuickLinksComponent -->
<g id="node10" class="node">
<title>FooterQuickLinksComponent</title>
<polygon fill="#ffffb3" stroke="#000000" points="1437.9804,-122 1254.0196,-122 1254.0196,-86 1437.9804,-86 1437.9804,-122"/>
<text text-anchor="middle" x="1346" y="-99.8" font-family="Times,serif" font-size="14.00" fill="#000000">FooterQuickLinksComponent</text>
</g>
<!-- FooterQuickLinksComponent&#45;&gt;LayoutModule -->
<g id="edge10" class="edge">
<title>FooterQuickLinksComponent&#45;&gt;LayoutModule</title>
<path fill="none" stroke="#000000" d="M1426.6843,-122.1243C1426.6843,-136.7832 1426.6843,-155 1426.6843,-155 1426.6843,-155 1488.3062,-155 1488.3062,-155"/>
<polygon fill="#000000" stroke="#000000" points="1488.3062,-158.5001 1498.3062,-155 1488.3062,-151.5001 1488.3062,-158.5001"/>
</g>
<!-- FooterSocialLinksComponent -->
<g id="node11" class="node">
<title>FooterSocialLinksComponent</title>
<polygon fill="#ffffb3" stroke="#000000" points="1236.2618,-122 1051.7382,-122 1051.7382,-86 1236.2618,-86 1236.2618,-122"/>
<text text-anchor="middle" x="1144" y="-99.8" font-family="Times,serif" font-size="14.00" fill="#000000">FooterSocialLinksComponent</text>
</g>
<!-- FooterSocialLinksComponent&#45;&gt;LayoutModule -->
<g id="edge11" class="edge">
<title>FooterSocialLinksComponent&#45;&gt;LayoutModule</title>
<path fill="none" stroke="#000000" d="M1144,-122.0091C1144,-138.0494 1144,-159 1144,-159 1144,-159 1488.0565,-159 1488.0565,-159"/>
<polygon fill="#000000" stroke="#000000" points="1488.0565,-162.5001 1498.0565,-159 1488.0564,-155.5001 1488.0565,-162.5001"/>
</g>
<!-- HeaderCartComponent -->
<g id="node12" class="node">
<title>HeaderCartComponent</title>
<polygon fill="#ffffb3" stroke="#000000" points="1033.8459,-122 888.1541,-122 888.1541,-86 1033.8459,-86 1033.8459,-122"/>
<text text-anchor="middle" x="961" y="-99.8" font-family="Times,serif" font-size="14.00" fill="#000000">HeaderCartComponent</text>
</g>
<!-- HeaderCartComponent&#45;&gt;LayoutModule -->
<g id="edge12" class="edge">
<title>HeaderCartComponent&#45;&gt;LayoutModule</title>
<path fill="none" stroke="#000000" d="M961,-122.0225C961,-139.3734 961,-163 961,-163 961,-163 1488.2059,-163 1488.2059,-163"/>
<polygon fill="#000000" stroke="#000000" points="1488.206,-166.5001 1498.2059,-163 1488.2059,-159.5001 1488.206,-166.5001"/>
</g>
<!-- HeaderComponent -->
<g id="node13" class="node">
<title>HeaderComponent</title>
<polygon fill="#ffffb3" stroke="#000000" points="869.7437,-122 748.2563,-122 748.2563,-86 869.7437,-86 869.7437,-122"/>
<text text-anchor="middle" x="809" y="-99.8" font-family="Times,serif" font-size="14.00" fill="#000000">HeaderComponent</text>
</g>
<!-- HeaderComponent&#45;&gt;LayoutModule -->
<g id="edge13" class="edge">
<title>HeaderComponent&#45;&gt;LayoutModule</title>
<path fill="none" stroke="#000000" d="M809,-122.2222C809,-140.8285 809,-167 809,-167 809,-167 1488.3646,-167 1488.3646,-167"/>
<polygon fill="#000000" stroke="#000000" points="1488.3647,-170.5001 1498.3646,-167 1488.3646,-163.5001 1488.3647,-170.5001"/>
</g>
<!-- HeaderHelpDropdownComponent -->
<g id="node14" class="node">
<title>HeaderHelpDropdownComponent</title>
<polygon fill="#ffffb3" stroke="#000000" points="730.3291,-122 521.6709,-122 521.6709,-86 730.3291,-86 730.3291,-122"/>
<text text-anchor="middle" x="626" y="-99.8" font-family="Times,serif" font-size="14.00" fill="#000000">HeaderHelpDropdownComponent</text>
</g>
<!-- HeaderHelpDropdownComponent&#45;&gt;LayoutModule -->
<g id="edge14" class="edge">
<title>HeaderHelpDropdownComponent&#45;&gt;LayoutModule</title>
<path fill="none" stroke="#000000" d="M626,-122.308C626,-142.1455 626,-171 626,-171 626,-171 1488.1024,-171 1488.1024,-171"/>
<polygon fill="#000000" stroke="#000000" points="1488.1024,-174.5001 1498.1024,-171 1488.1023,-167.5001 1488.1024,-174.5001"/>
</g>
<!-- HeaderSearchComponent -->
<g id="node15" class="node">
<title>HeaderSearchComponent</title>
<polygon fill="#ffffb3" stroke="#000000" points="503.8305,-122 344.1695,-122 344.1695,-86 503.8305,-86 503.8305,-122"/>
<text text-anchor="middle" x="424" y="-99.8" font-family="Times,serif" font-size="14.00" fill="#000000">HeaderSearchComponent</text>
</g>
<!-- HeaderSearchComponent&#45;&gt;LayoutModule -->
<g id="edge15" class="edge">
<title>HeaderSearchComponent&#45;&gt;LayoutModule</title>
<path fill="none" stroke="#000000" d="M424,-122.2843C424,-143.3211 424,-175 424,-175 424,-175 1488.2528,-175 1488.2528,-175"/>
<polygon fill="#000000" stroke="#000000" points="1488.2529,-178.5001 1498.2528,-175 1488.2528,-171.5001 1488.2529,-178.5001"/>
</g>
<!-- ProfileDropdownComponent -->
<g id="node16" class="node">
<title>ProfileDropdownComponent</title>
<polygon fill="#ffffb3" stroke="#000000" points="325.8061,-122 146.1939,-122 146.1939,-86 325.8061,-86 325.8061,-122"/>
<text text-anchor="middle" x="236" y="-99.8" font-family="Times,serif" font-size="14.00" fill="#000000">ProfileDropdownComponent</text>
</g>
<!-- ProfileDropdownComponent&#45;&gt;LayoutModule -->
<g id="edge16" class="edge">
<title>ProfileDropdownComponent&#45;&gt;LayoutModule</title>
<path fill="none" stroke="#000000" d="M236,-122.1554C236,-144.3519 236,-179 236,-179 236,-179 1488.1701,-179 1488.1701,-179"/>
<polygon fill="#000000" stroke="#000000" points="1488.1702,-182.5001 1498.1701,-179 1488.1701,-175.5001 1488.1702,-182.5001"/>
</g>
<!-- FooterComponent  -->
<g id="node19" class="node">
<title>FooterComponent </title>
<polygon fill="#fb8072" stroke="#000000" points="1679.8814,-252 1558.1186,-252 1558.1186,-216 1679.8814,-216 1679.8814,-252"/>
<text text-anchor="middle" x="1619" y="-229.8" font-family="Times,serif" font-size="14.00" fill="#000000">FooterComponent </text>
</g>
<!-- LayoutModule&#45;&gt;FooterComponent  -->
<g id="edge18" class="edge">
<title>LayoutModule&#45;&gt;FooterComponent </title>
<path fill="none" stroke="#000000" stroke-dasharray="5,2" d="M1577.9567,-187.1061C1577.9567,-187.1061 1577.9567,-205.991 1577.9567,-205.991"/>
<polygon fill="#000000" stroke="#000000" points="1574.4568,-205.9909 1577.9567,-215.991 1581.4568,-205.991 1574.4568,-205.9909"/>
</g>
<!-- HeaderComponent  -->
<g id="node20" class="node">
<title>HeaderComponent </title>
<polygon fill="#fb8072" stroke="#000000" points="1540.7436,-252 1415.2564,-252 1415.2564,-216 1540.7436,-216 1540.7436,-252"/>
<text text-anchor="middle" x="1478" y="-229.8" font-family="Times,serif" font-size="14.00" fill="#000000">HeaderComponent </text>
</g>
<!-- LayoutModule&#45;&gt;HeaderComponent  -->
<g id="edge19" class="edge">
<title>LayoutModule&#45;&gt;HeaderComponent </title>
<path fill="none" stroke="#000000" stroke-dasharray="5,2" d="M1519.509,-187.1061C1519.509,-187.1061 1519.509,-205.991 1519.509,-205.991"/>
<polygon fill="#000000" stroke="#000000" points="1516.009,-205.9909 1519.509,-215.991 1523.009,-205.991 1516.009,-205.9909"/>
</g>
<!-- SharedModule -->
<g id="node18" class="node">
<title>SharedModule</title>
<polygon fill="#8dd3c7" stroke="#000000" points="122.4231,-122 119.4231,-126 98.4231,-126 95.4231,-122 23.5769,-122 23.5769,-86 122.4231,-86 122.4231,-122"/>
<text text-anchor="middle" x="73" y="-99.8" font-family="Times,serif" font-size="14.00" fill="#000000">SharedModule</text>
</g>
<!-- SharedModule&#45;&gt;LayoutModule -->
<g id="edge17" class="edge">
<title>SharedModule&#45;&gt;LayoutModule</title>
<path fill="none" stroke="#000000" d="M73,-122.3228C73,-145.6602 73,-183 73,-183 73,-183 1488.0789,-183 1488.0789,-183"/>
<polygon fill="#000000" stroke="#000000" points="1488.079,-186.5001 1498.0789,-183 1488.0789,-179.5001 1488.079,-186.5001"/>
</g>
</g>
</svg>
