<?xml version="1.0" encoding="UTF-8" standalone="no"?>
<!DOCTYPE svg PUBLIC "-//W3C//DTD SVG 1.1//EN"
 "http://www.w3.org/Graphics/SVG/1.1/DTD/svg11.dtd">
<!-- Generated by graphviz version 2.40.1 (20161225.0304)
 -->
<!-- Title: dependencies Pages: 1 -->
<svg width="1239pt" height="284pt"
 viewBox="0.00 0.00 1239.00 284.00" xmlns="http://www.w3.org/2000/svg" xmlns:xlink="http://www.w3.org/1999/xlink">
<g id="graph0" class="graph" transform="scale(1 1) rotate(0) translate(4 280)">
<title>dependencies</title>
<polygon fill="#ffffff" stroke="transparent" points="-4,4 -4,-280 1235,-280 1235,4 -4,4"/>
<text text-anchor="start" x="594.5091" y="-42.4" font-family="sans-serif" font-weight="bold" font-size="14.00" fill="#000000">Legend</text>
<polygon fill="#ffffb3" stroke="transparent" points="381.5,-10 381.5,-30 401.5,-30 401.5,-10 381.5,-10"/>
<text text-anchor="start" x="405.129" y="-15.4" font-family="sans-serif" font-size="14.00" fill="#000000"> &#160;Declarations</text>
<polygon fill="#8dd3c7" stroke="transparent" points="494.5,-10 494.5,-30 514.5,-30 514.5,-10 494.5,-10"/>
<text text-anchor="start" x="518.2251" y="-15.4" font-family="sans-serif" font-size="14.00" fill="#000000"> &#160;Module</text>
<polygon fill="#80b1d3" stroke="transparent" points="580.5,-10 580.5,-30 600.5,-30 600.5,-10 580.5,-10"/>
<text text-anchor="start" x="604.2812" y="-15.4" font-family="sans-serif" font-size="14.00" fill="#000000"> &#160;Bootstrap</text>
<polygon fill="#fdb462" stroke="transparent" points="677.5,-10 677.5,-30 697.5,-30 697.5,-10 677.5,-10"/>
<text text-anchor="start" x="701.1732" y="-15.4" font-family="sans-serif" font-size="14.00" fill="#000000"> &#160;Providers</text>
<polygon fill="#fb8072" stroke="transparent" points="773.5,-10 773.5,-30 793.5,-30 793.5,-10 773.5,-10"/>
<text text-anchor="start" x="797.2258" y="-15.4" font-family="sans-serif" font-size="14.00" fill="#000000"> &#160;Exports</text>
<g id="clust1" class="cluster">
<title>cluster_AppModule</title>
<polygon fill="none" stroke="#000000" stroke-dasharray="1,5" points="8,-70 8,-268 1223,-268 1223,-70 8,-70"/>
</g>
<g id="clust2" class="cluster">
<title>cluster_AppModule_declarations</title>
<polygon fill="none" stroke="#000000" points="711,-78 711,-130 1215,-130 1215,-78 711,-78"/>
</g>
<g id="clust6" class="cluster">
<title>cluster_AppModule_imports</title>
<polygon fill="none" stroke="#000000" points="184,-78 184,-130 703,-130 703,-78 184,-78"/>
</g>
<g id="clust8" class="cluster">
<title>cluster_AppModule_bootstrap</title>
<polygon fill="none" stroke="#000000" points="518,-208 518,-260 642,-260 642,-208 518,-208"/>
</g>
<g id="clust9" class="cluster">
<title>cluster_AppModule_providers</title>
<polygon fill="none" stroke="#000000" points="16,-78 16,-130 176,-130 176,-78 16,-78"/>
</g>
<!-- AppComponent -->
<g id="node1" class="node">
<title>AppComponent</title>
<polygon fill="#ffffb3" stroke="#000000" points="1206.9399,-122 1101.0601,-122 1101.0601,-86 1206.9399,-86 1206.9399,-122"/>
<text text-anchor="middle" x="1154" y="-99.8" font-family="Times,serif" font-size="14.00" fill="#000000">AppComponent</text>
</g>
<!-- AppModule -->
<g id="node4" class="node">
<title>AppModule</title>
<polygon fill="#8dd3c7" stroke="#000000" points="621.6571,-187 618.6571,-191 597.6571,-191 594.6571,-187 538.3429,-187 538.3429,-151 621.6571,-151 621.6571,-187"/>
<text text-anchor="middle" x="580" y="-164.8" font-family="Times,serif" font-size="14.00" fill="#000000">AppModule</text>
</g>
<!-- AppComponent&#45;&gt;AppModule -->
<g id="edge1" class="edge">
<title>AppComponent&#45;&gt;AppModule</title>
<path fill="none" stroke="#000000" d="M1154,-122.0109C1154,-144.4852 1154,-180 1154,-180 1154,-180 631.743,-180 631.743,-180"/>
<polygon fill="#000000" stroke="#000000" points="631.7431,-176.5001 621.743,-180 631.743,-183.5001 631.7431,-176.5001"/>
</g>
<!-- CheckoutFooterComponent -->
<g id="node2" class="node">
<title>CheckoutFooterComponent</title>
<polygon fill="#ffffb3" stroke="#000000" points="1083.5378,-122 912.4622,-122 912.4622,-86 1083.5378,-86 1083.5378,-122"/>
<text text-anchor="middle" x="998" y="-99.8" font-family="Times,serif" font-size="14.00" fill="#000000">CheckoutFooterComponent</text>
</g>
<!-- CheckoutFooterComponent&#45;&gt;AppModule -->
<g id="edge2" class="edge">
<title>CheckoutFooterComponent&#45;&gt;AppModule</title>
<path fill="none" stroke="#000000" d="M998,-122.1289C998,-142.5724 998,-173 998,-173 998,-173 631.9933,-173 631.9933,-173"/>
<polygon fill="#000000" stroke="#000000" points="631.9933,-169.5001 621.9933,-173 631.9932,-176.5001 631.9933,-169.5001"/>
</g>
<!-- CheckoutHeaderComponent -->
<g id="node3" class="node">
<title>CheckoutHeaderComponent</title>
<polygon fill="#ffffb3" stroke="#000000" points="894.9003,-122 719.0997,-122 719.0997,-86 894.9003,-86 894.9003,-122"/>
<text text-anchor="middle" x="807" y="-99.8" font-family="Times,serif" font-size="14.00" fill="#000000">CheckoutHeaderComponent</text>
</g>
<!-- CheckoutHeaderComponent&#45;&gt;AppModule -->
<g id="edge3" class="edge">
<title>CheckoutHeaderComponent&#45;&gt;AppModule</title>
<path fill="none" stroke="#000000" d="M807,-122.2667C807,-140.5552 807,-166 807,-166 807,-166 631.8998,-166 631.8998,-166"/>
<polygon fill="#000000" stroke="#000000" points="631.8999,-162.5001 621.8998,-166 631.8998,-169.5001 631.8999,-162.5001"/>
</g>
<!-- AppComponent  -->
<g id="node10" class="node">
<title>AppComponent </title>
<polygon fill="#80b1d3" stroke="#000000" points="634.439,-252 525.561,-252 525.561,-216 634.439,-216 634.439,-252"/>
<text text-anchor="middle" x="580" y="-229.8" font-family="Times,serif" font-size="14.00" fill="#000000">AppComponent </text>
</g>
<!-- AppModule&#45;&gt;AppComponent  -->
<g id="edge9" class="edge">
<title>AppModule&#45;&gt;AppComponent </title>
<path fill="none" stroke="#000000" stroke-dasharray="1,5" d="M580,-187.1061C580,-187.1061 580,-205.991 580,-205.991"/>
<polygon fill="#000000" stroke="#000000" points="576.5001,-205.9909 580,-215.991 583.5001,-205.991 576.5001,-205.9909"/>
</g>
<!-- ! -->
<g id="node5" class="node">
<title>!</title>
<polygon fill="#8dd3c7" stroke="#000000" points="695,-122 692,-126 671,-126 668,-122 641,-122 641,-86 695,-86 695,-122"/>
<text text-anchor="middle" x="668" y="-99.8" font-family="Times,serif" font-size="14.00" fill="#000000">!</text>
</g>
<!-- !&#45;&gt;AppModule -->
<g id="edge4" class="edge">
<title>!&#45;&gt;AppModule</title>
<path fill="none" stroke="#000000" d="M668,-122.0091C668,-138.0494 668,-159 668,-159 668,-159 631.6806,-159 631.6806,-159"/>
<polygon fill="#000000" stroke="#000000" points="631.6807,-155.5001 621.6806,-159 631.6806,-162.5001 631.6807,-155.5001"/>
</g>
<!-- CoreModule -->
<g id="node6" class="node">
<title>CoreModule</title>
<polygon fill="#8dd3c7" stroke="#000000" points="623.2619,-122 620.2619,-126 599.2619,-126 596.2619,-122 536.7381,-122 536.7381,-86 623.2619,-86 623.2619,-122"/>
<text text-anchor="middle" x="580" y="-99.8" font-family="Times,serif" font-size="14.00" fill="#000000">CoreModule</text>
</g>
<!-- CoreModule&#45;&gt;AppModule -->
<g id="edge5" class="edge">
<title>CoreModule&#45;&gt;AppModule</title>
<path fill="none" stroke="#000000" d="M580,-122.1061C580,-122.1061 580,-140.991 580,-140.991"/>
<polygon fill="#000000" stroke="#000000" points="576.5001,-140.9909 580,-150.991 583.5001,-140.991 576.5001,-140.9909"/>
</g>
<!-- HomeModule -->
<g id="node7" class="node">
<title>HomeModule</title>
<polygon fill="#8dd3c7" stroke="#000000" points="518.7619,-122 515.7619,-126 494.7619,-126 491.7619,-122 425.2381,-122 425.2381,-86 518.7619,-86 518.7619,-122"/>
<text text-anchor="middle" x="472" y="-99.8" font-family="Times,serif" font-size="14.00" fill="#000000">HomeModule</text>
</g>
<!-- HomeModule&#45;&gt;AppModule -->
<g id="edge6" class="edge">
<title>HomeModule&#45;&gt;AppModule</title>
<path fill="none" stroke="#000000" d="M472,-122.0091C472,-138.0494 472,-159 472,-159 472,-159 528.2444,-159 528.2444,-159"/>
<polygon fill="#000000" stroke="#000000" points="528.2444,-162.5001 538.2444,-159 528.2443,-155.5001 528.2444,-162.5001"/>
</g>
<!-- LayoutModule -->
<g id="node8" class="node">
<title>LayoutModule</title>
<polygon fill="#8dd3c7" stroke="#000000" points="407.7078,-122 404.7078,-126 383.7078,-126 380.7078,-122 308.2922,-122 308.2922,-86 407.7078,-86 407.7078,-122"/>
<text text-anchor="middle" x="358" y="-99.8" font-family="Times,serif" font-size="14.00" fill="#000000">LayoutModule</text>
</g>
<!-- LayoutModule&#45;&gt;AppModule -->
<g id="edge7" class="edge">
<title>LayoutModule&#45;&gt;AppModule</title>
<path fill="none" stroke="#000000" d="M358,-122.2667C358,-140.5552 358,-166 358,-166 358,-166 528.2435,-166 528.2435,-166"/>
<polygon fill="#000000" stroke="#000000" points="528.2435,-169.5001 538.2435,-166 528.2435,-162.5001 528.2435,-169.5001"/>
</g>
<!-- SharedModule -->
<g id="node9" class="node">
<title>SharedModule</title>
<polygon fill="#8dd3c7" stroke="#000000" points="290.4231,-122 287.4231,-126 266.4231,-126 263.4231,-122 191.5769,-122 191.5769,-86 290.4231,-86 290.4231,-122"/>
<text text-anchor="middle" x="241" y="-99.8" font-family="Times,serif" font-size="14.00" fill="#000000">SharedModule</text>
</g>
<!-- SharedModule&#45;&gt;AppModule -->
<g id="edge8" class="edge">
<title>SharedModule&#45;&gt;AppModule</title>
<path fill="none" stroke="#000000" d="M241,-122.1289C241,-142.5724 241,-173 241,-173 241,-173 528.0919,-173 528.0919,-173"/>
<polygon fill="#000000" stroke="#000000" points="528.092,-176.5001 538.0919,-173 528.0919,-169.5001 528.092,-176.5001"/>
</g>
<!-- AddressService -->
<g id="node11" class="node">
<title>AddressService</title>
<ellipse fill="#fdb462" stroke="#000000" cx="96" cy="-104" rx="71.766" ry="18"/>
<text text-anchor="middle" x="96" y="-99.8" font-family="Times,serif" font-size="14.00" fill="#000000">AddressService</text>
</g>
<!-- AddressService&#45;&gt;AppModule -->
<g id="edge10" class="edge">
<title>AddressService&#45;&gt;AppModule</title>
<path fill="none" stroke="#000000" d="M96,-122.0109C96,-144.4852 96,-180 96,-180 96,-180 528.3155,-180 528.3155,-180"/>
<polygon fill="#000000" stroke="#000000" points="528.3156,-183.5001 538.3155,-180 528.3155,-176.5001 528.3156,-183.5001"/>
</g>
</g>
</svg>
