<?xml version="1.0" encoding="UTF-8" standalone="no"?>
<!DOCTYPE svg PUBLIC "-//W3C//DTD SVG 1.1//EN"
 "http://www.w3.org/Graphics/SVG/1.1/DTD/svg11.dtd">
<!-- Generated by graphviz version 2.40.1 (20161225.0304)
 -->
<!-- Title: dependencies Pages: 1 -->
<svg width="1751pt" height="284pt"
 viewBox="0.00 0.00 1751.00 284.00" xmlns="http://www.w3.org/2000/svg" xmlns:xlink="http://www.w3.org/1999/xlink">
<g id="graph0" class="graph" transform="scale(1 1) rotate(0) translate(4 280)">
<title>dependencies</title>
<polygon fill="#ffffff" stroke="transparent" points="-4,4 -4,-280 1747,-280 1747,4 -4,4"/>
<text text-anchor="start" x="850.5091" y="-42.4" font-family="sans-serif" font-weight="bold" font-size="14.00" fill="#000000">Legend</text>
<polygon fill="#ffffb3" stroke="transparent" points="637.5,-10 637.5,-30 657.5,-30 657.5,-10 637.5,-10"/>
<text text-anchor="start" x="661.129" y="-15.4" font-family="sans-serif" font-size="14.00" fill="#000000"> &#160;Declarations</text>
<polygon fill="#8dd3c7" stroke="transparent" points="750.5,-10 750.5,-30 770.5,-30 770.5,-10 750.5,-10"/>
<text text-anchor="start" x="774.2251" y="-15.4" font-family="sans-serif" font-size="14.00" fill="#000000"> &#160;Module</text>
<polygon fill="#80b1d3" stroke="transparent" points="836.5,-10 836.5,-30 856.5,-30 856.5,-10 836.5,-10"/>
<text text-anchor="start" x="860.2812" y="-15.4" font-family="sans-serif" font-size="14.00" fill="#000000"> &#160;Bootstrap</text>
<polygon fill="#fdb462" stroke="transparent" points="933.5,-10 933.5,-30 953.5,-30 953.5,-10 933.5,-10"/>
<text text-anchor="start" x="957.1732" y="-15.4" font-family="sans-serif" font-size="14.00" fill="#000000"> &#160;Providers</text>
<polygon fill="#fb8072" stroke="transparent" points="1029.5,-10 1029.5,-30 1049.5,-30 1049.5,-10 1029.5,-10"/>
<text text-anchor="start" x="1053.2258" y="-15.4" font-family="sans-serif" font-size="14.00" fill="#000000"> &#160;Exports</text>
<g id="clust1" class="cluster">
<title>cluster_AppModule</title>
<polygon fill="none" stroke="#000000" stroke-dasharray="1,5" points="8,-70 8,-268 1735,-268 1735,-70 8,-70"/>
</g>
<g id="clust2" class="cluster">
<title>cluster_AppModule_declarations</title>
<polygon fill="none" stroke="#000000" points="1223,-78 1223,-130 1727,-130 1727,-78 1223,-78"/>
</g>
<g id="clust6" class="cluster">
<title>cluster_AppModule_imports</title>
<polygon fill="none" stroke="#000000" points="16,-78 16,-130 1215,-130 1215,-78 16,-78"/>
</g>
<g id="clust8" class="cluster">
<title>cluster_AppModule_bootstrap</title>
<polygon fill="none" stroke="#000000" points="621,-208 621,-260 745,-260 745,-208 621,-208"/>
</g>
<!-- AppComponent -->
<g id="node1" class="node">
<title>AppComponent</title>
<polygon fill="#ffffb3" stroke="#000000" points="1718.9399,-122 1613.0601,-122 1613.0601,-86 1718.9399,-86 1718.9399,-122"/>
<text text-anchor="middle" x="1666" y="-99.8" font-family="Times,serif" font-size="14.00" fill="#000000">AppComponent</text>
</g>
<!-- AppModule -->
<g id="node4" class="node">
<title>AppModule</title>
<polygon fill="#8dd3c7" stroke="#000000" points="724.6571,-187 721.6571,-191 700.6571,-191 697.6571,-187 641.3429,-187 641.3429,-151 724.6571,-151 724.6571,-187"/>
<text text-anchor="middle" x="683" y="-164.8" font-family="Times,serif" font-size="14.00" fill="#000000">AppModule</text>
</g>
<!-- AppComponent&#45;&gt;AppModule -->
<g id="edge1" class="edge">
<title>AppComponent&#45;&gt;AppModule</title>
<path fill="none" stroke="#000000" d="M1666,-122.2479C1666,-145.0179 1666,-181 1666,-181 1666,-181 734.9238,-181 734.9238,-181"/>
<polygon fill="#000000" stroke="#000000" points="734.9239,-177.5001 724.9238,-181 734.9238,-184.5001 734.9239,-177.5001"/>
</g>
<!-- CheckoutHeaderComponent -->
<g id="node2" class="node">
<title>CheckoutHeaderComponent</title>
<polygon fill="#ffffb3" stroke="#000000" points="1595.9003,-122 1420.0997,-122 1420.0997,-86 1595.9003,-86 1595.9003,-122"/>
<text text-anchor="middle" x="1508" y="-99.8" font-family="Times,serif" font-size="14.00" fill="#000000">CheckoutHeaderComponent</text>
</g>
<!-- CheckoutHeaderComponent&#45;&gt;AppModule -->
<g id="edge2" class="edge">
<title>CheckoutHeaderComponent&#45;&gt;AppModule</title>
<path fill="none" stroke="#000000" d="M1508,-122.2843C1508,-143.3211 1508,-175 1508,-175 1508,-175 734.7612,-175 734.7612,-175"/>
<polygon fill="#000000" stroke="#000000" points="734.7613,-171.5001 724.7612,-175 734.7612,-178.5001 734.7613,-171.5001"/>
</g>
<!-- CheckoutFooterComponent -->
<g id="node3" class="node">
<title>CheckoutFooterComponent</title>
<polygon fill="#ffffb3" stroke="#000000" points="1402.5378,-122 1231.4622,-122 1231.4622,-86 1402.5378,-86 1402.5378,-122"/>
<text text-anchor="middle" x="1317" y="-99.8" font-family="Times,serif" font-size="14.00" fill="#000000">CheckoutFooterComponent</text>
</g>
<!-- CheckoutFooterComponent&#45;&gt;AppModule -->
<g id="edge3" class="edge">
<title>CheckoutFooterComponent&#45;&gt;AppModule</title>
<path fill="none" stroke="#000000" d="M1317,-122.1061C1317,-141.3391 1317,-169 1317,-169 1317,-169 735.0895,-169 735.0895,-169"/>
<polygon fill="#000000" stroke="#000000" points="735.0895,-165.5001 725.0895,-169 735.0895,-172.5001 735.0895,-165.5001"/>
</g>
<!-- AppComponent  -->
<g id="node14" class="node">
<title>AppComponent </title>
<polygon fill="#80b1d3" stroke="#000000" points="737.439,-252 628.561,-252 628.561,-216 737.439,-216 737.439,-252"/>
<text text-anchor="middle" x="683" y="-229.8" font-family="Times,serif" font-size="14.00" fill="#000000">AppComponent </text>
</g>
<!-- AppModule&#45;&gt;AppComponent  -->
<g id="edge13" class="edge">
<title>AppModule&#45;&gt;AppComponent </title>
<path fill="none" stroke="#000000" stroke-dasharray="1,5" d="M683,-187.1061C683,-187.1061 683,-205.991 683,-205.991"/>
<polygon fill="#000000" stroke="#000000" points="679.5001,-205.9909 683,-215.991 686.5001,-205.991 679.5001,-205.9909"/>
</g>
<!-- RouterModule.forRoot(args) -->
<g id="node5" class="node">
<title>RouterModule.forRoot(args)</title>
<polygon fill="#8dd3c7" stroke="#000000" points="1206.8419,-122 1203.8419,-126 1182.8419,-126 1179.8419,-122 1029.1581,-122 1029.1581,-86 1206.8419,-86 1206.8419,-122"/>
<text text-anchor="middle" x="1118" y="-99.8" font-family="Times,serif" font-size="14.00" fill="#000000">RouterModule.forRoot(args)</text>
</g>
<!-- RouterModule.forRoot(args)&#45;&gt;AppModule -->
<g id="edge4" class="edge">
<title>RouterModule.forRoot(args)&#45;&gt;AppModule</title>
<path fill="none" stroke="#000000" d="M1118,-122.0225C1118,-139.3734 1118,-163 1118,-163 1118,-163 734.7096,-163 734.7096,-163"/>
<polygon fill="#000000" stroke="#000000" points="734.7097,-159.5001 724.7096,-163 734.7096,-166.5001 734.7097,-159.5001"/>
</g>
<!-- StoreModule.provideStore(args) -->
<g id="node6" class="node">
<title>StoreModule.provideStore(args)</title>
<polygon fill="#8dd3c7" stroke="#000000" points="1011.5539,-122 1008.5539,-126 987.5539,-126 984.5539,-122 814.4461,-122 814.4461,-86 1011.5539,-86 1011.5539,-122"/>
<text text-anchor="middle" x="913" y="-99.8" font-family="Times,serif" font-size="14.00" fill="#000000">StoreModule.provideStore(args)</text>
</g>
<!-- StoreModule.provideStore(args)&#45;&gt;AppModule -->
<g id="edge5" class="edge">
<title>StoreModule.provideStore(args)&#45;&gt;AppModule</title>
<path fill="none" stroke="#000000" d="M913,-122.2396C913,-137.5706 913,-157 913,-157 913,-157 734.9181,-157 734.9181,-157"/>
<polygon fill="#000000" stroke="#000000" points="734.9181,-153.5001 724.9181,-157 734.9181,-160.5001 734.9181,-153.5001"/>
</g>
<!-- BrowserModule -->
<g id="node7" class="node">
<title>BrowserModule</title>
<polygon fill="#8dd3c7" stroke="#000000" points="796.4734,-122 793.4734,-126 772.4734,-126 769.4734,-122 689.5266,-122 689.5266,-86 796.4734,-86 796.4734,-122"/>
<text text-anchor="middle" x="743" y="-99.8" font-family="Times,serif" font-size="14.00" fill="#000000">BrowserModule</text>
</g>
<!-- BrowserModule&#45;&gt;AppModule -->
<g id="edge6" class="edge">
<title>BrowserModule&#45;&gt;AppModule</title>
<path fill="none" stroke="#000000" d="M707.1708,-122.1061C707.1708,-122.1061 707.1708,-140.991 707.1708,-140.991"/>
<polygon fill="#000000" stroke="#000000" points="703.6708,-140.9909 707.1708,-150.991 710.6708,-140.991 703.6708,-140.9909"/>
</g>
<!-- FormsModule -->
<g id="node8" class="node">
<title>FormsModule</title>
<polygon fill="#8dd3c7" stroke="#000000" points="671.8288,-122 668.8288,-126 647.8288,-126 644.8288,-122 576.1712,-122 576.1712,-86 671.8288,-86 671.8288,-122"/>
<text text-anchor="middle" x="624" y="-99.8" font-family="Times,serif" font-size="14.00" fill="#000000">FormsModule</text>
</g>
<!-- FormsModule&#45;&gt;AppModule -->
<g id="edge7" class="edge">
<title>FormsModule&#45;&gt;AppModule</title>
<path fill="none" stroke="#000000" d="M656.418,-122.1061C656.418,-122.1061 656.418,-140.991 656.418,-140.991"/>
<polygon fill="#000000" stroke="#000000" points="652.918,-140.9909 656.418,-150.991 659.918,-140.991 652.918,-140.9909"/>
</g>
<!-- HttpModule -->
<g id="node9" class="node">
<title>HttpModule</title>
<polygon fill="#8dd3c7" stroke="#000000" points="558.4387,-122 555.4387,-126 534.4387,-126 531.4387,-122 473.5613,-122 473.5613,-86 558.4387,-86 558.4387,-122"/>
<text text-anchor="middle" x="516" y="-99.8" font-family="Times,serif" font-size="14.00" fill="#000000">HttpModule</text>
</g>
<!-- HttpModule&#45;&gt;AppModule -->
<g id="edge8" class="edge">
<title>HttpModule&#45;&gt;AppModule</title>
<path fill="none" stroke="#000000" d="M516,-122.2396C516,-137.5706 516,-157 516,-157 516,-157 631.2896,-157 631.2896,-157"/>
<polygon fill="#000000" stroke="#000000" points="631.2897,-160.5001 641.2896,-157 631.2896,-153.5001 631.2897,-160.5001"/>
</g>
<!-- HomeModule -->
<g id="node10" class="node">
<title>HomeModule</title>
<polygon fill="#8dd3c7" stroke="#000000" points="455.7619,-122 452.7619,-126 431.7619,-126 428.7619,-122 362.2381,-122 362.2381,-86 455.7619,-86 455.7619,-122"/>
<text text-anchor="middle" x="409" y="-99.8" font-family="Times,serif" font-size="14.00" fill="#000000">HomeModule</text>
</g>
<!-- HomeModule&#45;&gt;AppModule -->
<g id="edge9" class="edge">
<title>HomeModule&#45;&gt;AppModule</title>
<path fill="none" stroke="#000000" d="M409,-122.0225C409,-139.3734 409,-163 409,-163 409,-163 631.087,-163 631.087,-163"/>
<polygon fill="#000000" stroke="#000000" points="631.0871,-166.5001 641.087,-163 631.087,-159.5001 631.0871,-166.5001"/>
</g>
<!-- LayoutModule -->
<g id="node11" class="node">
<title>LayoutModule</title>
<polygon fill="#8dd3c7" stroke="#000000" points="344.7078,-122 341.7078,-126 320.7078,-126 317.7078,-122 245.2922,-122 245.2922,-86 344.7078,-86 344.7078,-122"/>
<text text-anchor="middle" x="295" y="-99.8" font-family="Times,serif" font-size="14.00" fill="#000000">LayoutModule</text>
</g>
<!-- LayoutModule&#45;&gt;AppModule -->
<g id="edge10" class="edge">
<title>LayoutModule&#45;&gt;AppModule</title>
<path fill="none" stroke="#000000" d="M295,-122.1061C295,-141.3391 295,-169 295,-169 295,-169 631.1086,-169 631.1086,-169"/>
<polygon fill="#000000" stroke="#000000" points="631.1086,-172.5001 641.1086,-169 631.1085,-165.5001 631.1086,-172.5001"/>
</g>
<!-- CoreModule -->
<g id="node12" class="node">
<title>CoreModule</title>
<polygon fill="#8dd3c7" stroke="#000000" points="227.2619,-122 224.2619,-126 203.2619,-126 200.2619,-122 140.7381,-122 140.7381,-86 227.2619,-86 227.2619,-122"/>
<text text-anchor="middle" x="184" y="-99.8" font-family="Times,serif" font-size="14.00" fill="#000000">CoreModule</text>
</g>
<!-- CoreModule&#45;&gt;AppModule -->
<g id="edge11" class="edge">
<title>CoreModule&#45;&gt;AppModule</title>
<path fill="none" stroke="#000000" d="M184,-122.2843C184,-143.3211 184,-175 184,-175 184,-175 631.3138,-175 631.3138,-175"/>
<polygon fill="#000000" stroke="#000000" points="631.3139,-178.5001 641.3138,-175 631.3138,-171.5001 631.3139,-178.5001"/>
</g>
<!-- SharedModule -->
<g id="node13" class="node">
<title>SharedModule</title>
<polygon fill="#8dd3c7" stroke="#000000" points="122.4231,-122 119.4231,-126 98.4231,-126 95.4231,-122 23.5769,-122 23.5769,-86 122.4231,-86 122.4231,-122"/>
<text text-anchor="middle" x="73" y="-99.8" font-family="Times,serif" font-size="14.00" fill="#000000">SharedModule</text>
</g>
<!-- SharedModule&#45;&gt;AppModule -->
<g id="edge12" class="edge">
<title>SharedModule&#45;&gt;AppModule</title>
<path fill="none" stroke="#000000" d="M73,-122.2479C73,-145.0179 73,-181 73,-181 73,-181 631.0722,-181 631.0722,-181"/>
<polygon fill="#000000" stroke="#000000" points="631.0723,-184.5001 641.0722,-181 631.0722,-177.5001 631.0723,-184.5001"/>
</g>
</g>
</svg>
