<?xml version="1.0" encoding="UTF-8" standalone="no"?>
<!DOCTYPE svg PUBLIC "-//W3C//DTD SVG 1.1//EN"
 "http://www.w3.org/Graphics/SVG/1.1/DTD/svg11.dtd">
<!-- Generated by graphviz version 2.40.1 (20161225.0304)
 -->
<!-- Title: dependencies Pages: 1 -->
<svg width="2365pt" height="211pt"
 viewBox="0.00 0.00 2365.00 211.00" xmlns="http://www.w3.org/2000/svg" xmlns:xlink="http://www.w3.org/1999/xlink">
<g id="graph0" class="graph" transform="scale(1 1) rotate(0) translate(4 207)">
<title>dependencies</title>
<polygon fill="#ffffff" stroke="transparent" points="-4,4 -4,-207 2361,-207 2361,4 -4,4"/>
<text text-anchor="start" x="1157.5091" y="-42.4" font-family="sans-serif" font-weight="bold" font-size="14.00" fill="#000000">Legend</text>
<polygon fill="#ffffb3" stroke="transparent" points="944.5,-10 944.5,-30 964.5,-30 964.5,-10 944.5,-10"/>
<text text-anchor="start" x="968.129" y="-15.4" font-family="sans-serif" font-size="14.00" fill="#000000"> &#160;Declarations</text>
<polygon fill="#8dd3c7" stroke="transparent" points="1057.5,-10 1057.5,-30 1077.5,-30 1077.5,-10 1057.5,-10"/>
<text text-anchor="start" x="1081.2251" y="-15.4" font-family="sans-serif" font-size="14.00" fill="#000000"> &#160;Module</text>
<polygon fill="#80b1d3" stroke="transparent" points="1143.5,-10 1143.5,-30 1163.5,-30 1163.5,-10 1143.5,-10"/>
<text text-anchor="start" x="1167.2812" y="-15.4" font-family="sans-serif" font-size="14.00" fill="#000000"> &#160;Bootstrap</text>
<polygon fill="#fdb462" stroke="transparent" points="1240.5,-10 1240.5,-30 1260.5,-30 1260.5,-10 1240.5,-10"/>
<text text-anchor="start" x="1264.1732" y="-15.4" font-family="sans-serif" font-size="14.00" fill="#000000"> &#160;Providers</text>
<polygon fill="#fb8072" stroke="transparent" points="1336.5,-10 1336.5,-30 1356.5,-30 1356.5,-10 1336.5,-10"/>
<text text-anchor="start" x="1360.2258" y="-15.4" font-family="sans-serif" font-size="14.00" fill="#000000"> &#160;Exports</text>
<g id="clust1" class="cluster">
<title>cluster_HomeModule</title>
<polygon fill="none" stroke="#000000" stroke-dasharray="1,5" points="8,-70 8,-195 2349,-195 2349,-70 8,-70"/>
</g>
<g id="clust2" class="cluster">
<title>cluster_HomeModule_declarations</title>
<polygon fill="none" stroke="#000000" points="656,-78 656,-130 2341,-130 2341,-78 656,-78"/>
</g>
<g id="clust14" class="cluster">
<title>cluster_HomeModule_imports</title>
<polygon fill="none" stroke="#000000" points="334,-78 334,-130 648,-130 648,-78 334,-78"/>
</g>
<g id="clust17" class="cluster">
<title>cluster_HomeModule_providers</title>
<polygon fill="none" stroke="#000000" points="16,-78 16,-130 326,-130 326,-78 16,-78"/>
</g>
<!-- HomeComponent -->
<g id="node1" class="node">
<title>HomeComponent</title>
<polygon fill="#ffffb3" stroke="#000000" points="2332.5451,-122 2217.4549,-122 2217.4549,-86 2332.5451,-86 2332.5451,-122"/>
<text text-anchor="middle" x="2275" y="-99.8" font-family="Times,serif" font-size="14.00" fill="#000000">HomeComponent</text>
</g>
<!-- HomeModule -->
<g id="node12" class="node">
<title>HomeModule</title>
<polygon fill="#8dd3c7" stroke="#000000" points="1198.7619,-187 1195.7619,-191 1174.7619,-191 1171.7619,-187 1105.2381,-187 1105.2381,-151 1198.7619,-151 1198.7619,-187"/>
<text text-anchor="middle" x="1152" y="-164.8" font-family="Times,serif" font-size="14.00" fill="#000000">HomeModule</text>
</g>
<!-- HomeComponent&#45;&gt;HomeModule -->
<g id="edge1" class="edge">
<title>HomeComponent&#45;&gt;HomeModule</title>
<path fill="none" stroke="#000000" d="M2275,-122.3228C2275,-145.6602 2275,-183 2275,-183 2275,-183 1208.8242,-183 1208.8242,-183"/>
<polygon fill="#000000" stroke="#000000" points="1208.8242,-179.5001 1198.8242,-183 1208.8241,-186.5001 1208.8242,-179.5001"/>
</g>
<!-- ProductListComponent -->
<g id="node2" class="node">
<title>ProductListComponent</title>
<polygon fill="#ffffb3" stroke="#000000" points="2199.1596,-122 2052.8404,-122 2052.8404,-86 2199.1596,-86 2199.1596,-122"/>
<text text-anchor="middle" x="2126" y="-99.8" font-family="Times,serif" font-size="14.00" fill="#000000">ProductListComponent</text>
</g>
<!-- ProductListComponent&#45;&gt;HomeModule -->
<g id="edge2" class="edge">
<title>ProductListComponent&#45;&gt;HomeModule</title>
<path fill="none" stroke="#000000" d="M2126,-122.2921C2126,-144.2057 2126,-178 2126,-178 2126,-178 1208.978,-178 1208.978,-178"/>
<polygon fill="#000000" stroke="#000000" points="1208.9781,-174.5001 1198.978,-178 1208.978,-181.5001 1208.9781,-174.5001"/>
</g>
<!-- ProductListItemComponent -->
<g id="node3" class="node">
<title>ProductListItemComponent</title>
<polygon fill="#ffffb3" stroke="#000000" points="2035.3159,-122 1862.6841,-122 1862.6841,-86 2035.3159,-86 2035.3159,-122"/>
<text text-anchor="middle" x="1949" y="-99.8" font-family="Times,serif" font-size="14.00" fill="#000000">ProductListItemComponent</text>
</g>
<!-- ProductListItemComponent&#45;&gt;HomeModule -->
<g id="edge3" class="edge">
<title>ProductListItemComponent&#45;&gt;HomeModule</title>
<path fill="none" stroke="#000000" d="M1949,-122.0267C1949,-142.7672 1949,-174 1949,-174 1949,-174 1208.8805,-174 1208.8805,-174"/>
<polygon fill="#000000" stroke="#000000" points="1208.8805,-170.5001 1198.8805,-174 1208.8805,-177.5001 1208.8805,-170.5001"/>
</g>
<!-- TaxonsComponent -->
<g id="node4" class="node">
<title>TaxonsComponent</title>
<polygon fill="#ffffb3" stroke="#000000" points="1845.045,-122 1722.955,-122 1722.955,-86 1845.045,-86 1845.045,-122"/>
<text text-anchor="middle" x="1784" y="-99.8" font-family="Times,serif" font-size="14.00" fill="#000000">TaxonsComponent</text>
</g>
<!-- TaxonsComponent&#45;&gt;HomeModule -->
<g id="edge4" class="edge">
<title>TaxonsComponent&#45;&gt;HomeModule</title>
<path fill="none" stroke="#000000" d="M1784,-122.1061C1784,-141.3391 1784,-169 1784,-169 1784,-169 1208.9864,-169 1208.9864,-169"/>
<polygon fill="#000000" stroke="#000000" points="1208.9864,-165.5001 1198.9864,-169 1208.9864,-172.5001 1208.9864,-165.5001"/>
</g>
<!-- FilterComponent -->
<g id="node5" class="node">
<title>FilterComponent</title>
<polygon fill="#ffffb3" stroke="#000000" points="1704.6625,-122 1593.3375,-122 1593.3375,-86 1704.6625,-86 1704.6625,-122"/>
<text text-anchor="middle" x="1649" y="-99.8" font-family="Times,serif" font-size="14.00" fill="#000000">FilterComponent</text>
</g>
<!-- FilterComponent&#45;&gt;HomeModule -->
<g id="edge5" class="edge">
<title>FilterComponent&#45;&gt;HomeModule</title>
<path fill="none" stroke="#000000" d="M1649,-122.302C1649,-140.2699 1649,-165 1649,-165 1649,-165 1209.2046,-165 1209.2046,-165"/>
<polygon fill="#000000" stroke="#000000" points="1209.2047,-161.5001 1199.2046,-165 1209.2046,-168.5001 1209.2047,-161.5001"/>
</g>
<!-- BreadcrumbComponent -->
<g id="node6" class="node">
<title>BreadcrumbComponent</title>
<polygon fill="#ffffb3" stroke="#000000" points="1575.0253,-122 1424.9747,-122 1424.9747,-86 1575.0253,-86 1575.0253,-122"/>
<text text-anchor="middle" x="1500" y="-99.8" font-family="Times,serif" font-size="14.00" fill="#000000">BreadcrumbComponent</text>
</g>
<!-- BreadcrumbComponent&#45;&gt;HomeModule -->
<g id="edge6" class="edge">
<title>BreadcrumbComponent&#45;&gt;HomeModule</title>
<path fill="none" stroke="#000000" d="M1500,-122.027C1500,-138.3976 1500,-160 1500,-160 1500,-160 1208.9328,-160 1208.9328,-160"/>
<polygon fill="#000000" stroke="#000000" points="1208.9329,-156.5001 1198.9328,-160 1208.9328,-163.5001 1208.9329,-156.5001"/>
</g>
<!-- ContentHeaderComponent -->
<g id="node7" class="node">
<title>ContentHeaderComponent</title>
<polygon fill="#ffffb3" stroke="#000000" points="1407.0758,-122 1240.9242,-122 1240.9242,-86 1407.0758,-86 1407.0758,-122"/>
<text text-anchor="middle" x="1324" y="-99.8" font-family="Times,serif" font-size="14.00" fill="#000000">ContentHeaderComponent</text>
</g>
<!-- ContentHeaderComponent&#45;&gt;HomeModule -->
<g id="edge7" class="edge">
<title>ContentHeaderComponent&#45;&gt;HomeModule</title>
<path fill="none" stroke="#000000" d="M1324,-122.1871C1324,-137.1824 1324,-156 1324,-156 1324,-156 1208.9998,-156 1208.9998,-156"/>
<polygon fill="#000000" stroke="#000000" points="1208.9998,-152.5001 1198.9998,-156 1208.9997,-159.5001 1208.9998,-152.5001"/>
</g>
<!-- CustomizeComponent -->
<g id="node8" class="node">
<title>CustomizeComponent</title>
<polygon fill="#ffffb3" stroke="#000000" points="1222.7148,-122 1081.2852,-122 1081.2852,-86 1222.7148,-86 1222.7148,-122"/>
<text text-anchor="middle" x="1152" y="-99.8" font-family="Times,serif" font-size="14.00" fill="#000000">CustomizeComponent</text>
</g>
<!-- CustomizeComponent&#45;&gt;HomeModule -->
<g id="edge8" class="edge">
<title>CustomizeComponent&#45;&gt;HomeModule</title>
<path fill="none" stroke="#000000" d="M1152,-122.1061C1152,-122.1061 1152,-140.991 1152,-140.991"/>
<polygon fill="#000000" stroke="#000000" points="1148.5001,-140.9909 1152,-150.991 1155.5001,-140.991 1148.5001,-140.9909"/>
</g>
<!-- FilterSummaryComponent -->
<g id="node9" class="node">
<title>FilterSummaryComponent</title>
<polygon fill="#ffffb3" stroke="#000000" points="1063.101,-122 896.899,-122 896.899,-86 1063.101,-86 1063.101,-122"/>
<text text-anchor="middle" x="980" y="-99.8" font-family="Times,serif" font-size="14.00" fill="#000000">FilterSummaryComponent</text>
</g>
<!-- FilterSummaryComponent&#45;&gt;HomeModule -->
<g id="edge9" class="edge">
<title>FilterSummaryComponent&#45;&gt;HomeModule</title>
<path fill="none" stroke="#000000" d="M980,-122.1871C980,-137.1824 980,-156 980,-156 980,-156 1095.0002,-156 1095.0002,-156"/>
<polygon fill="#000000" stroke="#000000" points="1095.0003,-159.5001 1105.0002,-156 1095.0002,-152.5001 1095.0003,-159.5001"/>
</g>
<!-- ContentComponent -->
<g id="node10" class="node">
<title>ContentComponent</title>
<polygon fill="#ffffb3" stroke="#000000" points="878.6652,-122 753.3348,-122 753.3348,-86 878.6652,-86 878.6652,-122"/>
<text text-anchor="middle" x="816" y="-99.8" font-family="Times,serif" font-size="14.00" fill="#000000">ContentComponent</text>
</g>
<!-- ContentComponent&#45;&gt;HomeModule -->
<g id="edge10" class="edge">
<title>ContentComponent&#45;&gt;HomeModule</title>
<path fill="none" stroke="#000000" d="M816,-122.027C816,-138.3976 816,-160 816,-160 816,-160 1094.9269,-160 1094.9269,-160"/>
<polygon fill="#000000" stroke="#000000" points="1094.9269,-163.5001 1104.9269,-160 1094.9268,-156.5001 1094.9269,-163.5001"/>
</g>
<!-- FilterPipe -->
<g id="node11" class="node">
<title>FilterPipe</title>
<polygon fill="#ffffb3" stroke="#000000" points="735.7177,-122 664.2823,-122 664.2823,-86 735.7177,-86 735.7177,-122"/>
<text text-anchor="middle" x="700" y="-99.8" font-family="Times,serif" font-size="14.00" fill="#000000">FilterPipe</text>
</g>
<!-- FilterPipe&#45;&gt;HomeModule -->
<g id="edge11" class="edge">
<title>FilterPipe&#45;&gt;HomeModule</title>
<path fill="none" stroke="#000000" d="M700,-122.302C700,-140.2699 700,-165 700,-165 700,-165 1094.9072,-165 1094.9072,-165"/>
<polygon fill="#000000" stroke="#000000" points="1094.9073,-168.5001 1104.9072,-165 1094.9072,-161.5001 1094.9073,-168.5001"/>
</g>
<!-- RouterModule.forChild(args) -->
<g id="node13" class="node">
<title>RouterModule.forChild(args)</title>
<polygon fill="#8dd3c7" stroke="#000000" points="639.7323,-122 636.7323,-126 615.7323,-126 612.7323,-122 458.2677,-122 458.2677,-86 639.7323,-86 639.7323,-122"/>
<text text-anchor="middle" x="549" y="-99.8" font-family="Times,serif" font-size="14.00" fill="#000000">RouterModule.forChild(args)</text>
</g>
<!-- RouterModule.forChild(args)&#45;&gt;HomeModule -->
<g id="edge12" class="edge">
<title>RouterModule.forChild(args)&#45;&gt;HomeModule</title>
<path fill="none" stroke="#000000" d="M549,-122.1061C549,-141.3391 549,-169 549,-169 549,-169 1095.1854,-169 1095.1854,-169"/>
<polygon fill="#000000" stroke="#000000" points="1095.1854,-172.5001 1105.1854,-169 1095.1853,-165.5001 1095.1854,-172.5001"/>
</g>
<!-- SharedModule -->
<g id="node14" class="node">
<title>SharedModule</title>
<polygon fill="#8dd3c7" stroke="#000000" points="440.4231,-122 437.4231,-126 416.4231,-126 413.4231,-122 341.5769,-122 341.5769,-86 440.4231,-86 440.4231,-122"/>
<text text-anchor="middle" x="391" y="-99.8" font-family="Times,serif" font-size="14.00" fill="#000000">SharedModule</text>
</g>
<!-- SharedModule&#45;&gt;HomeModule -->
<g id="edge13" class="edge">
<title>SharedModule&#45;&gt;HomeModule</title>
<path fill="none" stroke="#000000" d="M391,-122.0267C391,-142.7672 391,-174 391,-174 391,-174 1094.9703,-174 1094.9703,-174"/>
<polygon fill="#000000" stroke="#000000" points="1094.9704,-177.5001 1104.9703,-174 1094.9703,-170.5001 1094.9704,-177.5001"/>
</g>
<!-- ProductActions -->
<g id="node15" class="node">
<title>ProductActions</title>
<ellipse fill="#fdb462" stroke="#000000" cx="247" cy="-104" rx="71.2268" ry="18"/>
<text text-anchor="middle" x="247" y="-99.8" font-family="Times,serif" font-size="14.00" fill="#000000">ProductActions</text>
</g>
<!-- ProductActions&#45;&gt;HomeModule -->
<g id="edge14" class="edge">
<title>ProductActions&#45;&gt;HomeModule</title>
<path fill="none" stroke="#000000" d="M247,-122.2921C247,-144.2057 247,-178 247,-178 247,-178 1094.9337,-178 1094.9337,-178"/>
<polygon fill="#000000" stroke="#000000" points="1094.9337,-181.5001 1104.9337,-178 1094.9337,-174.5001 1094.9337,-181.5001"/>
</g>
<!-- SearchActions -->
<g id="node16" class="node">
<title>SearchActions</title>
<ellipse fill="#fdb462" stroke="#000000" cx="91" cy="-104" rx="67.1927" ry="18"/>
<text text-anchor="middle" x="91" y="-99.8" font-family="Times,serif" font-size="14.00" fill="#000000">SearchActions</text>
</g>
<!-- SearchActions&#45;&gt;HomeModule -->
<g id="edge15" class="edge">
<title>SearchActions&#45;&gt;HomeModule</title>
<path fill="none" stroke="#000000" d="M91,-122.3228C91,-145.6602 91,-183 91,-183 91,-183 1095.0411,-183 1095.0411,-183"/>
<polygon fill="#000000" stroke="#000000" points="1095.0412,-186.5001 1105.0411,-183 1095.0411,-179.5001 1095.0412,-186.5001"/>
</g>
</g>
</svg>
