<svg xmlns="http://www.w3.org/2000/svg" xmlns:xlink="http://www.w3.org/1999/xlink" preserveAspectRatio="xMidYMid" width="300" height="300" viewBox="0 0 300 300">
  <defs>
    <style>
      .cls-1 {
        fill: transparent;
      }

      .cls-2 {
        fill: #f15c5c;
        opacity: 0.75;
        fill-rule: evenodd;
      }
    </style>
  </defs>
  <rect width="300" height="300" class="cls-1"/>
  <path d="M221.832,208.973 L217.115,208.973 L217.115,196.369 L221.832,196.369 C225.433,196.369 228.044,198.710 228.044,202.671 C228.044,206.632 225.433,208.973 221.832,208.973 ZM221.832,198.584 L219.419,198.584 L219.419,206.758 L221.832,206.758 C224.281,206.758 225.523,205.192 225.523,202.671 C225.523,200.150 224.281,198.584 221.832,198.584 ZM206.693,200.330 L206.693,208.973 L204.389,208.973 L204.389,196.369 L206.657,196.369 L212.041,204.507 L212.041,196.369 L214.346,196.369 L214.346,208.973 L212.455,208.973 L206.693,200.330 ZM196.542,209.225 C192.995,209.225 191.321,206.992 191.321,203.571 L191.321,196.369 L193.625,196.369 L193.625,202.797 C193.625,205.138 194.111,207.010 196.542,207.010 C198.973,207.010 199.459,205.138 199.459,202.797 L199.459,196.369 L201.764,196.369 L201.764,203.571 C201.764,206.992 200.089,209.225 196.542,209.225 ZM183.240,209.225 C179.639,209.225 177.028,206.632 177.028,202.671 C177.028,198.710 179.639,196.117 183.240,196.117 C186.841,196.117 189.452,198.710 189.452,202.671 C189.452,206.632 186.841,209.225 183.240,209.225 ZM183.240,198.331 C180.792,198.331 179.549,200.150 179.549,202.671 C179.549,205.192 180.792,207.010 183.240,207.010 C185.689,207.010 186.931,205.192 186.931,202.671 C186.931,200.150 185.689,198.331 183.240,198.331 ZM170.729,201.284 L174.942,201.284 L174.942,203.517 L170.729,203.517 L170.729,208.973 L168.424,208.973 L168.424,196.369 L176.185,196.369 L176.185,198.602 L170.729,198.602 L170.729,201.284 ZM159.156,208.973 L156.851,208.973 L156.851,198.602 L153.286,198.602 L153.286,196.369 L162.721,196.369 L162.721,198.602 L159.156,198.602 L159.156,208.973 ZM146.412,209.225 C142.811,209.225 140.200,206.632 140.200,202.671 C140.200,198.710 142.811,196.117 146.412,196.117 C150.013,196.117 152.624,198.710 152.624,202.671 C152.624,206.632 150.013,209.225 146.412,209.225 ZM146.412,198.331 C143.963,198.331 142.721,200.150 142.721,202.671 C142.721,205.192 143.963,207.010 146.412,207.010 C148.861,207.010 150.103,205.192 150.103,202.671 C150.103,200.150 148.861,198.331 146.412,198.331 ZM130.535,200.330 L130.535,208.973 L128.230,208.973 L128.230,196.369 L130.499,196.369 L135.883,204.507 L135.883,196.369 L138.187,196.369 L138.187,208.973 L136.297,208.973 L130.535,200.330 ZM113.956,196.369 L122.023,196.369 L122.023,198.602 L116.315,198.602 L116.315,201.284 L120.744,201.284 L120.744,203.517 L116.315,203.517 L116.315,206.740 L122.203,206.740 L122.203,208.973 L113.956,208.973 L113.956,196.369 ZM107.406,209.225 C103.877,209.225 101.248,206.632 101.248,202.653 C101.248,198.710 103.841,196.117 107.532,196.117 C108.756,196.117 110.395,196.405 111.313,196.855 L111.061,199.052 C110.089,198.656 108.702,198.331 107.586,198.331 C104.957,198.331 103.769,200.168 103.769,202.617 C103.769,205.192 105.083,207.010 107.694,207.010 C108.216,207.010 108.810,206.938 109.422,206.812 L109.422,204.561 L108.036,204.561 L108.036,202.653 L111.727,202.653 L111.727,208.270 C110.809,208.793 108.846,209.225 107.406,209.225 ZM97.290,205.930 L93.095,205.930 L92.014,208.973 L89.620,208.973 L94.103,196.369 L96.282,196.369 L100.765,208.973 L98.370,208.973 L97.290,205.930 ZM95.183,200.006 L93.887,203.697 L96.498,203.697 L95.183,200.006 ZM85.303,200.528 L82.080,206.326 L78.839,200.546 L77.759,208.973 L75.364,208.973 L77.110,196.369 L79.001,196.369 L82.080,202.113 L85.141,196.369 L87.031,196.369 L88.778,208.973 L86.383,208.973 L85.303,200.528 ZM70.972,196.369 L73.277,196.369 L73.277,208.973 L70.972,208.973 L70.972,196.369 Z" class="cls-2"/>
  <path d="M195.644,158.977 L160.127,97.868 C154.599,88.357 145.544,88.351 140.006,97.855 L104.365,158.991 C98.826,168.495 103.314,176.269 114.338,176.269 L185.650,176.269 C196.674,176.269 201.172,168.488 195.644,158.977 ZM150.392,165.508 C146.977,165.508 144.260,162.801 144.260,159.395 C144.260,155.990 146.977,153.282 150.392,153.282 C153.805,153.282 156.523,155.990 156.523,159.395 C156.523,162.801 153.805,165.508 150.392,165.508 ZM154.737,149.413 L146.045,149.413 L143.119,114.134 L157.664,114.134 L154.737,149.413 Z" class="cls-2"/>
</svg>
