<svg _ngcontent-c2="" xmlns:xlink="http://www.w3.org/1999/xlink" height="" preserveAspectRatio="xMidYMid meet" viewBox="100 200  745 290"
  width="" xmlns="http://www.w3.org/2000/svg">
  <text _ngcontent-c2="" id="e1_texte" style="fill: #225378;font-family:Arial;font-size:20px;font-weight:bold;" transform="matrix(5.44941 0 0 5.44941 -1426.29 -1263.91)"
    x="340" y="297">Angular</text>
  <text _ngcontent-c2="" id="e2_texte" style="fill: #1695A3;font-family:Arial;font-size:20px;font-weight:normal;"
    transform="matrix(5.44941 0 0 5.44941 -1426.29 -1263.91)" x="339.715" y="315.184">Spree</text>
  <path _ngcontent-c2="" d="M-299.9272727272717,146.61818181818217v-16h16v-8h-16v-16h-8v16h-16v8h16v16Z" transform="matrix(2.34154 0 0 2.34154 1069.54 134.207)"
    style="
  fill: #EB7F00;
"></path>
  <path _ngcontent-c2="" d="M-403.92727272727257,139.1674545454547c0,5.400000000000034,4.377999999999986,9.77800000000002,9.77800000000002,9.77800000000002h78.22199999999998v-8h-16v-11.960000000000008c0,2.1869999999999834,-1.7730000000000246,3.960000000000008,-3.9599999999999795,3.960000000000008h-0.07999999999998408c-2.187000000000012,0,-3.9600000000000364,-1.7730000000000246,-3.9600000000000364,-3.960000000000008v-40.08000000000001c0,-2.1869999999999834,1.7730000000000246,-3.9599999999999795,3.9600000000000364,-3.9599999999999795h0.07999999999998408c2.186999999999955,0,3.9599999999999795,1.7729999999999961,3.9599999999999795,3.9599999999999795v28.04000000000002h7.9599999999999795v-28.039999999999992c0,-2.1869999999999834,1.7730000000000246,-3.960000000000008,3.9599999999999795,-3.960000000000008h0.08000000000004093c2.187000000000012,0,3.9599999999999795,1.7730000000000246,3.9599999999999795,3.960000000000008l0.040000000000020464,12.039999999999992h16v-16h8v-14.222000000000008c0,-5.400000000000006,-4.378000000000043,-9.777999999999992,-9.77800000000002,-9.777999999999992h-13.749000000000024l-9.798000000000002,-19.595c0.8370000000000459,-1.2639999999999816,1.3250000000000455,-2.7770000000000152,1.3250000000000455,-4.405000000000001c0,-4.418999999999983,-3.5810000000000173,-8,-8,-8s-8,3.5810000000000173,-8,8c0,4.253999999999991,3.322999999999979,7.7239999999999895,7.515999999999963,7.975999999999999l8.011000000000024,16.024h-55.05400000000003l8.012000000000057,-16.024c4.190999999999974,-0.2529999999999859,7.514999999999986,-3.7220000000000084,7.514999999999986,-7.975999999999999c0,-4.418999999999983,-3.5810000000000173,-8,-8,-8s-8,3.5810000000000173,-8,8c0,1.627999999999986,0.4889999999999759,3.140999999999991,1.3249999999999886,4.405000000000001l-9.798000000000002,19.595h-13.748999999999967c-5.400000000000034,0,-9.77800000000002,4.377999999999986,-9.77800000000002,9.777999999999992v14.222000000000008h8v54.22200000000001ZM-329.10027272727257,39.77245454545471c-0.7470000000000141,0.7470000000000141,-1.77800000000002,1.1730000000000018,-2.826999999999998,1.1730000000000018s-2.079999999999984,-0.4269999999999925,-2.8279999999999745,-1.1730000000000018c-0.7470000000000141,-0.7470000000000141,-1.1720000000000255,-1.7779999999999916,-1.1720000000000255,-2.826999999999998s0.4259999999999877,-2.079999999999984,1.1720000000000255,-2.826999999999998c0.7479999999999905,-0.747000000000007,1.7779999999999632,-1.1730000000000018,2.8279999999999745,-1.1730000000000018s2.079999999999984,0.4269999999999925,2.826999999999998,1.1730000000000018s1.1730000000000018,1.7779999999999916,1.1730000000000018,2.826999999999998c0,1.0490000000000066,-0.4270000000000209,2.079999999999984,-1.1730000000000018,2.826999999999998ZM-374.75527272727254,34.11845454545471c0.7479999999999336,-0.747000000000007,1.7779999999999632,-1.1730000000000018,2.8279999999999745,-1.1730000000000018s2.079999999999984,0.4269999999999925,2.826999999999998,1.1730000000000018s1.1730000000000018,1.7779999999999916,1.1730000000000018,2.826999999999998c0,1.0579999999999927,-0.4270000000000209,2.0889999999999986,-1.1730000000000018,2.826999999999998c-0.7470000000000141,0.7470000000000141,-1.77800000000002,1.1730000000000018,-2.826999999999998,1.1730000000000018s-2.079999999999984,-0.4269999999999925,-2.8279999999999745,-1.1730000000000018c-0.7470000000000141,-0.7379999999999995,-1.1720000000000255,-1.7690000000000055,-1.1720000000000255,-2.826999999999998s0.4259999999999877,-2.0889999999999986,1.1720000000000255,-2.826999999999998ZM-379.92727272727257,128.98545454545473c0,2.1869999999999834,-1.7730000000000246,3.9599999999999795,-3.9600000000000364,3.9599999999999795h-0.07999999999992724c-2.187000000000012,0,-3.9600000000000364,-1.7729999999999961,-3.9600000000000364,-3.9599999999999795v-40.08000000000001c0,-2.1869999999999834,1.7730000000000246,-3.960000000000008,3.9600000000000364,-3.960000000000008h0.07999999999992724c2.187000000000012,0,3.9600000000000364,1.7730000000000246,3.9600000000000364,3.960000000000008v40.08000000000001ZM-355.92727272727257,88.90545454545469c0,-2.1869999999999834,1.7730000000000246,-3.9599999999999795,3.9600000000000364,-3.9599999999999795h0.07999999999992724c2.187000000000012,0,3.9600000000000364,1.7729999999999961,3.9600000000000364,3.9599999999999795v40.08000000000001c0,2.1869999999999834,-1.7730000000000246,3.960000000000008,-3.9600000000000364,3.960000000000008h-0.07999999999992724c-2.187000000000012,0,-3.9600000000000364,-1.7730000000000246,-3.9600000000000364,-3.960000000000008v-40.08000000000001ZM-371.92727272727257,88.90545454545469c0,-2.1869999999999834,1.7730000000000246,-3.9599999999999795,3.9600000000000364,-3.9599999999999795h0.07999999999992724c2.187000000000012,0,3.9600000000000364,1.7729999999999961,3.9600000000000364,3.9599999999999795v40.08000000000001c0,2.1869999999999834,-1.7730000000000246,3.960000000000008,-3.9600000000000364,3.960000000000008h-0.07999999999992724c-2.187000000000012,0,-3.9600000000000364,-1.7730000000000246,-3.9600000000000364,-3.960000000000008v-40.08000000000001Z"
    transform="matrix(2.34154 0 0 2.34154 1069.54 134.207)" style="
  fill: #EB7F00;
"></path>
</svg>
