<?xml version="1.0" encoding="UTF-8" standalone="no"?>
<!DOCTYPE svg PUBLIC "-//W3C//DTD SVG 1.1//EN"
 "http://www.w3.org/Graphics/SVG/1.1/DTD/svg11.dtd">
<!-- Generated by graphviz version 2.40.1 (20161225.0304)
 -->
<!-- Title: dependencies Pages: 1 -->
<svg width="1892pt" height="211pt"
 viewBox="0.00 0.00 1892.00 211.00" xmlns="http://www.w3.org/2000/svg" xmlns:xlink="http://www.w3.org/1999/xlink">
<g id="graph0" class="graph" transform="scale(1 1) rotate(0) translate(4 207)">
<title>dependencies</title>
<polygon fill="#ffffff" stroke="transparent" points="-4,4 -4,-207 1888,-207 1888,4 -4,4"/>
<text text-anchor="start" x="921.0091" y="-42.4" font-family="sans-serif" font-weight="bold" font-size="14.00" fill="#000000">Legend</text>
<polygon fill="#ffffb3" stroke="transparent" points="708,-10 708,-30 728,-30 728,-10 708,-10"/>
<text text-anchor="start" x="731.629" y="-15.4" font-family="sans-serif" font-size="14.00" fill="#000000"> &#160;Declarations</text>
<polygon fill="#8dd3c7" stroke="transparent" points="821,-10 821,-30 841,-30 841,-10 821,-10"/>
<text text-anchor="start" x="844.7251" y="-15.4" font-family="sans-serif" font-size="14.00" fill="#000000"> &#160;Module</text>
<polygon fill="#80b1d3" stroke="transparent" points="907,-10 907,-30 927,-30 927,-10 907,-10"/>
<text text-anchor="start" x="930.7812" y="-15.4" font-family="sans-serif" font-size="14.00" fill="#000000"> &#160;Bootstrap</text>
<polygon fill="#fdb462" stroke="transparent" points="1004,-10 1004,-30 1024,-30 1024,-10 1004,-10"/>
<text text-anchor="start" x="1027.6732" y="-15.4" font-family="sans-serif" font-size="14.00" fill="#000000"> &#160;Providers</text>
<polygon fill="#fb8072" stroke="transparent" points="1100,-10 1100,-30 1120,-30 1120,-10 1100,-10"/>
<text text-anchor="start" x="1123.7258" y="-15.4" font-family="sans-serif" font-size="14.00" fill="#000000"> &#160;Exports</text>
<g id="clust1" class="cluster">
<title>cluster_LandingModule</title>
<polygon fill="none" stroke="#000000" stroke-dasharray="1,5" points="8,-70 8,-195 1876,-195 1876,-70 8,-70"/>
</g>
<g id="clust2" class="cluster">
<title>cluster_LandingModule_declarations</title>
<polygon fill="none" stroke="#000000" points="308,-78 308,-130 1868,-130 1868,-78 308,-78"/>
</g>
<g id="clust13" class="cluster">
<title>cluster_LandingModule_imports</title>
<polygon fill="none" stroke="#000000" points="16,-78 16,-130 300,-130 300,-78 16,-78"/>
</g>
<!-- AboutUsComponent -->
<g id="node1" class="node">
<title>AboutUsComponent</title>
<polygon fill="#ffffb3" stroke="#000000" points="1859.8809,-122 1728.1191,-122 1728.1191,-86 1859.8809,-86 1859.8809,-122"/>
<text text-anchor="middle" x="1794" y="-99.8" font-family="Times,serif" font-size="14.00" fill="#000000">AboutUsComponent</text>
</g>
<!-- LandingModule -->
<g id="node11" class="node">
<title>LandingModule</title>
<polygon fill="#8dd3c7" stroke="#000000" points="995.2078,-187 992.2078,-191 971.2078,-191 968.2078,-187 888.7922,-187 888.7922,-151 995.2078,-151 995.2078,-187"/>
<text text-anchor="middle" x="942" y="-164.8" font-family="Times,serif" font-size="14.00" fill="#000000">LandingModule</text>
</g>
<!-- AboutUsComponent&#45;&gt;LandingModule -->
<g id="edge1" class="edge">
<title>AboutUsComponent&#45;&gt;LandingModule</title>
<path fill="none" stroke="#000000" d="M1794,-122.0908C1794,-145.1328 1794,-182 1794,-182 1794,-182 1005.2964,-182 1005.2964,-182"/>
<polygon fill="#000000" stroke="#000000" points="1005.2965,-178.5001 995.2964,-182 1005.2964,-185.5001 1005.2965,-178.5001"/>
</g>
<!-- BrandsPageComponent -->
<g id="node2" class="node">
<title>BrandsPageComponent</title>
<polygon fill="#ffffb3" stroke="#000000" points="1710.2007,-122 1561.7993,-122 1561.7993,-86 1710.2007,-86 1710.2007,-122"/>
<text text-anchor="middle" x="1636" y="-99.8" font-family="Times,serif" font-size="14.00" fill="#000000">BrandsPageComponent</text>
</g>
<!-- BrandsPageComponent&#45;&gt;LandingModule -->
<g id="edge2" class="edge">
<title>BrandsPageComponent&#45;&gt;LandingModule</title>
<path fill="none" stroke="#000000" d="M1636,-122.2843C1636,-143.3211 1636,-175 1636,-175 1636,-175 1005.3047,-175 1005.3047,-175"/>
<polygon fill="#000000" stroke="#000000" points="1005.3047,-171.5001 995.3047,-175 1005.3046,-178.5001 1005.3047,-171.5001"/>
</g>
<!-- FaqPageComponent -->
<g id="node3" class="node">
<title>FaqPageComponent</title>
<polygon fill="#ffffb3" stroke="#000000" points="1543.5422,-122 1414.4578,-122 1414.4578,-86 1543.5422,-86 1543.5422,-122"/>
<text text-anchor="middle" x="1479" y="-99.8" font-family="Times,serif" font-size="14.00" fill="#000000">FaqPageComponent</text>
</g>
<!-- FaqPageComponent&#45;&gt;LandingModule -->
<g id="edge3" class="edge">
<title>FaqPageComponent&#45;&gt;LandingModule</title>
<path fill="none" stroke="#000000" d="M1479,-122.1061C1479,-141.3391 1479,-169 1479,-169 1479,-169 1005.4528,-169 1005.4528,-169"/>
<polygon fill="#000000" stroke="#000000" points="1005.4529,-165.5001 995.4528,-169 1005.4528,-172.5001 1005.4529,-165.5001"/>
</g>
<!-- LandingComponent -->
<g id="node4" class="node">
<title>LandingComponent</title>
<polygon fill="#ffffb3" stroke="#000000" points="1395.9902,-122 1268.0098,-122 1268.0098,-86 1395.9902,-86 1395.9902,-122"/>
<text text-anchor="middle" x="1332" y="-99.8" font-family="Times,serif" font-size="14.00" fill="#000000">LandingComponent</text>
</g>
<!-- LandingComponent&#45;&gt;LandingModule -->
<g id="edge4" class="edge">
<title>LandingComponent&#45;&gt;LandingModule</title>
<path fill="none" stroke="#000000" d="M1332,-122.0225C1332,-139.3734 1332,-163 1332,-163 1332,-163 1005.4101,-163 1005.4101,-163"/>
<polygon fill="#000000" stroke="#000000" points="1005.4101,-159.5001 995.4101,-163 1005.4101,-166.5001 1005.4101,-159.5001"/>
</g>
<!-- LpBannerComponent -->
<g id="node5" class="node">
<title>LpBannerComponent</title>
<polygon fill="#ffffb3" stroke="#000000" points="1249.8118,-122 1112.1882,-122 1112.1882,-86 1249.8118,-86 1249.8118,-122"/>
<text text-anchor="middle" x="1181" y="-99.8" font-family="Times,serif" font-size="14.00" fill="#000000">LpBannerComponent</text>
</g>
<!-- LpBannerComponent&#45;&gt;LandingModule -->
<g id="edge5" class="edge">
<title>LpBannerComponent&#45;&gt;LandingModule</title>
<path fill="none" stroke="#000000" d="M1181,-122.2396C1181,-137.5706 1181,-157 1181,-157 1181,-157 1005.3388,-157 1005.3388,-157"/>
<polygon fill="#000000" stroke="#000000" points="1005.3388,-153.5001 995.3388,-157 1005.3388,-160.5001 1005.3388,-153.5001"/>
</g>
<!-- LpBrandsComponent -->
<g id="node6" class="node">
<title>LpBrandsComponent</title>
<polygon fill="#ffffb3" stroke="#000000" points="1094.0422,-122 957.9578,-122 957.9578,-86 1094.0422,-86 1094.0422,-122"/>
<text text-anchor="middle" x="1026" y="-99.8" font-family="Times,serif" font-size="14.00" fill="#000000">LpBrandsComponent</text>
</g>
<!-- LpBrandsComponent&#45;&gt;LandingModule -->
<g id="edge6" class="edge">
<title>LpBrandsComponent&#45;&gt;LandingModule</title>
<path fill="none" stroke="#000000" d="M976.4166,-122.1061C976.4166,-122.1061 976.4166,-140.991 976.4166,-140.991"/>
<polygon fill="#000000" stroke="#000000" points="972.9166,-140.9909 976.4166,-150.991 979.9166,-140.991 972.9166,-140.9909"/>
</g>
<!-- LpProductListComponent -->
<g id="node7" class="node">
<title>LpProductListComponent</title>
<polygon fill="#ffffb3" stroke="#000000" points="940.2119,-122 777.7881,-122 777.7881,-86 940.2119,-86 940.2119,-122"/>
<text text-anchor="middle" x="859" y="-99.8" font-family="Times,serif" font-size="14.00" fill="#000000">LpProductListComponent</text>
</g>
<!-- LpProductListComponent&#45;&gt;LandingModule -->
<g id="edge7" class="edge">
<title>LpProductListComponent&#45;&gt;LandingModule</title>
<path fill="none" stroke="#000000" d="M914.5011,-122.1061C914.5011,-122.1061 914.5011,-140.991 914.5011,-140.991"/>
<polygon fill="#000000" stroke="#000000" points="911.0011,-140.9909 914.5011,-150.991 918.0011,-140.991 911.0011,-140.9909"/>
</g>
<!-- LpPromoComponent -->
<g id="node8" class="node">
<title>LpPromoComponent</title>
<polygon fill="#ffffb3" stroke="#000000" points="760.219,-122 625.781,-122 625.781,-86 760.219,-86 760.219,-122"/>
<text text-anchor="middle" x="693" y="-99.8" font-family="Times,serif" font-size="14.00" fill="#000000">LpPromoComponent</text>
</g>
<!-- LpPromoComponent&#45;&gt;LandingModule -->
<g id="edge8" class="edge">
<title>LpPromoComponent&#45;&gt;LandingModule</title>
<path fill="none" stroke="#000000" d="M693,-122.2396C693,-137.5706 693,-157 693,-157 693,-157 878.8887,-157 878.8887,-157"/>
<polygon fill="#000000" stroke="#000000" points="878.8887,-160.5001 888.8887,-157 878.8886,-153.5001 878.8887,-160.5001"/>
</g>
<!-- PlItemComponent -->
<g id="node9" class="node">
<title>PlItemComponent</title>
<polygon fill="#ffffb3" stroke="#000000" points="608.1625,-122 489.8375,-122 489.8375,-86 608.1625,-86 608.1625,-122"/>
<text text-anchor="middle" x="549" y="-99.8" font-family="Times,serif" font-size="14.00" fill="#000000">PlItemComponent</text>
</g>
<!-- PlItemComponent&#45;&gt;LandingModule -->
<g id="edge9" class="edge">
<title>PlItemComponent&#45;&gt;LandingModule</title>
<path fill="none" stroke="#000000" d="M549,-122.0225C549,-139.3734 549,-163 549,-163 549,-163 878.5893,-163 878.5893,-163"/>
<polygon fill="#000000" stroke="#000000" points="878.5893,-166.5001 888.5893,-163 878.5892,-159.5001 878.5893,-166.5001"/>
</g>
<!-- ReturnPolicyComponent -->
<g id="node10" class="node">
<title>ReturnPolicyComponent</title>
<polygon fill="#ffffb3" stroke="#000000" points="471.7133,-122 316.2867,-122 316.2867,-86 471.7133,-86 471.7133,-122"/>
<text text-anchor="middle" x="394" y="-99.8" font-family="Times,serif" font-size="14.00" fill="#000000">ReturnPolicyComponent</text>
</g>
<!-- ReturnPolicyComponent&#45;&gt;LandingModule -->
<g id="edge10" class="edge">
<title>ReturnPolicyComponent&#45;&gt;LandingModule</title>
<path fill="none" stroke="#000000" d="M394,-122.1061C394,-141.3391 394,-169 394,-169 394,-169 878.4577,-169 878.4577,-169"/>
<polygon fill="#000000" stroke="#000000" points="878.4577,-172.5001 888.4577,-169 878.4576,-165.5001 878.4577,-172.5001"/>
</g>
<!-- LandingRoutingModule -->
<g id="node12" class="node">
<title>LandingRoutingModule</title>
<polygon fill="#8dd3c7" stroke="#000000" points="291.8258,-122 288.8258,-126 267.8258,-126 264.8258,-122 140.1742,-122 140.1742,-86 291.8258,-86 291.8258,-122"/>
<text text-anchor="middle" x="216" y="-99.8" font-family="Times,serif" font-size="14.00" fill="#000000">LandingRoutingModule</text>
</g>
<!-- LandingRoutingModule&#45;&gt;LandingModule -->
<g id="edge11" class="edge">
<title>LandingRoutingModule&#45;&gt;LandingModule</title>
<path fill="none" stroke="#000000" d="M216,-122.2843C216,-143.3211 216,-175 216,-175 216,-175 878.6155,-175 878.6155,-175"/>
<polygon fill="#000000" stroke="#000000" points="878.6155,-178.5001 888.6155,-175 878.6155,-171.5001 878.6155,-178.5001"/>
</g>
<!-- SharedModule -->
<g id="node13" class="node">
<title>SharedModule</title>
<polygon fill="#8dd3c7" stroke="#000000" points="122.4231,-122 119.4231,-126 98.4231,-126 95.4231,-122 23.5769,-122 23.5769,-86 122.4231,-86 122.4231,-122"/>
<text text-anchor="middle" x="73" y="-99.8" font-family="Times,serif" font-size="14.00" fill="#000000">SharedModule</text>
</g>
<!-- SharedModule&#45;&gt;LandingModule -->
<g id="edge12" class="edge">
<title>SharedModule&#45;&gt;LandingModule</title>
<path fill="none" stroke="#000000" d="M73,-122.0908C73,-145.1328 73,-182 73,-182 73,-182 878.6226,-182 878.6226,-182"/>
<polygon fill="#000000" stroke="#000000" points="878.6226,-185.5001 888.6226,-182 878.6225,-178.5001 878.6226,-185.5001"/>
</g>
</g>
</svg>
