<?xml version="1.0" standalone="no"?>
<!DOCTYPE svg PUBLIC "-//W3C//DTD SVG 20010904//EN"
 "http://www.w3.org/TR/2001/REC-SVG-20010904/DTD/svg10.dtd">
<svg version="1.0" xmlns="http://www.w3.org/2000/svg"
 width="746.000000pt" height="192.000000pt" viewBox="0 0 746.000000 192.000000"
 preserveAspectRatio="xMidYMid meet">

<g transform="translate(0.000000,192.000000) scale(0.100000,-0.100000)"
fill="#000000" stroke="none">
<path d="M740 1900 c-141 -30 -274 -94 -388 -188 l-44 -35 206 -206 c163 -163
204 -209 194 -219 -7 -7 -17 -12 -22 -12 -6 0 -101 90 -212 201 l-201 201 -46
-52 c-64 -71 -132 -183 -167 -274 -25 -65 -60 -211 -60 -252 0 -12 49 -14 290
-14 l290 0 0 -25 0 -25 -290 0 -290 0 0 -69 c0 -159 57 -339 153 -484 92 -138
61 -147 303 87 l210 203 -23 34 c-59 85 -70 256 -24 351 52 108 168 194 276
205 l55 6 0 293 0 294 -62 -1 c-35 0 -101 -9 -148 -19z m-105 -225 c17 -62 19
-64 44 -59 14 4 51 17 81 31 l54 24 -24 -27 c-14 -15 -44 -35 -67 -46 -55 -24
-59 -32 -26 -57 16 -11 22 -21 16 -21 -7 0 -13 -8 -13 -17 -1 -16 -2 -15 -12
2 -7 11 -29 36 -51 57 -22 20 -36 41 -33 46 3 6 1 23 -5 39 -11 29 -4 93 10
93 5 0 17 -29 26 -65z m-273 -269 c8 -8 23 -16 34 -18 26 -5 24 -32 -3 -36
-15 -2 -23 -10 -23 -23 0 -10 -4 -19 -8 -19 -5 0 -5 -24 -1 -54 9 -68 18 -96
30 -96 5 0 9 -4 9 -10 0 -24 -27 -7 -48 30 -20 35 -25 38 -42 28 -14 -9 -16
-16 -8 -25 7 -9 7 -17 -2 -28 -10 -13 -9 -15 9 -15 11 0 21 -5 21 -11 0 -7
-26 -9 -76 -6 -57 3 -80 9 -92 23 -16 17 -16 17 0 5 19 -14 20 -13 32 40 3 14
23 46 45 71 27 30 44 62 51 93 6 27 13 52 16 57 8 13 41 9 56 -6z m-2 -521
c10 -11 10 -18 1 -29 -7 -8 -9 -25 -5 -40 3 -15 1 -32 -6 -41 -8 -10 -9 -27
-2 -58 l9 -44 -56 -2 c-31 -1 -60 -6 -65 -11 -13 -13 11 -38 42 -43 l27 -4
-26 -2 c-15 0 -37 7 -49 17 -19 15 -21 22 -11 40 7 14 8 29 1 46 -12 34 1 70
35 92 14 9 35 34 46 56 21 40 39 48 59 23z"/>
<path d="M316 701 c-4 -7 -5 -15 -2 -18 9 -9 19 4 14 18 -4 11 -6 11 -12 0z"/>
<path d="M2418 1780 c-65 -11 -148 -58 -175 -99 -31 -46 -42 -89 -49 -198 l-7
-93 -68 0 -69 0 0 -105 0 -105 70 0 70 0 0 -390 0 -390 135 0 135 0 0 390 0
390 100 0 101 0 -3 103 -3 102 -99 3 -99 3 5 71 c5 63 9 75 34 96 26 23 33 24
110 18 l81 -6 17 85 c9 47 14 89 11 94 -14 24 -220 45 -297 31z"/>
<path d="M2670 1387 c0 -2 83 -223 185 -491 102 -268 185 -495 185 -505 0 -33
-52 -122 -88 -149 -33 -25 -42 -27 -128 -26 l-92 1 5 -36 c2 -20 7 -65 11
-101 l7 -64 40 -9 c71 -15 234 -3 290 22 65 29 120 82 155 151 15 31 120 307
233 615 113 308 208 568 212 578 7 16 -4 17 -132 17 l-139 0 -114 -346 -113
-347 -117 344 -117 344 -142 3 c-77 1 -141 1 -141 -1z"/>
<path d="M486 497 l-208 -203 44 -40 c145 -134 339 -217 536 -231 l92 -6 0
296 0 297 -33 0 c-51 0 -129 27 -175 60 -23 16 -43 30 -44 30 -2 -1 -97 -92
-212 -203z m281 -102 c87 -37 88 -71 1 -103 -45 -17 -54 -18 -66 -5 -11 10
-26 12 -54 8 -29 -5 -38 -4 -36 7 2 9 -7 13 -28 12 -30 -2 -32 1 -32 31 0 32
1 33 24 23 25 -12 89 6 79 22 -14 22 63 25 112 5z"/>
</g>
</svg>
