<?xml version="1.0" encoding="UTF-8" standalone="no"?>
<!DOCTYPE svg PUBLIC "-//W3C//DTD SVG 1.1//EN"
 "http://www.w3.org/Graphics/SVG/1.1/DTD/svg11.dtd">
<!-- Generated by graphviz version 2.40.1 (20161225.0304)
 -->
<!-- Title: dependencies Pages: 1 -->
<svg width="1667pt" height="284pt"
 viewBox="0.00 0.00 1667.00 284.00" xmlns="http://www.w3.org/2000/svg" xmlns:xlink="http://www.w3.org/1999/xlink">
<g id="graph0" class="graph" transform="scale(1 1) rotate(0) translate(4 280)">
<title>dependencies</title>
<polygon fill="#ffffff" stroke="transparent" points="-4,4 -4,-280 1663,-280 1663,4 -4,4"/>
<text text-anchor="start" x="808.5091" y="-42.4" font-family="sans-serif" font-weight="bold" font-size="14.00" fill="#000000">Legend</text>
<polygon fill="#ffffb3" stroke="transparent" points="595.5,-10 595.5,-30 615.5,-30 615.5,-10 595.5,-10"/>
<text text-anchor="start" x="619.129" y="-15.4" font-family="sans-serif" font-size="14.00" fill="#000000"> &#160;Declarations</text>
<polygon fill="#8dd3c7" stroke="transparent" points="708.5,-10 708.5,-30 728.5,-30 728.5,-10 708.5,-10"/>
<text text-anchor="start" x="732.2251" y="-15.4" font-family="sans-serif" font-size="14.00" fill="#000000"> &#160;Module</text>
<polygon fill="#80b1d3" stroke="transparent" points="794.5,-10 794.5,-30 814.5,-30 814.5,-10 794.5,-10"/>
<text text-anchor="start" x="818.2812" y="-15.4" font-family="sans-serif" font-size="14.00" fill="#000000"> &#160;Bootstrap</text>
<polygon fill="#fdb462" stroke="transparent" points="891.5,-10 891.5,-30 911.5,-30 911.5,-10 891.5,-10"/>
<text text-anchor="start" x="915.1732" y="-15.4" font-family="sans-serif" font-size="14.00" fill="#000000"> &#160;Providers</text>
<polygon fill="#fb8072" stroke="transparent" points="987.5,-10 987.5,-30 1007.5,-30 1007.5,-10 987.5,-10"/>
<text text-anchor="start" x="1011.2258" y="-15.4" font-family="sans-serif" font-size="14.00" fill="#000000"> &#160;Exports</text>
<g id="clust1" class="cluster">
<title>cluster_ProductModule</title>
<polygon fill="none" stroke="#000000" stroke-dasharray="1,5" points="8,-70 8,-268 1651,-268 1651,-70 8,-70"/>
</g>
<g id="clust2" class="cluster">
<title>cluster_ProductModule_declarations</title>
<polygon fill="none" stroke="#000000" points="338,-78 338,-130 1643,-130 1643,-78 338,-78"/>
</g>
<g id="clust10" class="cluster">
<title>cluster_ProductModule_imports</title>
<polygon fill="none" stroke="#000000" points="16,-78 16,-130 330,-130 330,-78 16,-78"/>
</g>
<g id="clust11" class="cluster">
<title>cluster_ProductModule_exports</title>
<polygon fill="none" stroke="#000000" points="233,-208 233,-260 1416,-260 1416,-208 233,-208"/>
</g>
<!-- ProductDetailPageComponent -->
<g id="node1" class="node">
<title>ProductDetailPageComponent</title>
<polygon fill="#ffffb3" stroke="#000000" points="1635.3004,-122 1448.6996,-122 1448.6996,-86 1635.3004,-86 1635.3004,-122"/>
<text text-anchor="middle" x="1542" y="-99.8" font-family="Times,serif" font-size="14.00" fill="#000000">ProductDetailPageComponent</text>
</g>
<!-- ProductModule -->
<g id="node8" class="node">
<title>ProductModule</title>
<polygon fill="#8dd3c7" stroke="#000000" points="884.5982,-187 881.5982,-191 860.5982,-191 857.5982,-187 781.4018,-187 781.4018,-151 884.5982,-151 884.5982,-187"/>
<text text-anchor="middle" x="833" y="-164.8" font-family="Times,serif" font-size="14.00" fill="#000000">ProductModule</text>
</g>
<!-- ProductDetailPageComponent&#45;&gt;ProductModule -->
<g id="edge1" class="edge">
<title>ProductDetailPageComponent&#45;&gt;ProductModule</title>
<path fill="none" stroke="#000000" d="M1542,-122.2228C1542,-142.3652 1542,-172 1542,-172 1542,-172 894.5606,-172 894.5606,-172"/>
<polygon fill="#000000" stroke="#000000" points="894.5607,-168.5001 884.5606,-172 894.5606,-175.5001 894.5607,-168.5001"/>
</g>
<!-- ProductComponent -->
<g id="node2" class="node">
<title>ProductComponent</title>
<polygon fill="#ffffb3" stroke="#000000" points="1430.3809,-122 1305.6191,-122 1305.6191,-86 1430.3809,-86 1430.3809,-122"/>
<text text-anchor="middle" x="1368" y="-99.8" font-family="Times,serif" font-size="14.00" fill="#000000">ProductComponent</text>
</g>
<!-- ProductComponent&#45;&gt;ProductModule -->
<g id="edge2" class="edge">
<title>ProductComponent&#45;&gt;ProductModule</title>
<path fill="none" stroke="#000000" d="M1356.7299,-122.2222C1356.7299,-140.8285 1356.7299,-167 1356.7299,-167 1356.7299,-167 894.6506,-167 894.6506,-167"/>
<polygon fill="#000000" stroke="#000000" points="894.6506,-163.5001 884.6506,-167 894.6505,-170.5001 894.6506,-163.5001"/>
</g>
<!-- ProductDetailsComponent -->
<g id="node3" class="node">
<title>ProductDetailsComponent</title>
<polygon fill="#ffffb3" stroke="#000000" points="1287.0337,-122 1122.9663,-122 1122.9663,-86 1287.0337,-86 1287.0337,-122"/>
<text text-anchor="middle" x="1205" y="-99.8" font-family="Times,serif" font-size="14.00" fill="#000000">ProductDetailsComponent</text>
</g>
<!-- ProductDetailsComponent&#45;&gt;ProductModule -->
<g id="edge3" class="edge">
<title>ProductDetailsComponent&#45;&gt;ProductModule</title>
<path fill="none" stroke="#000000" d="M1161.375,-122.0336C1161.375,-139.0597 1161.375,-162 1161.375,-162 1161.375,-162 894.6698,-162 894.6698,-162"/>
<polygon fill="#000000" stroke="#000000" points="894.6699,-158.5001 884.6698,-162 894.6698,-165.5001 894.6699,-158.5001"/>
</g>
<!-- ProductImagesComponent -->
<g id="node4" class="node">
<title>ProductImagesComponent</title>
<polygon fill="#ffffb3" stroke="#000000" points="1104.8061,-122 939.1939,-122 939.1939,-86 1104.8061,-86 1104.8061,-122"/>
<text text-anchor="middle" x="1022" y="-99.8" font-family="Times,serif" font-size="14.00" fill="#000000">ProductImagesComponent</text>
</g>
<!-- ProductImagesComponent&#45;&gt;ProductModule -->
<g id="edge4" class="edge">
<title>ProductImagesComponent&#45;&gt;ProductModule</title>
<path fill="none" stroke="#000000" d="M976.875,-122.2396C976.875,-137.5706 976.875,-157 976.875,-157 976.875,-157 894.9422,-157 894.9422,-157"/>
<polygon fill="#000000" stroke="#000000" points="894.9422,-153.5001 884.9422,-157 894.9421,-160.5001 894.9422,-153.5001"/>
</g>
<!-- ProductPriceInfoComponent -->
<g id="node5" class="node">
<title>ProductPriceInfoComponent</title>
<polygon fill="#ffffb3" stroke="#000000" points="921.465,-122 744.535,-122 744.535,-86 921.465,-86 921.465,-122"/>
<text text-anchor="middle" x="833" y="-99.8" font-family="Times,serif" font-size="14.00" fill="#000000">ProductPriceInfoComponent</text>
</g>
<!-- ProductPriceInfoComponent&#45;&gt;ProductModule -->
<g id="edge5" class="edge">
<title>ProductPriceInfoComponent&#45;&gt;ProductModule</title>
<path fill="none" stroke="#000000" d="M833,-122.1061C833,-122.1061 833,-140.991 833,-140.991"/>
<polygon fill="#000000" stroke="#000000" points="829.5001,-140.9909 833,-150.991 836.5001,-140.991 829.5001,-140.9909"/>
</g>
<!-- ProductDescriptionComponent -->
<g id="node6" class="node">
<title>ProductDescriptionComponent</title>
<polygon fill="#ffffb3" stroke="#000000" points="726.1937,-122 535.8063,-122 535.8063,-86 726.1937,-86 726.1937,-122"/>
<text text-anchor="middle" x="631" y="-99.8" font-family="Times,serif" font-size="14.00" fill="#000000">ProductDescriptionComponent</text>
</g>
<!-- ProductDescriptionComponent&#45;&gt;ProductModule -->
<g id="edge6" class="edge">
<title>ProductDescriptionComponent&#45;&gt;ProductModule</title>
<path fill="none" stroke="#000000" d="M686.4322,-122.2396C686.4322,-137.5706 686.4322,-157 686.4322,-157 686.4322,-157 771.3257,-157 771.3257,-157"/>
<polygon fill="#000000" stroke="#000000" points="771.3257,-160.5001 781.3257,-157 771.3256,-153.5001 771.3257,-160.5001"/>
</g>
<!-- ProductVariantsComponent -->
<g id="node7" class="node">
<title>ProductVariantsComponent</title>
<polygon fill="#ffffb3" stroke="#000000" points="518.3033,-122 345.6967,-122 345.6967,-86 518.3033,-86 518.3033,-122"/>
<text text-anchor="middle" x="432" y="-99.8" font-family="Times,serif" font-size="14.00" fill="#000000">ProductVariantsComponent</text>
</g>
<!-- ProductVariantsComponent&#45;&gt;ProductModule -->
<g id="edge7" class="edge">
<title>ProductVariantsComponent&#45;&gt;ProductModule</title>
<path fill="none" stroke="#000000" d="M476.6524,-122.0336C476.6524,-139.0597 476.6524,-162 476.6524,-162 476.6524,-162 771.184,-162 771.184,-162"/>
<polygon fill="#000000" stroke="#000000" points="771.184,-165.5001 781.184,-162 771.184,-158.5001 771.184,-165.5001"/>
</g>
<!-- ProductDetailPageComponent  -->
<g id="node11" class="node">
<title>ProductDetailPageComponent </title>
<polygon fill="#fb8072" stroke="#000000" points="1407.8003,-252 1218.1997,-252 1218.1997,-216 1407.8003,-216 1407.8003,-252"/>
<text text-anchor="middle" x="1313" y="-229.8" font-family="Times,serif" font-size="14.00" fill="#000000">ProductDetailPageComponent </text>
</g>
<!-- ProductModule&#45;&gt;ProductDetailPageComponent  -->
<g id="edge10" class="edge">
<title>ProductModule&#45;&gt;ProductDetailPageComponent </title>
<path fill="none" stroke="#000000" stroke-dasharray="5,2" d="M884.8823,-177C997.1689,-177 1252.6832,-177 1252.6832,-177 1252.6832,-177 1252.6832,-205.9648 1252.6832,-205.9648"/>
<polygon fill="#000000" stroke="#000000" points="1249.1833,-205.9648 1252.6832,-215.9648 1256.1833,-205.9649 1249.1833,-205.9648"/>
</g>
<!-- ProductDetailsComponent  -->
<g id="node12" class="node">
<title>ProductDetailsComponent </title>
<polygon fill="#fb8072" stroke="#000000" points="1200.033,-252 1031.967,-252 1031.967,-216 1200.033,-216 1200.033,-252"/>
<text text-anchor="middle" x="1116" y="-229.8" font-family="Times,serif" font-size="14.00" fill="#000000">ProductDetailsComponent </text>
</g>
<!-- ProductModule&#45;&gt;ProductDetailsComponent  -->
<g id="edge11" class="edge">
<title>ProductModule&#45;&gt;ProductDetailsComponent </title>
<path fill="none" stroke="#000000" stroke-dasharray="5,2" d="M884.6416,-182C953.9114,-182 1068.3182,-182 1068.3182,-182 1068.3182,-182 1068.3182,-205.8129 1068.3182,-205.8129"/>
<polygon fill="#000000" stroke="#000000" points="1064.8183,-205.8129 1068.3182,-215.8129 1071.8183,-205.813 1064.8183,-205.8129"/>
</g>
<!-- ProductImagesComponent  -->
<g id="node13" class="node">
<title>ProductImagesComponent </title>
<polygon fill="#fb8072" stroke="#000000" points="1014.3059,-252 845.6941,-252 845.6941,-216 1014.3059,-216 1014.3059,-252"/>
<text text-anchor="middle" x="930" y="-229.8" font-family="Times,serif" font-size="14.00" fill="#000000">ProductImagesComponent </text>
</g>
<!-- ProductModule&#45;&gt;ProductImagesComponent  -->
<g id="edge12" class="edge">
<title>ProductModule&#45;&gt;ProductImagesComponent </title>
<path fill="none" stroke="#000000" stroke-dasharray="5,2" d="M865.0731,-187.1061C865.0731,-187.1061 865.0731,-205.991 865.0731,-205.991"/>
<polygon fill="#000000" stroke="#000000" points="861.5732,-205.9909 865.0731,-215.991 868.5732,-205.991 861.5732,-205.9909"/>
</g>
<!-- ProductPriceInfoComponent  -->
<g id="node14" class="node">
<title>ProductPriceInfoComponent </title>
<polygon fill="#fb8072" stroke="#000000" points="827.4656,-252 646.5344,-252 646.5344,-216 827.4656,-216 827.4656,-252"/>
<text text-anchor="middle" x="737" y="-229.8" font-family="Times,serif" font-size="14.00" fill="#000000">ProductPriceInfoComponent </text>
</g>
<!-- ProductModule&#45;&gt;ProductPriceInfoComponent  -->
<g id="edge13" class="edge">
<title>ProductModule&#45;&gt;ProductPriceInfoComponent </title>
<path fill="none" stroke="#000000" stroke-dasharray="5,2" d="M804.3417,-187.1061C804.3417,-187.1061 804.3417,-205.991 804.3417,-205.991"/>
<polygon fill="#000000" stroke="#000000" points="800.8418,-205.9909 804.3417,-215.991 807.8418,-205.991 800.8418,-205.9909"/>
</g>
<!-- ProductDescriptionComponent  -->
<g id="node15" class="node">
<title>ProductDescriptionComponent </title>
<polygon fill="#fb8072" stroke="#000000" points="628.6938,-252 435.3062,-252 435.3062,-216 628.6938,-216 628.6938,-252"/>
<text text-anchor="middle" x="532" y="-229.8" font-family="Times,serif" font-size="14.00" fill="#000000">ProductDescriptionComponent </text>
</g>
<!-- ProductModule&#45;&gt;ProductDescriptionComponent  -->
<g id="edge14" class="edge">
<title>ProductModule&#45;&gt;ProductDescriptionComponent </title>
<path fill="none" stroke="#000000" stroke-dasharray="5,2" d="M781.3742,-182C708.0071,-182 582.375,-182 582.375,-182 582.375,-182 582.375,-205.8129 582.375,-205.8129"/>
<polygon fill="#000000" stroke="#000000" points="578.8751,-205.8129 582.375,-215.8129 585.8751,-205.813 578.8751,-205.8129"/>
</g>
<!-- ProductVariantsComponent  -->
<g id="node16" class="node">
<title>ProductVariantsComponent </title>
<polygon fill="#fb8072" stroke="#000000" points="416.8031,-252 241.1969,-252 241.1969,-216 416.8031,-216 416.8031,-252"/>
<text text-anchor="middle" x="329" y="-229.8" font-family="Times,serif" font-size="14.00" fill="#000000">ProductVariantsComponent </text>
</g>
<!-- ProductModule&#45;&gt;ProductVariantsComponent  -->
<g id="edge15" class="edge">
<title>ProductModule&#45;&gt;ProductVariantsComponent </title>
<path fill="none" stroke="#000000" stroke-dasharray="5,2" d="M781.1929,-177C662.5656,-177 381.375,-177 381.375,-177 381.375,-177 381.375,-205.9648 381.375,-205.9648"/>
<polygon fill="#000000" stroke="#000000" points="377.8751,-205.9648 381.375,-215.9648 384.8751,-205.9649 377.8751,-205.9648"/>
</g>
<!-- SharedModule -->
<g id="node9" class="node">
<title>SharedModule</title>
<polygon fill="#8dd3c7" stroke="#000000" points="322.4231,-122 319.4231,-126 298.4231,-126 295.4231,-122 223.5769,-122 223.5769,-86 322.4231,-86 322.4231,-122"/>
<text text-anchor="middle" x="273" y="-99.8" font-family="Times,serif" font-size="14.00" fill="#000000">SharedModule</text>
</g>
<!-- SharedModule&#45;&gt;ProductModule -->
<g id="edge8" class="edge">
<title>SharedModule&#45;&gt;ProductModule</title>
<path fill="none" stroke="#000000" d="M281.6548,-122.2222C281.6548,-140.8285 281.6548,-167 281.6548,-167 281.6548,-167 771.1308,-167 771.1308,-167"/>
<polygon fill="#000000" stroke="#000000" points="771.1308,-170.5001 781.1308,-167 771.1307,-163.5001 771.1308,-170.5001"/>
</g>
<!-- RouterModule.forChild(args) -->
<g id="node10" class="node">
<title>RouterModule.forChild(args)</title>
<polygon fill="#8dd3c7" stroke="#000000" points="205.7323,-122 202.7323,-126 181.7323,-126 178.7323,-122 24.2677,-122 24.2677,-86 205.7323,-86 205.7323,-122"/>
<text text-anchor="middle" x="115" y="-99.8" font-family="Times,serif" font-size="14.00" fill="#000000">RouterModule.forChild(args)</text>
</g>
<!-- RouterModule.forChild(args)&#45;&gt;ProductModule -->
<g id="edge9" class="edge">
<title>RouterModule.forChild(args)&#45;&gt;ProductModule</title>
<path fill="none" stroke="#000000" d="M115,-122.2228C115,-142.3652 115,-172 115,-172 115,-172 771.3632,-172 771.3632,-172"/>
<polygon fill="#000000" stroke="#000000" points="771.3632,-175.5001 781.3632,-172 771.3632,-168.5001 771.3632,-175.5001"/>
</g>
</g>
</svg>
