<?xml version="1.0" encoding="UTF-8" standalone="no"?>
<!DOCTYPE svg PUBLIC "-//W3C//DTD SVG 1.1//EN"
 "http://www.w3.org/Graphics/SVG/1.1/DTD/svg11.dtd">
<!-- Generated by graphviz version 2.40.1 (20161225.0304)
 -->
<!-- Title: dependencies Pages: 1 -->
<svg width="2567pt" height="284pt"
 viewBox="0.00 0.00 2567.00 284.00" xmlns="http://www.w3.org/2000/svg" xmlns:xlink="http://www.w3.org/1999/xlink">
<g id="graph0" class="graph" transform="scale(1 1) rotate(0) translate(4 280)">
<title>dependencies</title>
<polygon fill="#ffffff" stroke="transparent" points="-4,4 -4,-280 2563,-280 2563,4 -4,4"/>
<text text-anchor="start" x="1258.5091" y="-42.4" font-family="sans-serif" font-weight="bold" font-size="14.00" fill="#000000">Legend</text>
<polygon fill="#ffffb3" stroke="transparent" points="1045.5,-10 1045.5,-30 1065.5,-30 1065.5,-10 1045.5,-10"/>
<text text-anchor="start" x="1069.129" y="-15.4" font-family="sans-serif" font-size="14.00" fill="#000000"> &#160;Declarations</text>
<polygon fill="#8dd3c7" stroke="transparent" points="1158.5,-10 1158.5,-30 1178.5,-30 1178.5,-10 1158.5,-10"/>
<text text-anchor="start" x="1182.2251" y="-15.4" font-family="sans-serif" font-size="14.00" fill="#000000"> &#160;Module</text>
<polygon fill="#80b1d3" stroke="transparent" points="1244.5,-10 1244.5,-30 1264.5,-30 1264.5,-10 1244.5,-10"/>
<text text-anchor="start" x="1268.2812" y="-15.4" font-family="sans-serif" font-size="14.00" fill="#000000"> &#160;Bootstrap</text>
<polygon fill="#fdb462" stroke="transparent" points="1341.5,-10 1341.5,-30 1361.5,-30 1361.5,-10 1341.5,-10"/>
<text text-anchor="start" x="1365.1732" y="-15.4" font-family="sans-serif" font-size="14.00" fill="#000000"> &#160;Providers</text>
<polygon fill="#fb8072" stroke="transparent" points="1437.5,-10 1437.5,-30 1457.5,-30 1457.5,-10 1437.5,-10"/>
<text text-anchor="start" x="1461.2258" y="-15.4" font-family="sans-serif" font-size="14.00" fill="#000000"> &#160;Exports</text>
<g id="clust1" class="cluster">
<title>cluster_ProductModule</title>
<polygon fill="none" stroke="#000000" stroke-dasharray="1,5" points="8,-70 8,-268 2551,-268 2551,-70 8,-70"/>
</g>
<g id="clust2" class="cluster">
<title>cluster_ProductModule_declarations</title>
<polygon fill="none" stroke="#000000" points="478,-78 478,-130 2543,-130 2543,-78 478,-78"/>
</g>
<g id="clust14" class="cluster">
<title>cluster_ProductModule_imports</title>
<polygon fill="none" stroke="#000000" points="190,-78 190,-130 470,-130 470,-78 190,-78"/>
</g>
<g id="clust15" class="cluster">
<title>cluster_ProductModule_exports</title>
<polygon fill="none" stroke="#000000" points="591,-208 591,-260 1954,-260 1954,-208 591,-208"/>
</g>
<g id="clust17" class="cluster">
<title>cluster_ProductModule_providers</title>
<polygon fill="none" stroke="#000000" points="16,-78 16,-130 182,-130 182,-78 16,-78"/>
</g>
<!-- CheckPincodeComponent -->
<g id="node1" class="node">
<title>CheckPincodeComponent</title>
<polygon fill="#ffffb3" stroke="#000000" points="2535.2007,-122 2372.7993,-122 2372.7993,-86 2535.2007,-86 2535.2007,-122"/>
<text text-anchor="middle" x="2454" y="-99.8" font-family="Times,serif" font-size="14.00" fill="#000000">CheckPincodeComponent</text>
</g>
<!-- ProductModule -->
<g id="node12" class="node">
<title>ProductModule</title>
<polygon fill="#8dd3c7" stroke="#000000" points="1313.5982,-187 1310.5982,-191 1289.5982,-191 1286.5982,-187 1210.4018,-187 1210.4018,-151 1313.5982,-151 1313.5982,-187"/>
<text text-anchor="middle" x="1262" y="-164.8" font-family="Times,serif" font-size="14.00" fill="#000000">ProductModule</text>
</g>
<!-- CheckPincodeComponent&#45;&gt;ProductModule -->
<g id="edge1" class="edge">
<title>CheckPincodeComponent&#45;&gt;ProductModule</title>
<path fill="none" stroke="#000000" d="M2454,-122.1289C2454,-142.5724 2454,-173 2454,-173 2454,-173 1323.6013,-173 1323.6013,-173"/>
<polygon fill="#000000" stroke="#000000" points="1323.6014,-169.5001 1313.6013,-173 1323.6013,-176.5001 1323.6014,-169.5001"/>
</g>
<!-- ProductComponent -->
<g id="node2" class="node">
<title>ProductComponent</title>
<polygon fill="#ffffb3" stroke="#000000" points="2354.3809,-122 2229.6191,-122 2229.6191,-86 2354.3809,-86 2354.3809,-122"/>
<text text-anchor="middle" x="2292" y="-99.8" font-family="Times,serif" font-size="14.00" fill="#000000">ProductComponent</text>
</g>
<!-- ProductComponent&#45;&gt;ProductModule -->
<g id="edge2" class="edge">
<title>ProductComponent&#45;&gt;ProductModule</title>
<path fill="none" stroke="#000000" d="M2292,-122.1061C2292,-141.3391 2292,-169 2292,-169 2292,-169 1323.7837,-169 1323.7837,-169"/>
<polygon fill="#000000" stroke="#000000" points="1323.7838,-165.5001 1313.7837,-169 1323.7837,-172.5001 1323.7838,-165.5001"/>
</g>
<!-- ProductCountComponent -->
<g id="node3" class="node">
<title>ProductCountComponent</title>
<polygon fill="#ffffb3" stroke="#000000" points="2211.608,-122 2052.392,-122 2052.392,-86 2211.608,-86 2211.608,-122"/>
<text text-anchor="middle" x="2132" y="-99.8" font-family="Times,serif" font-size="14.00" fill="#000000">ProductCountComponent</text>
</g>
<!-- ProductCountComponent&#45;&gt;ProductModule -->
<g id="edge3" class="edge">
<title>ProductCountComponent&#45;&gt;ProductModule</title>
<path fill="none" stroke="#000000" d="M2132,-122.2667C2132,-140.5552 2132,-166 2132,-166 2132,-166 1323.817,-166 1323.817,-166"/>
<polygon fill="#000000" stroke="#000000" points="1323.8171,-162.5001 1313.817,-166 1323.817,-169.5001 1323.8171,-162.5001"/>
</g>
<!-- ProductDescriptionComponent -->
<g id="node4" class="node">
<title>ProductDescriptionComponent</title>
<polygon fill="#ffffb3" stroke="#000000" points="2034.1937,-122 1843.8063,-122 1843.8063,-86 2034.1937,-86 2034.1937,-122"/>
<text text-anchor="middle" x="1939" y="-99.8" font-family="Times,serif" font-size="14.00" fill="#000000">ProductDescriptionComponent</text>
</g>
<!-- ProductDescriptionComponent&#45;&gt;ProductModule -->
<g id="edge4" class="edge">
<title>ProductDescriptionComponent&#45;&gt;ProductModule</title>
<path fill="none" stroke="#000000" d="M1895.1036,-122.0336C1895.1036,-139.0597 1895.1036,-162 1895.1036,-162 1895.1036,-162 1323.8095,-162 1323.8095,-162"/>
<polygon fill="#000000" stroke="#000000" points="1323.8096,-158.5001 1313.8095,-162 1323.8095,-165.5001 1323.8096,-158.5001"/>
</g>
<!-- ProductDetailPageComponent -->
<g id="node5" class="node">
<title>ProductDetailPageComponent</title>
<polygon fill="#ffffb3" stroke="#000000" points="1826.3004,-122 1639.6996,-122 1639.6996,-86 1826.3004,-86 1826.3004,-122"/>
<text text-anchor="middle" x="1733" y="-99.8" font-family="Times,serif" font-size="14.00" fill="#000000">ProductDetailPageComponent</text>
</g>
<!-- ProductDetailPageComponent&#45;&gt;ProductModule -->
<g id="edge5" class="edge">
<title>ProductDetailPageComponent&#45;&gt;ProductModule</title>
<path fill="none" stroke="#000000" d="M1702.8484,-122.0091C1702.8484,-138.0494 1702.8484,-159 1702.8484,-159 1702.8484,-159 1323.8673,-159 1323.8673,-159"/>
<polygon fill="#000000" stroke="#000000" points="1323.8673,-155.5001 1313.8673,-159 1323.8672,-162.5001 1323.8673,-155.5001"/>
</g>
<!-- ProductDetailsComponent -->
<g id="node6" class="node">
<title>ProductDetailsComponent</title>
<polygon fill="#ffffb3" stroke="#000000" points="1622.0337,-122 1457.9663,-122 1457.9663,-86 1622.0337,-86 1622.0337,-122"/>
<text text-anchor="middle" x="1540" y="-99.8" font-family="Times,serif" font-size="14.00" fill="#000000">ProductDetailsComponent</text>
</g>
<!-- ProductDetailsComponent&#45;&gt;ProductModule -->
<g id="edge6" class="edge">
<title>ProductDetailsComponent&#45;&gt;ProductModule</title>
<path fill="none" stroke="#000000" d="M1505.8168,-122.1243C1505.8168,-136.7832 1505.8168,-155 1505.8168,-155 1505.8168,-155 1323.7073,-155 1323.7073,-155"/>
<polygon fill="#000000" stroke="#000000" points="1323.7073,-151.5001 1313.7073,-155 1323.7072,-158.5001 1323.7073,-151.5001"/>
</g>
<!-- ProductImagesComponent -->
<g id="node7" class="node">
<title>ProductImagesComponent</title>
<polygon fill="#ffffb3" stroke="#000000" points="1439.8061,-122 1274.1939,-122 1274.1939,-86 1439.8061,-86 1439.8061,-122"/>
<text text-anchor="middle" x="1357" y="-99.8" font-family="Times,serif" font-size="14.00" fill="#000000">ProductImagesComponent</text>
</g>
<!-- ProductImagesComponent&#45;&gt;ProductModule -->
<g id="edge7" class="edge">
<title>ProductImagesComponent&#45;&gt;ProductModule</title>
<path fill="none" stroke="#000000" d="M1293.9481,-122.1061C1293.9481,-122.1061 1293.9481,-140.991 1293.9481,-140.991"/>
<polygon fill="#000000" stroke="#000000" points="1290.4482,-140.9909 1293.9481,-150.991 1297.4482,-140.991 1290.4482,-140.9909"/>
</g>
<!-- ProductPriceInfoComponent -->
<g id="node8" class="node">
<title>ProductPriceInfoComponent</title>
<polygon fill="#ffffb3" stroke="#000000" points="1256.465,-122 1079.535,-122 1079.535,-86 1256.465,-86 1256.465,-122"/>
<text text-anchor="middle" x="1168" y="-99.8" font-family="Times,serif" font-size="14.00" fill="#000000">ProductPriceInfoComponent</text>
</g>
<!-- ProductPriceInfoComponent&#45;&gt;ProductModule -->
<g id="edge8" class="edge">
<title>ProductPriceInfoComponent&#45;&gt;ProductModule</title>
<path fill="none" stroke="#000000" d="M1233.4667,-122.1061C1233.4667,-122.1061 1233.4667,-140.991 1233.4667,-140.991"/>
<polygon fill="#000000" stroke="#000000" points="1229.9668,-140.9909 1233.4667,-150.991 1236.9668,-140.991 1229.9668,-140.9909"/>
</g>
<!-- ProductReviewComponent -->
<g id="node9" class="node">
<title>ProductReviewComponent</title>
<polygon fill="#ffffb3" stroke="#000000" points="1061.6442,-122 894.3558,-122 894.3558,-86 1061.6442,-86 1061.6442,-122"/>
<text text-anchor="middle" x="978" y="-99.8" font-family="Times,serif" font-size="14.00" fill="#000000">ProductReviewComponent</text>
</g>
<!-- ProductReviewComponent&#45;&gt;ProductModule -->
<g id="edge9" class="edge">
<title>ProductReviewComponent&#45;&gt;ProductModule</title>
<path fill="none" stroke="#000000" d="M1026.7095,-122.1243C1026.7095,-136.7832 1026.7095,-155 1026.7095,-155 1026.7095,-155 1200.3645,-155 1200.3645,-155"/>
<polygon fill="#000000" stroke="#000000" points="1200.3645,-158.5001 1210.3645,-155 1200.3645,-151.5001 1200.3645,-158.5001"/>
</g>
<!-- ProductVariantsComponent -->
<g id="node10" class="node">
<title>ProductVariantsComponent</title>
<polygon fill="#ffffb3" stroke="#000000" points="876.3033,-122 703.6967,-122 703.6967,-86 876.3033,-86 876.3033,-122"/>
<text text-anchor="middle" x="790" y="-99.8" font-family="Times,serif" font-size="14.00" fill="#000000">ProductVariantsComponent</text>
</g>
<!-- ProductVariantsComponent&#45;&gt;ProductModule -->
<g id="edge10" class="edge">
<title>ProductVariantsComponent&#45;&gt;ProductModule</title>
<path fill="none" stroke="#000000" d="M834.4595,-122.0091C834.4595,-138.0494 834.4595,-159 834.4595,-159 834.4595,-159 1200.4286,-159 1200.4286,-159"/>
<polygon fill="#000000" stroke="#000000" points="1200.4287,-162.5001 1210.4286,-159 1200.4286,-155.5001 1200.4287,-162.5001"/>
</g>
<!-- WriteProductReviewComponent -->
<g id="node11" class="node">
<title>WriteProductReviewComponent</title>
<polygon fill="#ffffb3" stroke="#000000" points="685.5154,-122 486.4846,-122 486.4846,-86 685.5154,-86 685.5154,-122"/>
<text text-anchor="middle" x="586" y="-99.8" font-family="Times,serif" font-size="14.00" fill="#000000">WriteProductReviewComponent</text>
</g>
<!-- WriteProductReviewComponent&#45;&gt;ProductModule -->
<g id="edge11" class="edge">
<title>WriteProductReviewComponent&#45;&gt;ProductModule</title>
<path fill="none" stroke="#000000" d="M642.428,-122.0336C642.428,-139.0597 642.428,-162 642.428,-162 642.428,-162 1200.2413,-162 1200.2413,-162"/>
<polygon fill="#000000" stroke="#000000" points="1200.2413,-165.5001 1210.2413,-162 1200.2413,-158.5001 1200.2413,-165.5001"/>
</g>
<!-- ProductCountComponent  -->
<g id="node15" class="node">
<title>ProductCountComponent </title>
<polygon fill="#fb8072" stroke="#000000" points="1946.1085,-252 1783.8915,-252 1783.8915,-216 1946.1085,-216 1946.1085,-252"/>
<text text-anchor="middle" x="1865" y="-229.8" font-family="Times,serif" font-size="14.00" fill="#000000">ProductCountComponent </text>
</g>
<!-- ProductModule&#45;&gt;ProductCountComponent  -->
<g id="edge14" class="edge">
<title>ProductModule&#45;&gt;ProductCountComponent </title>
<path fill="none" stroke="#000000" stroke-dasharray="5,2" d="M1313.5664,-177C1449.0891,-177 1804.9231,-177 1804.9231,-177 1804.9231,-177 1804.9231,-205.9648 1804.9231,-205.9648"/>
<polygon fill="#000000" stroke="#000000" points="1801.4231,-205.9648 1804.9231,-215.9648 1808.4231,-205.9649 1801.4231,-205.9648"/>
</g>
<!-- ProductDescriptionComponent  -->
<g id="node16" class="node">
<title>ProductDescriptionComponent </title>
<polygon fill="#fb8072" stroke="#000000" points="1765.6938,-252 1572.3062,-252 1572.3062,-216 1765.6938,-216 1765.6938,-252"/>
<text text-anchor="middle" x="1669" y="-229.8" font-family="Times,serif" font-size="14.00" fill="#000000">ProductDescriptionComponent </text>
</g>
<!-- ProductModule&#45;&gt;ProductDescriptionComponent  -->
<g id="edge15" class="edge">
<title>ProductModule&#45;&gt;ProductDescriptionComponent </title>
<path fill="none" stroke="#000000" stroke-dasharray="5,2" d="M1313.6419,-180C1407.671,-180 1597.2099,-180 1597.2099,-180 1597.2099,-180 1597.2099,-205.7181 1597.2099,-205.7181"/>
<polygon fill="#000000" stroke="#000000" points="1593.7099,-205.718 1597.2099,-215.7181 1600.7099,-205.7181 1593.7099,-205.718"/>
</g>
<!-- ProductDetailPageComponent  -->
<g id="node17" class="node">
<title>ProductDetailPageComponent </title>
<polygon fill="#fb8072" stroke="#000000" points="1553.8003,-252 1364.1997,-252 1364.1997,-216 1553.8003,-216 1553.8003,-252"/>
<text text-anchor="middle" x="1459" y="-229.8" font-family="Times,serif" font-size="14.00" fill="#000000">ProductDetailPageComponent </text>
</g>
<!-- ProductModule&#45;&gt;ProductDetailPageComponent  -->
<g id="edge16" class="edge">
<title>ProductModule&#45;&gt;ProductDetailPageComponent </title>
<path fill="none" stroke="#000000" stroke-dasharray="5,2" d="M1313.6874,-184C1353.533,-184 1401.8764,-184 1401.8764,-184 1401.8764,-184 1401.8764,-205.9489 1401.8764,-205.9489"/>
<polygon fill="#000000" stroke="#000000" points="1398.3765,-205.9488 1401.8764,-215.9489 1405.3765,-205.9489 1398.3765,-205.9488"/>
</g>
<!-- ProductDetailsComponent  -->
<g id="node18" class="node">
<title>ProductDetailsComponent </title>
<polygon fill="#fb8072" stroke="#000000" points="1346.033,-252 1177.967,-252 1177.967,-216 1346.033,-216 1346.033,-252"/>
<text text-anchor="middle" x="1262" y="-229.8" font-family="Times,serif" font-size="14.00" fill="#000000">ProductDetailsComponent </text>
</g>
<!-- ProductModule&#45;&gt;ProductDetailsComponent  -->
<g id="edge17" class="edge">
<title>ProductModule&#45;&gt;ProductDetailsComponent </title>
<path fill="none" stroke="#000000" stroke-dasharray="5,2" d="M1262,-187.1061C1262,-187.1061 1262,-205.991 1262,-205.991"/>
<polygon fill="#000000" stroke="#000000" points="1258.5001,-205.9909 1262,-215.991 1265.5001,-205.991 1258.5001,-205.9909"/>
</g>
<!-- ProductImagesComponent  -->
<g id="node19" class="node">
<title>ProductImagesComponent </title>
<polygon fill="#fb8072" stroke="#000000" points="1160.3059,-252 991.6941,-252 991.6941,-216 1160.3059,-216 1160.3059,-252"/>
<text text-anchor="middle" x="1076" y="-229.8" font-family="Times,serif" font-size="14.00" fill="#000000">ProductImagesComponent </text>
</g>
<!-- ProductModule&#45;&gt;ProductImagesComponent  -->
<g id="edge18" class="edge">
<title>ProductModule&#45;&gt;ProductImagesComponent </title>
<path fill="none" stroke="#000000" stroke-dasharray="5,2" d="M1210.3186,-184C1169.7059,-184 1119.9602,-184 1119.9602,-184 1119.9602,-184 1119.9602,-205.9489 1119.9602,-205.9489"/>
<polygon fill="#000000" stroke="#000000" points="1116.4603,-205.9488 1119.9602,-215.9489 1123.4603,-205.9489 1116.4603,-205.9488"/>
</g>
<!-- ProductPriceInfoComponent  -->
<g id="node20" class="node">
<title>ProductPriceInfoComponent </title>
<polygon fill="#fb8072" stroke="#000000" points="973.4656,-252 792.5344,-252 792.5344,-216 973.4656,-216 973.4656,-252"/>
<text text-anchor="middle" x="883" y="-229.8" font-family="Times,serif" font-size="14.00" fill="#000000">ProductPriceInfoComponent </text>
</g>
<!-- ProductModule&#45;&gt;ProductPriceInfoComponent  -->
<g id="edge19" class="edge">
<title>ProductModule&#45;&gt;ProductPriceInfoComponent </title>
<path fill="none" stroke="#000000" stroke-dasharray="5,2" d="M1210.3428,-180C1117.8905,-180 933.7053,-180 933.7053,-180 933.7053,-180 933.7053,-205.7181 933.7053,-205.7181"/>
<polygon fill="#000000" stroke="#000000" points="930.2054,-205.718 933.7053,-215.7181 937.2054,-205.7181 930.2054,-205.718"/>
</g>
<!-- ProductVariantsComponent  -->
<g id="node21" class="node">
<title>ProductVariantsComponent </title>
<polygon fill="#fb8072" stroke="#000000" points="774.8031,-252 599.1969,-252 599.1969,-216 774.8031,-216 774.8031,-252"/>
<text text-anchor="middle" x="687" y="-229.8" font-family="Times,serif" font-size="14.00" fill="#000000">ProductVariantsComponent </text>
</g>
<!-- ProductModule&#45;&gt;ProductVariantsComponent  -->
<g id="edge20" class="edge">
<title>ProductModule&#45;&gt;ProductVariantsComponent </title>
<path fill="none" stroke="#000000" stroke-dasharray="5,2" d="M1209.978,-177C1077.7862,-177 739.375,-177 739.375,-177 739.375,-177 739.375,-205.9648 739.375,-205.9648"/>
<polygon fill="#000000" stroke="#000000" points="735.8751,-205.9648 739.375,-215.9648 742.8751,-205.9649 735.8751,-205.9648"/>
</g>
<!-- ProductRoutingModule -->
<g id="node13" class="node">
<title>ProductRoutingModule</title>
<polygon fill="#8dd3c7" stroke="#000000" points="462.2162,-122 459.2162,-126 438.2162,-126 435.2162,-122 313.7838,-122 313.7838,-86 462.2162,-86 462.2162,-122"/>
<text text-anchor="middle" x="388" y="-99.8" font-family="Times,serif" font-size="14.00" fill="#000000">ProductRoutingModule</text>
</g>
<!-- ProductRoutingModule&#45;&gt;ProductModule -->
<g id="edge12" class="edge">
<title>ProductRoutingModule&#45;&gt;ProductModule</title>
<path fill="none" stroke="#000000" d="M388,-122.2667C388,-140.5552 388,-166 388,-166 388,-166 1200.2679,-166 1200.2679,-166"/>
<polygon fill="#000000" stroke="#000000" points="1200.268,-169.5001 1210.2679,-166 1200.2679,-162.5001 1200.268,-169.5001"/>
</g>
<!-- SharedModule -->
<g id="node14" class="node">
<title>SharedModule</title>
<polygon fill="#8dd3c7" stroke="#000000" points="296.4231,-122 293.4231,-126 272.4231,-126 269.4231,-122 197.5769,-122 197.5769,-86 296.4231,-86 296.4231,-122"/>
<text text-anchor="middle" x="247" y="-99.8" font-family="Times,serif" font-size="14.00" fill="#000000">SharedModule</text>
</g>
<!-- SharedModule&#45;&gt;ProductModule -->
<g id="edge13" class="edge">
<title>SharedModule&#45;&gt;ProductModule</title>
<path fill="none" stroke="#000000" d="M247,-122.1061C247,-141.3391 247,-169 247,-169 247,-169 1200.2706,-169 1200.2706,-169"/>
<polygon fill="#000000" stroke="#000000" points="1200.2706,-172.5001 1210.2706,-169 1200.2705,-165.5001 1200.2706,-172.5001"/>
</g>
<!-- ProductResolver -->
<g id="node22" class="node">
<title>ProductResolver</title>
<ellipse fill="#fdb462" stroke="#000000" cx="99" cy="-104" rx="75.3002" ry="18"/>
<text text-anchor="middle" x="99" y="-99.8" font-family="Times,serif" font-size="14.00" fill="#000000">ProductResolver</text>
</g>
<!-- ProductResolver&#45;&gt;ProductModule -->
<g id="edge21" class="edge">
<title>ProductResolver&#45;&gt;ProductModule</title>
<path fill="none" stroke="#000000" d="M99,-122.1289C99,-142.5724 99,-173 99,-173 99,-173 1200.1485,-173 1200.1485,-173"/>
<polygon fill="#000000" stroke="#000000" points="1200.1485,-176.5001 1210.1485,-173 1200.1484,-169.5001 1200.1485,-176.5001"/>
</g>
</g>
</svg>
